<svg width="128" height="126" viewBox="0 0 128 126" xmlns="http://www.w3.org/2000/svg">
<g opacity="0.2">
<path fill-rule="evenodd" clip-rule="evenodd" d="M65.6046 0.483269L65.7185 1.22975L66.2362 2.0129L65.8645 2.40556L65.9483 3.39798L66.2662 3.9244L67.0481 3.9546L67.684 5.17141L68.1501 5.19298L68.6828 5.62663L69.0931 4.78306L70.8631 4.24586L71.2197 5.16062L71.8384 5.49287L71.6472 6.10774L72.1133 7.98688L72.8673 8.45289L73.5031 8.23714L73.748 7.86175L74.1411 7.99766L73.9778 8.50682L74.9402 8.38385L75.4042 8.93616L75.3891 10.1508L75.8338 11.0526L76.1861 10.4075L77.1012 10.3946L77.563 10.7463L78.6564 10.2975L79.1182 10.9706L79.4812 11.0742L79.666 11.7106L79.9302 11.7063L79.8872 11.2748L80.2997 11.5143L80.4135 11.784L79.7863 12.3406L79.8249 13.0353L79.5886 13.4474L80.2288 13.456L80.4973 14.3427L79.8722 14.6361L79.7089 15.5876L79.2153 15.7329L79.2192 15.7343L79.7175 15.5876L80.5084 15.8709L81.1954 15.7278L82.4112 16.1679L83.7624 15.484L84.6066 15.361L84.4927 14.3794L84.6903 13.9781L85.7794 12.9576L85.8804 13.1583L86.4217 13.4021L86.1661 13.6394L86.2047 14.0817L86.0179 13.8918L85.7408 14.401L85.9298 14.7764L85.4701 15.7386L86.3508 16.5606L85.9835 17.1539L86.2305 17.8054L86.0243 18.1744L87.3067 18.0773L88.1896 18.5929L88.8318 19.553L89.762 19.5184L90.3076 20.0966L90.1508 20.6856L90.4537 20.4138L90.8811 20.6123L91.083 20.8302L91.4117 21.2854L91.5664 22.2455L92.3139 21.8032L92.8036 22.116L93.0786 21.527L94.0023 21.6824L94.245 21.348L94.8164 21.6306L95.0978 22.2347L95.9678 22.308L96.1053 22.8927L96.6401 22.9402L96.9194 22.6726L97.16 22.8582L97.4006 22.3145L98.3973 22.0276L99.5186 22.7697L100.09 22.5432L101.231 23.2983L101.08 23.5593L101.626 24.062L101.325 24.3166L102.242 25.2357L102.161 25.5248L102.416 25.6499L102.474 26.1116L102.726 26.0792L102.618 26.5021L102.859 26.8171L103.722 26.9681L103.959 26.5906L103.746 26.1548L104.64 26.0167L105.488 26.4568L105.643 27.5053L106.068 26.9379L106.584 27.4212L107.376 27.2917L107.804 27.4967L108.092 27.1062L108.416 27.1105L108.437 26.7265L109.148 26.5604L109.069 26.8193L109.589 26.761L109.894 27.734L110.815 28.0641L110.865 28.3273L111.715 28.2863L111.741 28.4632L112.265 28.159L112.91 28.5991L113.511 28.2669L114.931 29.1924L116.175 29.5182L115.432 30.3553L114.901 31.7404L113.853 32.3531L113.782 32.8299L112.669 33.9237L112.321 34.6939L112.375 35.6303L112.04 35.9604L111.72 37.2505L111.829 38.1545L111.37 38.4954L111.131 39.5698L110.332 40.9247L110.268 42.081L110.738 42.9117L110.152 44.15L109.911 45.479L110.074 46.0831L109.75 46.5664L110.461 47.7983L110.388 48.178L109.636 48.657L109.917 48.8101L109.623 48.9072L109.743 49.2028L109.542 49.4099L109.032 49.2395L108.938 49.4358L109.247 49.5588L108.631 50.0722L108.115 49.9514L107.355 50.2146L107.256 49.9773L106.702 49.9169L106.985 49.2546L106.367 49.1359L105.033 49.2546L105.2 49.7896L104.65 50.0636L104.105 51.1208L105.329 50.8554L105.619 50.9956L105.679 51.371L105.275 51.4918L105.153 51.8867L104.676 51.9859L104.786 52.5727L103.77 53.5047L103.926 53.5975L103.748 53.8046L102.534 54.6827L102.681 55.0905L101.806 55.8499L100.696 56.0937L100.116 56.6978L100.404 57.2091L100.107 58.2101L100.298 58.6956L97.2502 61.2759L97.6626 61.6836L96.9129 62.7537L96.842 63.3578L96.8412 63.3587L97.7786 63.9943L97.175 65.0536L97.3748 65.4937L96.0881 65.9381L95.9506 66.197L96.2191 66.3912L95.8883 67.0751L96.7303 66.7731L97.4113 66.9284L98.8999 65.8281L99.0266 65.429L98.5906 65.4894L98.4767 64.8162L98.2319 64.7084L98.5176 64.0849L100.895 62.8292L102.35 62.8594L103.581 63.2154L103.14 64.1431L103.978 65.1053L103.437 66.0935L103.374 66.9456L104.279 67.1139L104.075 68.0956L104.601 67.8863L105.516 69.3059L105.574 69.705L105.149 70.3652L104.405 70.7665L103.578 70.8161L103.46 72.2422L104.425 73.1871L105.179 73.3382L104.975 74.0005L105.181 75.0577L105.666 75.1893L105.619 75.474L106.07 75.5064L106.201 75.9703L106.85 76.3176L106.163 77.3144L106.384 78.2226L105.802 78.7836L105.192 78.6779L104.691 79.3186L104.223 79.3359L104.221 79.7372L103.828 79.858L103.104 79.4481L101.886 80.0759L101.415 79.8882L101.091 80.1924L100.812 80.0716L100.543 80.2787L100.544 80.2831L100.81 80.078L101.089 80.1989L101.413 79.8947L101.884 80.0824L102.262 81.2258L102.893 81.297L102.953 82.6713L103.957 83.366L104.373 83.4458L104.599 83.2171L105.372 83.7047L105.17 84.1362L105.849 85.4652L104.833 85.5407L104.88 86.2635L103.879 87.3918L104.081 87.9959L104.708 88.6259L104.212 88.7294L104.165 89.4673L105.121 90.4942L105.228 91.0465L106.837 91.4758L107.656 92.2288L108.223 92.1619L108.351 92.5459L108.951 92.5848L109.005 92.3582L110.68 92.1188L110.843 91.7801L111.264 91.8059L111.107 92.3475L111.537 92.9343L111.455 93.4521L111.075 93.6225L110.981 94.2978L110.22 94.6991L110.143 95.2665L109.597 95.5556L109.907 96.6731L108.798 97.4606L108.199 97.5404L108.147 97.9892L107.988 97.6138L107.892 97.8748L107.338 97.8274L107.041 98.302L106.577 98.2718L106.264 99.0873L106.472 99.5167L106.257 99.6418L106.053 99.2837L105.52 99.7238L105.321 99.5275L104.846 99.6375L104.616 99.9827L104.792 100.192L104.21 101.029L103.301 101.277L102.908 101.102L102.653 102.021L101.39 102.949L102.483 103.018L102.197 103.309L102.339 103.84L101.989 104L102.034 104.233L101.802 104.349L101.271 103.967L100.694 104.436L99.6947 104.515L99.5121 105.225L98.7109 104.8L97.9333 104.876L97.6068 105.482L97.6519 105.952L97.117 105.926L97.422 105.739L97.3769 105.312L96.4575 105.325L96.2814 104.986L95.6241 105.031L95.5811 104.757L95.2245 105.029L95.8174 105.45L95.3126 105.316L95.0291 105.711L94.752 105.672L94.4362 105.441L94.5715 104.874L94.1999 104.863L94.2493 104.585L93.5619 104.526L93.4803 104.084L92.9046 104.002L92.7457 104.328L92.1356 103.661L91.8091 103.877L90.3935 103.657L90.6964 103.145L90.4322 102.837L90.6792 102.673L90.1014 101.862L89.3818 102.263L87.79 102.311L87.0769 101.079L86.6322 100.995L86.3981 101.329L86.5055 101.027L86.2907 101.154L86.1059 100.716L86.2542 101.26L85.8138 101.025L86.1081 101.37L85.614 101.564L86.0243 101.536L85.8804 101.683L86.2627 101.929L86.6064 101.629L85.889 102.278L83.6206 101.879L83.4058 101.629L83.6958 101.12L83.1845 100.751L80.4899 100.652L80.4887 100.658L79.638 100.341L79.4963 100.054L79.6746 99.7756L79.3889 99.5188L78.1859 99.6094L75.9777 101.396L75.2581 101.605L74.0337 103.029L74.0767 102.815L74.0187 103.014L72.4828 102.761L72.5623 103.02L71.1295 104.19L70.2531 105.611L69.9158 106.727L70.0662 107.294L69.7826 109.898L69.9459 111.883L70.7815 112.174L70.6827 112.582L71.0758 113.156L70.2874 113.268L69.8815 112.692L69.2241 112.785L69.0458 112.582L68.7838 112.895L68.0857 112.865L67.54 113.432L67.1405 113.286L66.6164 113.521L66.4123 113.743L66.5906 114.297L65.7421 114.084L65.3275 114.392L64.8979 114.304L64.4597 113.661L62.8894 113.122L62.3954 113.391L61.9851 113.296L61.36 114.036L60.7457 114.207L60.2731 113.795L60.011 112.94L59.5341 112.986L59.0186 112.526L58.1765 112.429L58.2603 111.693L58.6899 111.469L59.4267 111.393L59.4335 111.383L58.7028 111.458L58.7544 111.292L58.1594 111.264L58.2474 110.94L57.0295 110.822L56.5956 110.468L55.9662 110.517L55.9468 110.971L55.5881 111.109L54.8685 109.698L53.7493 109.594L53.2037 109.827L52.4003 108.858L51.5497 108.88L51.3392 108.647L51.0342 108.848L49.0902 107.965L48.6498 108.237L48.7486 108.651L48.5231 108.917L48.7164 109.009L48.4973 109.258L48.8173 109.603L48.7959 110.032L48.0956 109.855L46.5361 110.036L45.9797 109.633L45.3933 110.248L45.084 109.734L44.3407 109.478L42.7512 110.11L42.2635 110.021L42.1583 109.715L41.7695 109.614L41.342 108.738L41.0971 108.871L39.9823 108.112L39.8555 107.286L40.268 107.083L40.2078 106.213L40.4506 105.825L41.1702 105.646L41.0542 104.884L41.473 104.705L41.7287 104.08L42.1712 104.116L42.124 103.554L42.111 103.551L42.1583 104.114L41.7158 104.078L41.4602 104.703L41.0413 104.882L41.1573 105.644L40.4377 105.823L40.1949 106.211L40.2551 107.081L39.8427 107.283L39.9694 108.11L39.2433 108.725L38.8137 108.768L38.2466 108.379L37.8385 108.981L36.7107 107.678L36.2317 107.534L36.0341 106.662L34.3457 106.841L32.8206 105.978L32.5714 106.175L32.3802 105.842L31.8002 105.599L31.4995 105.741L31.0849 105.437L31.4265 104.826L30.7734 105.117L30.6875 105.924L29.9207 105.709L29.6264 105.195L30.1505 104.714L30.4405 103.961L30.3825 103.12L29.0765 102.679L28.8294 102.749L28.7091 103.221L28.4234 103.193L28.2817 102.518L27.3451 102.647L27.2721 102.229L26.8317 101.978L26.8167 101.691L27.8972 101.508L28.4965 100.958L29.867 98.3171L31.2009 91.3442L31.5575 87.1933L32.1203 85.7543L33.8108 86.0412L33.6884 85.504L33.2287 85.2861L33.5466 85.2818L32.3566 84.2851L31.7745 85.3228L31.6477 86.3044L31.5124 86.0801L32.4447 75.4244L33.001 74.3953L33.2996 74.1753L33.4886 74.6521L33.1449 74.7125L33.3705 74.7276L33.2502 74.9649L35.5894 77.0706L36.6076 80.5052L37.4561 81.3358L36.801 79.8105L36.3858 77.3148L36.3799 77.3144L36.0255 76.0695L35.4498 75.2238L34.1094 74.3543L33.6325 73.5604L32.0086 72.6154L31.7659 72.6672L31.869 72.9283L31.7379 72.6694L31.725 71.4741L32.6487 71.2584L32.2449 70.6133L32.812 70.54L33.1686 69.9143L32.943 69.4332L33.1385 69.3793L33.0912 68.9974L32.769 68.691L33.3726 68.6953L32.9366 67.5087L32.5649 67.3599L32.6917 67.0967L32.29 66.9564L32.5005 66.7083L31.9936 66.8615L31.7165 66.6242L32.0494 66.005L32.8528 65.3815L32.6466 64.8335L32.7964 64.6566L32.0322 64.6782L31.9957 65.2607L31.0183 64.4322L31.1988 64.9867L30.7713 64.3265L29.6629 64.3243L29.2462 63.5283L28.0475 63.319L26.5804 62.3503L26.1937 60.8401L25.3818 59.7009L23.6504 58.0807L23.5623 57.2005L23.9318 57.1681L23.8523 56.9459L24.6213 56.1627L24.6643 55.6341L25.1154 55.3731L24.0371 54.2447L22.7224 54.0096L23.4442 53.5414L23.3991 52.2836L23.0403 52.206L22.2584 52.6979L21.5796 52.1002L21.0791 52.3635L20.0695 51.9449L20.3918 51.7033L20.4175 51.3128L19.9385 50.8381L20.8364 50.1887L20.8407 49.8673L21.1459 49.4878L21.1457 49.4876L20.8386 49.8694L20.5035 49.8436L20.4476 49.2869L20.9889 49.2049L20.3767 48.8619L17.6487 49.3646L16.7937 48.48L16.3319 48.4779L16.0956 48.1305L15.9603 48.3053L15.7798 47.9644L15.8228 48.2945L14.9013 48.2665L14.8604 49.0043L15.2901 49.5998L14.8304 49.5415L14.5511 48.7993L14.796 48.5944L14.6671 47.9213L13.4492 46.7304L12.7854 46.7217L12.7381 46.3916L11.9562 46.5901L11.2989 45.6883L9.94563 45.5243L9.51171 45.1403L8.37753 45.3302L7.9565 44.7477L8.13909 44.4262L7.88132 44.5405L7.5634 43.8437L7.18104 44.0983L7.30993 44.4823L6.71491 44.6376L6.14137 44.2579L5.77834 44.4542L5.3788 45.2568L3.80855 45.259L3.89233 44.04L3.33168 43.0454L2.53259 42.4737L2.01275 42.5449L1.44781 42.1609L0.51554 42.0228L0.78405 41.9624L0.715312 41.6819L3.37249 41.1145L4.36705 41.3518L4.7043 40.8082L4.27254 39.8157L2.95361 39.3454L2.63999 39.436L2.10512 40.2645L1.98698 39.4037L2.24475 39.2073L1.54662 39.1361L1.48647 38.7974L2.00846 38.7629L1.99342 38.1113L2.34356 37.9733L2.1352 38.4824L2.31778 38.7327L2.63785 38.3659L2.60992 38.7758L3.06317 38.5644L3.54004 38.8578L4.35202 38.5471L4.7666 38.7845L5.11459 38.3336L4.88259 38.5277L4.08351 38.3163L4.39068 38.107L4.13291 37.9841L4.25321 37.6799L3.76344 38.1653L3.37464 38.1869L3.55078 37.9495L3.00732 38.161L3.52501 37.3994L3.31449 37.2311L1.67551 38.0035L1.01819 37.7748L0.781902 38.0962L0.199772 38.1243L0.0429617 37.695L0.298584 37.4123L0 36.9959L0.305028 36.271L0.163254 35.6216L0.582131 35.0737L1.64758 34.7997L1.68839 34.4264L2.06431 34.5106L2.25549 33.9841L2.63999 34.1977L3.51212 33.9798L3.19635 33.7468L4.00403 33.4405L4.45083 33.6109L4.45298 34.0294L5.35088 33.7835L5.10814 33.6907L5.43036 33.3089L6.20152 33.1945L6.56454 33.4534L6.61825 33.0521L7.02423 32.7609L7.08008 32.9745L7.35504 32.763L7.34 33.4836L7.69873 33.6368L7.75243 33.1492L7.76962 33.4836L8.45915 33.667L8.37967 33.2743L8.59019 32.9356L8.68685 33.1212L8.66107 32.8709L9.94133 33.3196L10.2614 33.188L10.1304 33.6907L10.4461 33.3196L10.8135 33.5354L10.7984 32.7997L11.1099 32.5192L10.7898 32.3553L10.9466 31.8396L10.7683 31.6908L11.0562 31.8871L11.5051 31.2399L11.6211 31.4966L11.7178 31.2636L11.9068 31.5613L12.1839 31.4901L12.0701 31.7986L12.4503 31.7706L13.1463 31.2528L13.6532 31.3067L14.0034 30.8537L14.0485 31.3348L15.2449 30.8472V31.5031L15.9023 31.4621L15.971 31.7792L15.6187 32.0446L16.6434 32.3768L16.4951 32.8472L17.6379 33.8223L17.595 34.5451L18.5594 35.078L18.321 35.4987L18.5723 35.393L18.9182 35.997L18.8408 35.393L19.3328 35.5353L19.9815 34.4847L20.7032 34.1762L20.57 33.872L21.0276 33.7684L21.1823 34.0855L22.0866 33.283L22.3981 33.557L21.9212 34.2107L22.1274 34.3466L22.7568 33.8827L23.0489 34.6573L22.9265 35.1556L23.1778 34.3358L23.3282 34.804L23.5838 34.2387L23.8158 34.4739L23.5709 34.0316L24.5032 33.9583L24.5977 34.4868L24.9543 34.7198L24.7932 34.8665L25.1691 35.2419L25.0574 35.8978L25.24 35.4836L25.4741 35.5634L25.0445 34.7026L25.3946 34.8903L25.2743 34.6033L24.8125 34.5062L24.9478 34.2776L24.6299 34.0165L25.0015 33.3563L26.3226 32.9658L26.3914 33.4103L26.0992 33.969L26.9047 34.4286L28.7392 34.0187L29.4824 35.9798L30.0818 36.3595L30.6832 36.2516L30.6857 36.2488L30.0925 36.3552L29.4932 35.9755L28.75 34.0143L29.2805 34.2085L29.2913 33.9712L29.4739 34.1718L30.0517 33.9L30.694 34.0424L30.1763 33.6799L30.4018 33.4577L29.8562 33.7339L28.7714 32.4912L28.7328 31.4772L28.3762 31.296L29.0313 29.9821L28.8359 29.8548L28.881 28.6962L29.3536 28.7782L28.8552 28.5366L28.6962 29.0544L28.5029 28.5344L28.3697 26.0814L28.7865 26.0404L28.3676 25.8635L28.258 26.2022L27.5406 24.569L26.6255 23.9649L26.2839 22.1613L25.9295 21.7449L26.3505 21.2379L26.2797 20.4073L26.0412 20.0233L25.3989 19.8032L25.5149 19.0956L25.9403 19.3825L26.2539 19.2186L26.4988 19.5961L28.3397 20.0341L28.2967 20.3534L28.4084 20.0492L29.4889 19.896L29.6135 19.499L31.4694 19.5098L31.7916 20.7417L31.5596 20.6597L31.4028 21.2336L31.4071 21.0416L31.1773 21.0848L31.0742 21.5615L32.348 23.4946L32.0365 24.4914L32.4554 24.1073L32.8034 24.3641L33.1707 23.7341L34.1459 23.6305L36.0191 24.295L39.2412 24.5129L40.2658 25.0674L40.5859 24.9531L40.7706 25.2314L42.7447 24.6273L43.8896 23.5788L44.751 23.2142L43.7457 23.171L45.3009 23.1473L45.664 24.4202L45.4019 24.7503L45.4058 24.7545L45.6661 24.4266L45.3031 23.1537L45.3912 22.91L45.1806 23.0739L43.7779 22.6403L43.3526 22.0923L44.1238 20.2239L43.8639 19.8766L44.1453 20.006L44.6071 19.2833L45.7649 18.8173L47.9925 17.2984L49.6508 17.0438L51.3199 16.334L51.8461 16.4872L52.4283 16.224L52.5185 16.47L52.4605 16.1981L53.4164 15.7408L55.0489 14.4139L55.6848 14.3341L55.717 14.7591L58.0326 16.8799L58.2302 17.8745L58.6905 18.5991L58.6985 18.5994L58.2367 17.8723L58.0391 16.8777L55.7234 14.757L55.6912 14.3319L55.0554 14.4118L55.717 13.7969L56.3464 12.4248L56.7567 12.2888L56.9285 12.7031L57.5643 12.8735L57.8243 12.6836L56.4925 11.4841L56.6385 10.2651L57.2744 10.2975L57.2888 10.3091L56.6106 9.72147L56.8984 7.78839L57.3302 8.14006L56.8061 7.35259L56.6836 5.14552L56.7201 4.9384L56.8018 5.27712L56.9629 5.0549L57.139 4.04737L56.849 3.09378L57.5643 2.88235L58.3097 2.05605L59.4332 1.68928L59.1711 1.63966L61.4352 1.05284L61.549 1.19954L62.0216 0.711958L61.9228 0.966537L62.1978 1.22975L62.346 0.711958L62.419 0.878082L63.7422 0.42286L63.9893 0.601928L65.45 0L65.6046 0.483269ZM100.596 80.758L100.281 80.7965L99.5121 80.5656L99.2307 79.8947L98.8806 80.0867L98.4488 79.9292L98.447 79.9358L98.8784 80.0931L99.2286 79.9011L99.51 80.5721L100.279 80.8029L100.597 80.7641L100.596 80.758ZM99.4285 83.2853L98.8569 83.0467L98.4639 83.3228L97.4521 83.1675L96.7604 83.7759L96.4146 83.53L95.8067 83.9183L95.8097 83.9215L96.4124 83.5364L96.7583 83.7824L97.45 83.174L98.4617 83.3293L98.8548 83.0532L99.4283 83.2926L99.4285 83.2853ZM96.0774 84.216L95.8217 84.4771L95.2117 84.654L94.7133 84.49L94.462 85.1567L94.4622 85.1568L94.7112 84.4965L95.2095 84.6605L95.8196 84.4836L96.0795 84.2182L96.0774 84.216ZM94.7393 85.3624L94.3782 85.8212L94.0195 85.7133L93.839 86.0024L93.0722 85.8428L93.0728 85.8498L93.8369 86.0089L94.0173 85.7198L94.3761 85.8276L94.7412 85.3638L94.7393 85.3624ZM93.1128 86.3476L92.6619 87.1933L92.6628 87.1941L93.113 86.3497L93.1128 86.3476ZM93.2504 87.714L92.9433 87.7413L92.8144 88.0994L91.4224 87.7521L91.4231 87.7593L92.8122 88.1059L92.9411 87.7478L93.2569 87.7197L93.2504 87.714ZM91.7745 88.532L91.5921 88.7488L91.0766 88.6755L91.0777 88.6824L91.59 88.7553L91.7769 88.5331L91.7745 88.532ZM92.9482 89.8255L92.7628 90.1598L92.7641 90.1601L92.9497 89.8254L92.9482 89.8255ZM93.461 91.5336L93.0786 91.8383L93.083 91.8395L93.461 91.5384L93.461 91.5336ZM93.3934 92.151L92.9734 92.0993L92.9712 92.1058L93.3922 92.1576L93.3934 92.151ZM93.0464 91.8901L93.0485 91.8836L92.7113 91.5902L92.1743 92.3216L91.4031 92.4877L91.2291 92.0843L90.7608 92.0411L90.778 91.4802L90.5138 91.3054L90.0047 91.396L89.5686 91.094L89.3946 91.3442L88.703 91.0854L88.834 90.0498L88.6922 90.1167L88.3142 90.5158L87.8802 90.1404L85.7322 91.1393L85.4615 90.0692L84.2307 89.8599L84.2306 89.8667L85.4594 90.0757L85.73 91.1458L87.8781 90.1469L88.312 90.5223L88.6901 90.1231L88.8318 90.0562L88.7008 91.0918L89.3925 91.3507L89.5665 91.1004L90.0026 91.4025L90.5117 91.3119L90.7759 91.4866L90.7587 92.0476L91.227 92.0907L91.401 92.4942L92.1721 92.328L92.7091 91.5967L93.0464 91.8901ZM84.2179 90.6006L82.9354 89.6895L82.4714 89.7564L82.336 90.4446L81.9617 90.3549L81.9623 90.3669L82.3403 90.4575L82.4757 89.7693L82.9397 89.7024L84.2185 90.611L84.2178 90.6086L84.2179 90.6006ZM81.9264 89.6685L81.9258 89.655L81.3393 89.7564L80.7228 90.6711L79.5865 89.7779L78.8594 89.997L78.8604 90.0109L79.5908 89.7909L80.7271 90.6841L81.3436 89.7693L81.9264 89.6685ZM79.0366 88.9244L79.0409 88.9214L78.3226 88.0881L78.3256 88.0994L79.0366 88.9244ZM78.0065 86.8646L78.0034 86.8524L77.5629 86.5582L77.5651 86.5698L78.0065 86.8646ZM77.1917 84.6903L77.1902 84.6827L76.968 84.6389L77.0324 84.3325L76.7338 84.4275L76.3021 83.9722L76.1431 83.5019L75.4579 83.6206L75.518 83.2689L75.1314 82.9582L74.807 83.0273L74.8066 83.0329L75.1271 82.9647L75.5137 83.2754L75.4557 83.6249L76.141 83.5084L76.2978 83.9787L76.7295 84.4339L77.0281 84.339L76.9637 84.6454L77.1917 84.6903ZM78.2789 83.5719L78.4265 83.7263L78.428 83.7253L78.2783 83.5688L78.2789 83.5719ZM82.1966 79.7353L82.3081 80.0629L82.3146 80.0591L82.205 79.7372L82.1966 79.7353ZM82.3179 77.9827L82.3103 77.9724L81.8806 78.2075L81.5545 77.9843L81.8742 78.2162L82.3179 77.9827ZM81.7299 77.6323L81.7303 77.6315L81.3938 77.4325L81.393 77.433L81.7299 77.6323ZM81.4152 76.7936L81.4081 76.7836L80.8561 76.912L80.8646 76.9217L81.4152 76.7936ZM80.5109 76.5264L80.5037 76.5183L80.0161 76.4729L79.7175 76.583L79.797 76.8268L79.1504 76.9109L79.0602 77.1957L78.6113 77.0274L78.5906 77.2866L78.6005 77.3057L78.622 77.0339L79.0731 77.2043L79.1633 76.9195L79.8099 76.8354L79.7304 76.5938L80.0311 76.4816L80.5109 76.5264ZM78.3002 76.7454L78.2976 76.7405L77.9625 76.6865L77.5833 77.2092L77.5866 77.2281L77.9754 76.6952L78.3002 76.7454ZM77.8387 74.1165L77.838 74.1149L76.866 73.4398L76.867 73.4417L77.8387 74.1165ZM78.3385 66.5465L79.3502 66.1668L80.0226 66.4883L80.2846 66.2229L80.4457 66.4387L80.6992 66.3114L80.6584 66.6846L80.8861 66.7148L81.7539 66.3329L81.7542 66.3316L80.8882 66.7126L80.6605 66.6846L80.7013 66.3092L80.4457 66.4365L80.2846 66.2207L80.0226 66.4861L79.3502 66.1647L78.3385 66.5465ZM82.5209 64.8961L82.9246 65.2779L82.9259 65.2772L82.5229 64.8961L82.5209 64.8961ZM83.4984 64.9394L83.9428 65.306L83.9444 65.3016L83.5024 64.9371L83.4984 64.9394ZM84.4932 64.7802L84.7677 65.1356L84.4906 65.3901L84.9954 65.7202L84.8472 66.2186L85.1939 66.5067L84.8493 66.2186L84.9975 65.7202L84.4927 65.3901L84.7698 65.1356L84.497 64.7796L84.4932 64.7802ZM86.8245 62.0319L86.9093 62.2575L86.9104 62.2569L86.8255 62.0288L86.8245 62.0319ZM87.365 62.1733L87.8545 62.4754L87.8575 62.4746L87.365 62.1733ZM89.1869 62.1963L89.4483 62.812L89.4521 62.8128L89.1884 62.1971L89.1869 62.1963ZM90.1483 62.9641L90.0111 63.3923L90.705 63.7915L90.5632 63.9468L90.9413 64.7192L90.9436 64.713L90.5696 63.949L90.7093 63.7936L90.0154 63.3945L90.1529 62.9652L90.1483 62.9641ZM91.1269 64.2471L91.2377 64.6566L91.2435 64.6566L91.1303 64.2381L91.1269 64.2471ZM91.5792 64.6566L91.5664 65.3168L91.5707 65.3164L91.5857 64.6566L91.5792 64.6566ZM93.0772 64.285L93.1087 64.5444L93.1129 64.5458L93.0807 64.2812L93.0772 64.285ZM93.7081 64.7373L93.8111 65.3621L93.815 65.3619L93.7123 64.7386L93.7081 64.7373ZM84.4347 91.3011L84.4328 91.2948L84.7333 91.3097L84.7357 91.316L84.4347 91.3011ZM84.8579 92.9666L84.8579 92.9623L85.44 93.1565L85.4429 93.1618L84.8579 92.9666ZM82.2308 98.63L82.2328 98.6264L82.6325 98.7659L82.6312 98.7697L82.2308 98.63ZM81.2255 99.4821L81.3985 99.7145L81.3973 99.7151L81.2264 99.4855L81.2255 99.4821ZM33.1669 64.6373L33.1707 64.6372L33.3554 64.2262L33.3511 64.2273L33.1669 64.6373ZM35.1703 64.6363L35.1727 64.6372L35.3333 64.3311L35.3317 64.3287L35.1703 64.6363ZM36.3191 64.831L36.3198 64.8314L36.5268 64.5403L36.526 64.5401L36.3191 64.831ZM37.9376 63.7665L37.948 63.7569L37.3552 63.3815L37.3495 63.3942L37.9376 63.7665ZM37.2211 63.6693L37.0373 63.5887L37.3294 62.8443L36.9819 62.0006L36.9707 62.0051L37.3208 62.8551L37.0287 63.5994L37.2155 63.6814L37.2211 63.6693ZM37.3571 61.8434L37.3681 61.839L37.1597 61.2802L37.2757 60.6804L36.8933 60.4906L37.0867 60.1389L36.7085 59.8427L36.6979 59.852L37.0781 60.1497L36.8847 60.5014L37.2671 60.6912L37.1511 61.291L37.3571 61.8434ZM36.9047 59.6688L36.9148 59.6599L36.3477 58.9415L36.3692 58.4561L36.361 58.4046L36.352 58.4129L36.3606 58.4669L36.3391 58.9523L36.9047 59.6688ZM36.5285 58.2457L36.5389 58.236L36.3048 58.0828H36.2425L35.888 57.8434H35.8515L35.3553 57.2565L35.5615 56.7841L35.0997 56.6093L35.2028 56.4669L34.9321 56.4583L35.0632 56.2469L34.8027 56.0996L34.7646 56.0937L35.0546 56.2576L34.9235 56.4691L35.1942 56.4777L35.0911 56.6201L35.5529 56.7949L35.3467 57.2673L35.8429 57.8542H35.8794L36.2339 58.0936H36.2962L36.5285 58.2457ZM37.9024 55.33L37.9115 55.3213L37.7993 54.9131L37.7891 54.9179L37.9024 55.33ZM39.1194 54.8741L39.1252 54.8726L39.221 54.561L39.2154 54.5619L39.1194 54.8741ZM41.6048 55.038L41.6062 55.0387L41.9836 54.4395L41.9821 54.4389L41.6048 55.038ZM42.4324 54.6115L42.4375 54.6137L42.6962 53.6518L42.6889 53.6579L42.4324 54.6115ZM43.2449 53.5923L43.2481 53.5938L43.4514 52.0555L43.4471 52.0614L43.2449 53.5923ZM44.216 54.4216L44.2161 54.4217L44.3881 54.2406L44.388 54.2404L44.216 54.4216ZM45.5543 55.7735L45.5 55.8039L45.5544 55.7744L45.5543 55.7735ZM45.6552 56.6605L45.6554 56.6611L46.0233 56.4176L46.0227 56.4173L45.6552 56.6605ZM46.6794 56.676L46.68 56.6762L47.2758 56.2944L47.2729 56.2943L46.6794 56.676ZM48.0989 56.3136L48.1042 56.3137L47.8343 55.6748L47.8271 55.6751L48.0989 56.3136ZM48.2202 55.658L48.2721 55.656L48.2717 55.6557L48.2202 55.658ZM53.2699 63.7539L53.0877 63.6922L53.0852 63.6979L53.266 63.7591L53.2699 63.7539ZM52.8388 64.2348L52.1189 64.0439L52.1175 64.048L52.8364 64.2402L52.8388 64.2348ZM51.7291 65.1088L50.8172 65.0018L50.8154 65.0047L51.728 65.1118L51.7291 65.1088ZM50.4165 68.4761L50.4198 68.4796L50.645 68.3058L50.6411 68.3027L50.4165 68.4761ZM50.6226 69.7169L50.0031 69.6015L50.0044 69.6076L50.6196 69.7201L50.6226 69.7169ZM49.7387 71.3948L49.1138 71.2347L49.1141 71.2413L49.7367 71.4008L49.7387 71.3948ZM47.3261 73.4244L47.3223 73.4245L47.2646 74.4543L47.2686 74.4514L47.3261 73.4244ZM46.7722 74.8125L46.7702 74.8139L46.6183 75.2864L46.6199 75.2864L46.7722 74.8125ZM45.4758 75.6457L45.462 75.6337L45.5902 75.9144L45.5974 75.912L45.4758 75.6457ZM45.2294 76.0431L45.2279 76.0436L44.9723 76.7793L45.1388 77.6928L45.1441 77.6898L44.9766 76.7707L45.2294 76.0431ZM42.6008 79.3704L42.5965 79.379L42.797 79.5259L42.807 79.5214L42.6008 79.3704ZM42.441 79.6903L42.4375 79.6919L42.3744 80.2053L42.3774 80.2075L42.441 79.6903ZM37.522 77.0815L37.5206 77.077L37.4495 77.3961L37.4518 77.3963L37.522 77.0815ZM78.274 14.6922L78.2739 14.6972L77.4384 15.1755L77.437 15.1714L78.274 14.6922ZM75.8875 14.3341L75.8927 14.3358L75.4428 14.5563L75.4042 14.8907L74.9982 14.9533L74.9966 14.9522L75.3956 14.8907L75.4342 14.5563L75.8875 14.3341ZM74.3645 14.5412L74.3698 14.5447L73.9005 15.0504L73.8934 15.0487L74.3645 14.5412ZM72.7577 14.7915L72.7647 14.7931L72.4613 15.0806L72.0016 15.1021L72.0014 15.1018L72.4527 15.0806L72.7577 14.7915ZM71.8233 14.8497L71.8251 14.8523L71.0629 15.141L71.0602 15.1388L71.8233 14.8497ZM69.643 14.4786L69.6502 14.4795L69.265 14.7224L69.2587 14.721L69.643 14.4786ZM68.8031 14.6189L68.8098 14.6204L68.3091 15.0158L68.3086 15.0094L68.8031 14.6189ZM68.2446 14.2241L68.2449 14.228L67.2672 14.6922L67.2688 14.6874L68.2446 14.2241ZM66.8999 13.5358L66.9085 13.5365L66.8763 14.1744L66.8679 14.1711L66.8999 13.5358ZM65.5187 13.3179L65.5267 13.3192L65.3554 13.7192L65.3511 13.7093L65.5187 13.3179ZM65.1814 13.3417L65.1819 13.3427L64.8915 13.3783L64.3351 14.0881L64.3298 14.0839L64.8829 13.3783L65.1814 13.3417ZM64.2148 12.0386L64.2222 12.0396L63.7981 12.4312L63.7953 12.4259L64.2148 12.0386ZM63.5553 11.9782L63.5622 11.9914L63.5167 12.3406L63.5085 12.3371L63.5553 11.9782ZM62.999 12.1206L63.0036 12.1225L61.9314 12.6578L61.9293 12.6545L62.999 12.1206ZM61.7445 12.3881L61.746 12.3903L61.3579 12.5132L61.3576 12.5106L61.7445 12.3881ZM60.1163 10.6923L60.1205 10.6958L59.779 10.9663L59.7746 10.963L60.1163 10.6923ZM58.8467 10.2781L58.8495 10.2801L57.6095 10.7096L57.6078 10.7072L58.8467 10.2781ZM78.8067 20.3145L79.4581 20.3783L79.4576 20.3814L78.8047 20.3173L78.8067 20.3145ZM78.0764 23.9002L78.7574 24.1325L78.7573 24.1375L78.0699 23.9024L77.7527 23.5024L77.7585 23.4989L78.0764 23.9002ZM76.4567 24.1915L77.1035 24.3469L77.1033 24.349L76.4539 24.1929L76.4567 24.1915ZM75.604 26.3727L75.5995 26.3689L75.7436 26.2389L75.7451 26.2432L75.604 26.3727ZM75.8961 26.6488L75.8954 26.6469L76.1904 26.5906L76.1903 26.5926L75.8961 26.6488ZM75.3587 27.0547L75.799 27.1203L75.7973 27.1213L75.3587 27.0547ZM74.7361 28.5582L74.7363 28.5547L75.3118 28.4719L75.3137 28.475L74.7361 28.5582ZM73.4924 30.9572L73.6282 31.2574L73.6191 31.2658L73.4816 30.9572L72.9231 30.7997L72.787 30.0413L72.7964 30.0339L72.9339 30.7997L73.4924 30.9572ZM72.2358 29.7555L72.4492 30.3042L72.442 30.31L72.2275 29.7586L72.2358 29.7555ZM71.7589 29.4319L71.8768 29.8883L71.8684 29.8915L71.7503 29.4341L71.0028 28.8926L71.2111 28.3769L70.7471 27.6132L70.1433 27.4658L70.1435 27.4622L70.7536 27.611L71.2176 28.3748L71.0092 28.8904L71.7589 29.4319ZM69.6001 27.8095L70.1072 27.8948L70.107 27.898L69.5981 27.8124L69.6001 27.8095ZM69.2413 27.8095L69.4059 28.085L69.4024 28.09L69.2349 27.8117L69.1006 27.8489L69.2413 27.8095ZM67.8107 27.7405L68.1975 28.0989L68.1909 28.1008L67.8059 27.744L67.8107 27.7405ZM66.2469 27.5808L67.1452 28.2268L67.1405 28.2302L66.2417 27.5854L66.2469 27.5808ZM65.5294 27.3629L65.8048 27.9674L65.7979 27.9735L65.5243 27.3726L65.5294 27.3629ZM64.9752 27.611L65.3424 27.6979L65.3404 27.7016L64.9666 27.6132L65.0869 27.4579L64.698 27.1445L64.7067 27.1407L65.0955 27.4557L64.9752 27.611ZM64.5284 27.0652L64.4753 27.2402L64.4661 27.2443L64.5177 27.0674L63.9443 26.8903L63.9484 26.8861L64.5284 27.0652ZM63.4028 26.5215L63.7909 27.0398L63.783 27.0479L63.3969 26.5301L63.4028 26.5215ZM62.5543 26.6186L62.6831 27.0022L62.6725 27.0048L62.5445 26.6236L62.5543 26.6186ZM61.3278 26.1957L62.1244 26.8324L62.1161 26.8365L61.3205 26.2007L61.3278 26.1957ZM59.5642 26.8451L59.7314 26.8172L59.5535 26.8473L58.8478 26.5411L58.8553 26.5388L59.5642 26.8451ZM58.2582 26.4072L58.4173 26.6692L58.4064 26.6725L58.2455 26.4075L58.2582 26.4072ZM58.2882 26.0081L58.1766 26.409L58.1637 26.4093L58.2754 26.0081L57.9596 25.9066L58.009 25.4557L58.0154 25.4542L57.966 25.9045L58.2882 26.0081ZM58.7265 25.7082L58.7225 25.703L58.8532 25.3198L58.5718 25.0847L58.4708 24.062L58.1185 23.6866L58.2818 23.5184L58.052 23.4946L58.4837 22.6921L58.5696 22.636L58.7329 22.1699L58.4627 22.0639L58.4644 22.0599L58.7393 22.1678L58.5761 22.6338L58.4902 22.6899L58.0584 23.4925L58.2882 23.5162L58.125 23.6845L58.4773 24.0599L58.5782 25.0825L58.8596 25.3177L58.7265 25.7082ZM58.0885 22.1678L58.3293 22.3629L58.3269 22.3684L58.082 22.1699L58.3591 21.6975L57.893 21.0869H57.9011L58.3656 21.6953L58.0885 22.1678ZM57.9381 21.0848H57.9324L58.1143 20.5238L57.9016 20.2347L58.3839 19.5371L58.3914 19.5335L57.908 20.2326L58.1207 20.5217L57.9381 21.0848ZM57.835 19.5335L57.987 19.727L57.9811 19.7299L57.8286 19.5357L58.3656 18.5886L58.3707 18.5888L57.835 19.5335ZM22.0914 49.697L22.093 49.6968L22.2599 48.9707L22.2584 48.9698L22.0914 49.697ZM23.4641 49.3147L23.4657 49.3171L23.5213 48.898L23.5194 48.8986L23.4641 49.3147ZM24.0479 48.7481L24.0499 48.7476L24.1959 47.1994L24.1939 47.2007L24.0479 48.7481ZM27.9583 46.4067L27.9595 46.4067L28.2959 45.6921L28.2946 45.6926L27.9583 46.4067ZM29.6241 45.1671L29.6264 45.1662L29.5751 44.7393L29.5727 44.739L29.6241 45.1671ZM31.6421 45.5175L31.6434 45.5179L32.4592 43.0124L32.4575 43.0131L31.6421 45.5175ZM33.6925 42.5006L33.6948 42.4996L33.1771 39.8546L33.1406 39.82L32.9409 38.9765L33.4392 38.1351L33.1192 36.9808L33.218 35.7187L33.8022 35.9733L33.8067 35.9694L33.2266 35.7166L31.5876 35.2355L31.5823 35.2414L33.2158 35.7209L33.117 36.983L33.4371 38.1372L32.9387 38.9786L33.1385 39.8222L33.175 39.8567L33.6925 42.5006ZM34.2375 35.5981L34.6507 35.8741L35.2178 35.8374L35.4992 36.4307L35.5072 36.4272L35.2264 35.8352L34.6593 35.8719L34.2426 35.5936L34.2375 35.5981ZM35.8113 36.2961L35.9782 36.6896L35.9862 36.686L35.8193 36.2926L35.8113 36.2961ZM36.2509 36.1867L36.6098 36.2538L36.6129 36.2506L36.2489 36.1826L36.2509 36.1867ZM36.8364 36.0306L36.9427 36.5796L36.951 36.5759L36.8439 36.0229L36.8364 36.0306ZM38.2107 35.7057L39.2133 35.6928L39.6021 36.0402L39.6057 36.0336L39.2219 35.6907L38.2123 35.7036L38.2107 35.7057ZM39.8937 35.5273L40.3324 35.7274L40.3356 35.7227L39.8964 35.5224L39.8937 35.5273ZM40.5412 34.9595L40.906 34.9679L41.458 35.4491L41.2067 35.6842L41.4473 36.407L42.3044 36.4846L42.3022 37.5159L42.3108 37.51L42.313 36.4825L41.4559 36.4048L41.2153 35.6821L41.4666 35.4469L40.9145 34.9658L40.5408 34.9571L40.5412 34.9595ZM42.7521 37.2111L43.2753 37.4749L43.2769 37.4692L42.7576 37.2074L42.7521 37.2111ZM44.0552 36.3985L45.4406 36.0877L46.1666 36.8428L46.2547 38.2278L47.0323 38.5407L47.0349 38.5361L46.2633 38.2257L46.1752 36.8406L45.4492 36.0855L44.055 36.3983L44.0552 36.3985ZM47.1259 38.3921L47.5328 39.2095L48.4543 39.4209L48.4555 39.4171L47.5414 39.2073L47.1311 38.3832L47.1259 38.3921ZM48.5909 39.0163L49.3372 40.0228L49.8699 39.943L50.9205 40.6838L50.9268 40.683L49.875 39.9414L49.3458 40.0207L48.5939 39.0067L48.5909 39.0163ZM50.3486 40.758L50.3446 40.7585L50.2591 41.1516L50.2609 41.1512L50.3486 40.758ZM50.0164 41.21L50.0095 41.2116L50.2931 41.2742L50.274 41.5679L50.278 41.5676L50.2974 41.272L50.0164 41.21ZM49.838 41.6039L49.8334 41.6043L49.8656 42.0508L50.2652 42.1501L50.0546 42.7326L50.3245 43.3436L50.3317 43.341L50.0611 42.7283L50.2716 42.1458L49.8699 42.0465L49.838 41.6039ZM50.033 43.4488L50.0267 43.451L49.991 44.0201L49.9966 44.0292L50.033 43.4488ZM49.5457 43.867L49.5412 43.8696L49.6121 44.7819L49.6186 44.7757L49.5457 43.867ZM48.9399 45.4253L48.9333 45.4316L49.0153 45.6427L49.0214 45.6408L48.9399 45.4253ZM47.9884 46.2933L47.9839 46.2989L48.0741 46.6894L48.2798 46.627L48.2846 46.6203L48.0784 46.6829L47.9884 46.2933ZM46.9021 47.2623L46.8991 47.2632L46.7702 47.5986L46.7724 47.5998L46.9021 47.2623ZM46.1811 47.2814L46.1795 47.2805L46.0119 47.5976L46.3549 48.1402L46.3599 48.137L46.0162 47.5933L46.1811 47.2814ZM44.8377 47.7936L44.8326 47.7918L44.8434 47.904L44.489 48.6634L44.7747 48.8188L44.7338 49.1791L44.1216 50.508L44.3835 50.743L44.388 50.7367L44.1259 50.5037L44.7381 49.1726L44.7789 48.8144L44.4933 48.657L44.8477 47.8975L44.8377 47.7936ZM45.5265 25.1947L45.6494 25.018L45.6532 25.0221L45.5357 25.1911L45.5265 25.1947ZM46.1881 25.4579V25.1713L46.1902 25.1731V25.4644L45.6315 25.6807L45.6253 25.6758L46.1881 25.4579ZM46.201 26.9638L46.2843 26.1959L46.2869 26.1979L46.2037 26.9649L46.201 26.9638ZM46.3385 27.6089L46.6257 27.143L46.6306 27.145L46.3409 27.6149L46.3385 27.6089ZM46.042 28.3381L46.5078 28.0298L46.5103 28.0361L46.0478 28.3422L46.042 28.3381ZM46.1902 30.2539L46.7579 28.8468L46.7616 28.8494L46.1939 30.2566L46.1902 30.2539ZM48.0247 30.7997L47.9471 30.5217L47.9474 30.5214L48.025 30.7996L48.0247 30.7997ZM48.2094 31.0327L48.2556 30.7275L48.2588 30.7264L48.2126 31.0328L48.2094 31.0327ZM48.203 31.3391L48.4385 31.0434L48.4457 31.0435L48.2078 31.3423L48.203 31.3391ZM49.2491 33.037L49.6593 32.6207L49.6615 32.6271L49.2551 33.0396L49.2491 33.037ZM49.6379 33.544L49.621 33.2002L49.6229 33.201L49.6397 33.544L49.6379 33.544ZM56.3099 29.3521L56.2981 29.3598L55.8802 29.3931L55.8809 29.3884L56.3099 29.3521ZM56.3228 28.1159L56.2292 27.903L56.2304 27.9001L56.3251 28.1159H56.3228ZM49.5007 38.5292L49.5004 38.5299L49.6699 38.5823L49.5007 38.5292ZM42.3241 103.602L42.3366 103.605L42.6223 102.969L42.3645 102.589L43.0411 102.039L42.7447 101.719L42.7705 100.822L42.7573 100.831L42.7318 101.717L43.0283 102.037L42.3516 102.587L42.6094 102.966L42.3241 103.602ZM42.1779 101.233L42.1905 100.604L42.6137 100.494L42.1862 99.5598L42.1755 99.5624L42.6008 100.492L42.1776 100.602L42.1647 101.243L42.1779 101.233ZM41.9432 99.6129L41.9177 99.1434L41.1981 98.9665L41.1963 98.9671L41.9048 99.1413L41.9306 99.6159L41.9432 99.6129ZM40.6492 99.129L40.573 98.727L40.5602 98.7256L40.6374 99.1326L40.6492 99.129ZM40.2851 98.694L40.2658 98.3905L40.6203 98.2459L40.5515 97.5987L41.0434 97.2276L40.7599 96.3517L41.0542 96.3301L40.9188 95.739L41.1165 95.6074L40.6417 95.2449L41.1765 94.7294L41.1637 94.7271L40.6288 95.2428L41.1036 95.6052L40.906 95.7368L41.0413 96.328L40.747 96.3495L41.0305 97.2254L40.5386 97.5965L40.6074 98.2438L40.2529 98.3883L40.2723 98.6925L40.2851 98.694ZM41.9092 94.8607L41.922 94.863L42.448 94.1765L42.4397 94.1684L41.9092 94.8607ZM43.2927 95.2561L43.3032 95.2622L43.4557 95.0076L43.2731 94.4531L43.9018 93.9582L43.8961 93.9504L43.2603 94.451L43.4428 95.0054L43.2927 95.2561ZM44.1654 94.3001L44.1732 94.3107L44.4868 93.7865L44.8302 93.7019L44.8241 93.698L44.4739 93.7843L44.1654 94.3001ZM45.4473 94.082L45.4577 94.0885L45.5845 93.8555L46.7251 93.6117L46.8927 93.273L47.739 93.2838L48.0639 92.9765L48.0569 92.9688L47.7261 93.2816L46.8798 93.2709L46.7122 93.6096L45.5716 93.8534L45.4473 94.082ZM48.6952 93.6589L48.7013 93.6657L49.3823 93.2018L49.5391 92.6344L49.9086 92.5891L49.8295 92.1878L49.8162 92.1835L49.8957 92.5869L49.5262 92.6322L49.3694 93.1997L48.6952 93.6589ZM50.4696 92.3937L50.48 92.3971L50.7657 92.2568L50.6883 91.7952L50.4026 91.683L50.8774 91.601L51.2705 90.5611L50.5444 90.1167L50.785 89.2321L50.9885 89.1974L50.9869 89.1933L50.7721 89.2299L50.5315 90.1145L51.2576 90.5589L50.8645 91.5988L50.3897 91.6808L50.6754 91.793L50.7528 92.2547L50.4696 92.3937ZM51.1804 89.6644L51.1867 89.6808L51.2812 89.4759L52.2586 89.4263L52.207 88.6647L51.8698 88.4403L51.8655 87.6744L51.5511 87.2105L51.5368 87.2063L51.8526 87.6723L51.8569 88.4382L52.1941 88.6625L52.2457 89.4241L51.2683 89.4737L51.1804 89.6644ZM51.8394 87.2936L51.8504 87.2969L52.6431 86.8416L52.5572 86.5892L53.0834 86.0197L53.0297 85.6313L53.7021 85.4587L54.5227 84.7489L54.3658 84.0478L54.9695 83.8579L54.9329 83.448L55.6311 82.9992L55.3819 82.5979L55.6397 82.5224L55.3883 81.5537L55.3518 81.4049L55.6762 81.2107L55.0511 80.1298L55.354 79.8796L54.4303 79.776L54.2092 79.5841L54.4281 79.776L55.3518 79.8796L55.0489 80.1298L55.674 81.2107L55.3368 81.4049L55.3733 81.5537L55.6246 82.5224L55.3669 82.5979L55.616 82.9992L54.9179 83.448L54.9544 83.8579L54.3508 84.0478L54.5076 84.7489L53.6892 85.4566L53.0168 85.6292L53.0705 86.0175L52.5443 86.5871L52.6302 86.8395L51.8394 87.2936ZM57.4495 81.1091L58.3742 82.2592L58.8339 82.4426L59.779 81.7501L60.1334 82.0694L60.4728 81.7932L61.1431 81.7716L61.5122 82.4679L61.5125 82.4663L61.143 81.7695L60.4707 81.7911L60.1334 82.0672L59.779 81.7479L58.8339 82.4405L58.3742 82.2571L57.4495 81.1091ZM61.4076 83.0579L61.4073 83.0596L62.1228 84.1226L61.4076 83.0579ZM61.7516 85.2797L61.751 85.2818L61.9998 85.2921L61.7516 85.2797ZM62.417 86.2695L62.5307 85.8643L63.2288 85.6356L63.5083 85.6101L63.5081 85.6097L63.2267 85.6356L62.5286 85.8643L62.417 86.2695ZM63.74 85.9849L63.7401 85.9851L64.9129 85.8578L65.0526 85.3789L65.5939 84.9884L65.5037 84.5699L65.9548 84.0823L65.9913 83.407L67.1715 82.2044L67.1684 82.201L65.9891 83.4048L65.9505 84.0823L65.4994 84.5677L65.5917 84.9862L65.0504 85.3767L64.9108 85.8578L63.74 85.9849ZM67.4928 83.2762L67.4928 83.2797L68.2626 83.0478L68.2618 83.0445L67.4928 83.2762ZM68.5217 84.1168L68.8057 84.0614L68.8053 84.0607L68.521 84.114L68.5217 84.1168ZM72.8253 91.8787L72.5021 92.0131L72.501 92.0189L72.8265 91.8836L72.8253 91.8787ZM72.3745 92.6407L71.8555 92.8243L71.8598 92.829L72.3732 92.6473L72.3745 92.6407ZM72.5708 95.2858L71.877 95.2794L71.8698 95.2903L72.5687 95.2967L72.5708 95.2858ZM71.7259 96.0904L71.4195 96.2783L70.0834 96.0194L70.0832 96.0327L71.4066 96.2891L71.7267 96.0928L71.7259 96.0904ZM70.0449 97.7697L69.381 97.575L68.8224 97.8101L68.8204 97.8164L69.3681 97.5857L70.0447 97.7842L70.0449 97.7697ZM68.6679 98.2456L67.3317 98.7421L67.0181 98.3646L66.3543 98.1769L66.3512 98.1904L67.0052 98.3754L67.3188 98.7529L68.6656 98.2524L68.6679 98.2456ZM66.0141 101.001L64.449 100.943L64.1332 101.182L62.9002 100.647L62.8892 100.659L64.1203 101.193L64.4361 100.954L66.002 101.012L66.0141 101.001ZM62.5029 101.571L62.1183 101.18L61.2462 101.435L60.9325 100.945L60.4986 101.277L59.9186 101.133L59.8671 101.128L59.8595 101.14L59.9058 101.143L60.4857 101.288L60.9196 100.956L61.2333 101.445L62.1054 101.191L62.5006 101.592L62.5029 101.571ZM59.6581 101.43L59.2828 100.863L59.2723 100.877L59.648 101.445L59.6581 101.43ZM58.9244 102.108L58.125 102.103L58.1289 102.114L58.9262 102.119L58.9244 102.108ZM59.2658 104.495L59.2785 104.496L59.2803 104.356L59.2678 104.336L59.2658 104.495ZM59.6258 104.866L59.6265 104.867L59.8401 104.661L59.8392 104.66L59.6258 104.866ZM60.6485 106.73L60.2323 106.712L60.2236 106.723L60.6554 106.742L60.6485 106.73ZM60.4744 107.858L59.4955 108.075L59.4919 108.084L60.475 107.866L60.4744 107.858ZM62.0617 110.375L60.5888 110.399L60.5845 110.409L62.056 110.386L62.0617 110.375ZM60.3632 110.936L59.721 110.958L59.714 110.968L60.359 110.947L60.3632 110.936ZM69.3533 85.9313L69.8621 85.0402L69.9244 83.9787L70.1586 83.5062L70.3948 83.5559L70.4357 83.1524H70.4872L70.6848 82.6756L71.224 83.1934L71.6171 82.8763L71.6687 82.2722L72.0596 82.3822L72.8222 81.7738L73.2153 82.1945L73.2303 82.7425L73.7759 83.8622L74.7602 83.6533L74.7598 83.6594L73.7738 83.8665L73.2282 82.749L73.2131 82.1988L72.82 81.7781L72.0596 82.3865L71.6687 82.2765L71.6171 82.8784L71.2219 83.1956L70.6848 82.6778L70.4872 83.1546H70.4357L70.3948 83.558L70.1586 83.5084L69.9244 83.9809L69.8621 85.0423L69.3533 85.9313ZM48.5873 72.7208L48.5875 72.7211L49.1893 72.6286L49.189 72.6284L48.5873 72.7208ZM50.0031 74.1688L50.509 73.5595L50.5079 73.5582L50.0031 74.1688ZM50.7633 73.8342L50.7635 73.8344L51.8398 73.7116L51.8397 73.7114L50.7633 73.8342ZM52.4412 74.7276L52.713 74.5147L52.7118 74.514L52.4412 74.7276ZM54.1585 78.2436L53.7139 78.8726L54.1596 78.2442L54.1585 78.2436ZM53.7138 78.8745L54.2584 79.0727L54.0007 79.3575L53.9556 79.3618L53.9577 79.3636L54.0007 79.3575L54.2606 79.0727L53.7138 78.8745ZM42.0874 102.522L41.9392 102.485L41.9413 102.487L42.0874 102.522ZM41.7742 102.49L41.8253 102.524L42.0466 103.068L41.6766 103.334L41.6771 103.335L42.0487 103.068L41.8275 102.524L41.7759 102.49L41.7742 102.49ZM14.0635 50.9848L13.7971 50.6634L13.6597 51.1294L13.8809 51.7809L15.3373 51.9967L15.4576 51.6299L14.7616 51.4314L14.6048 50.9719L14.0635 50.9848ZM121.276 122.681L121.017 123.259L121.279 123.477L121.126 123.706L121.719 123.812L121.62 124.159L121.919 124.081L122.312 124.5L122.875 124.681L123.01 124.489L123.375 124.886L123.732 124.595L123.648 125.033L124.099 125.11L123.856 125.628L124.423 125.65L124.628 125.984L124.995 125.956L125.339 125.393L125.392 125.218L124.89 125.395L125.014 125.048L125.508 124.789L125.465 123.999L126.086 123.659L126.316 123.238L125.861 123.111L125.588 123.469L125.508 123.214L125.77 122.83L126.185 122.97L126.073 122.787L126.466 122.627L126.692 118.947L127.916 117.145L128 116.038L127.768 111.777L126.995 110.237L127.414 108.636L127.152 106.449L126.791 106.144L126.05 106.356L126.239 107.208L125.888 107.501L126.052 107.918L125.777 108.315L126.071 108.779L126.092 109.495L125.682 110.215L124.997 109.503L124.131 109.549L123.534 109.976L123.558 110.403L123.154 110.647L122.415 110.582L121.833 111.046L121.255 111.117L121.137 111.708L120.836 111.493L120.589 111.616L120.574 111.333L120.4 111.516L120.525 112.051L120.046 112.168L119.887 112.617L120.164 112.733L119.882 113.055L119.943 113.383L119.5 113.37L119.53 113.73L118.957 113.866L119.03 114.364L119.584 114.172L119.489 114.705L119.988 114.744L120.295 115.175L118.914 115.529L119.279 115.913L119.1 116.325L119.39 116.364L119.07 116.636L119.317 116.565L119.279 116.847L119.558 116.768L119.979 117.18L120.342 117.037L120.765 117.79L119.988 118.237L119.882 118.763L119.384 118.804L119.657 119.167L119.519 119.661L120.512 119.49L120.772 119.188L121.261 119.644L121.042 119.795L121.13 120.183L120.795 120.248L121.087 120.399L120.982 120.649L120.449 120.761L120.615 121.07L119.975 121.501L120.383 121.516L120.404 121.728L121.01 121.492L121.07 121.986L121.343 121.814L122.269 122.131L121.884 122.619L121.276 122.681ZM60.606 112.983L60.1292 112.856L60.3912 112.502L60.606 112.983ZM22.6365 55.3817L22.9888 55.6298L22.8621 56.0721L23.5301 56.4108L23.5945 57.1249L23.0726 56.2943L22.5978 56.2749L22.252 55.8585L22.1919 55.4206L22.6365 55.3817ZM29.6156 65.7116L29.2891 65.4095L28.8359 65.5908L29.0872 66.128L29.7273 66.1258L31.0871 66.8896L31.6026 66.6328L30.5823 66.0374L30.0474 66.1345L29.9207 65.9748L30.1569 65.7612L29.3707 66.0978L29.1989 65.772L29.6156 65.7116ZM31.0312 68.8032L30.2106 68.1107L30.3954 69.3232L31.4458 70.2595L31.7852 71.3015L32.1826 70.5292L31.7379 69.6425L31.7229 68.9348L31.0312 68.8032ZM87.3358 88.8061L87.2659 88.7273L87.2535 88.7101L87.3358 88.8061ZM87.3507 88.8228L87.354 88.8265L87.9749 89.2058L87.9748 89.2041L87.3507 88.8228ZM86.3649 90.1776L86.3615 90.1771L86.2219 89.614L86.5463 89.025L86.6236 88.8869L86.6924 88.8502L86.8384 88.8136L87.1134 88.5913L87.1168 88.6003L86.8449 88.82L86.6967 88.8545L86.6279 88.8912L86.5506 89.0293L86.2262 89.6183L86.3649 90.1776ZM87.154 88.6867L87.1563 88.6927L87.2477 88.7034L87.2423 88.6971L87.154 88.6867Z"/>
</g>
</svg>
