<svg width="161" height="34" viewBox="0 0 161 34" xmlns="http://www.w3.org/2000/svg">
    <path fill-rule="evenodd" clip-rule="evenodd" d="M30.1611 29.7475H47.2753V29.3091H30.1611V29.7475Z" fill="#5F6361" />
    <path fill-rule="evenodd" clip-rule="evenodd" d="M113.077 29.7475H130.191V29.3091H113.077V29.7475Z" />
    <path fill-rule="evenodd" clip-rule="evenodd" d="M114.281 10.1739L116.264 4.32145L118.223 10.1739H114.281ZM113.723 0.358136L107.869 15.9106H112.417L113.186 13.671H119.318L120.089 15.9106H124.636L118.783 0.358136H113.723ZM79.1263 10.1739L81.1091 4.32145L83.0665 10.1739H79.1263ZM78.5664 0.358136L72.714 15.9106H77.2604L78.0296 13.671H84.1632L84.9325 15.9106H89.48L83.6264 0.358136H78.5664ZM99.5491 7.18924H96.3782V3.85525H99.5491C100.621 3.85525 101.484 4.43829 101.484 5.51068C101.484 6.6062 100.621 7.18924 99.5491 7.18924ZM105.565 5.53381C105.565 2.64173 103.606 0.358136 100.155 0.358136H92.3663V15.9106H96.3782V10.6864H98.4293L101.041 15.9106H105.635L102.464 10.197C103.932 9.68454 105.565 8.23849 105.565 5.53381ZM150.231 10.1739L152.213 4.32145L154.171 10.1739H150.231ZM154.731 0.358136H149.671L143.819 15.9106H148.365L149.134 13.671H155.268L156.037 15.9106H160.585L154.731 0.358136ZM134.052 12.4124H131.534V3.85525H134.075C136.921 3.85525 138.366 5.72006 138.366 8.12165C138.366 10.4307 136.781 12.4124 134.052 12.4124ZM134.052 0.358136H127.522V15.9106H134.075C138.949 15.9106 142.47 12.9491 142.47 8.12165C142.47 3.29534 138.949 0.358136 134.052 0.358136ZM44.2721 4.74138C44.2721 4.06579 44.7845 3.669 45.9506 3.669C47.4892 3.669 49.1921 4.20461 50.4981 5.30129L52.6892 2.29236C51.0349 0.870613 48.8658 0.123298 46.3706 0.123298C42.3829 0.123298 40.1919 2.45548 40.1919 5.06761C40.1919 11.06 48.9815 9.35831 48.9815 11.4094C48.9815 12.1798 48.1428 12.646 46.7905 12.646C44.6446 12.646 42.9197 11.7136 41.7999 10.5938L39.6783 13.7184C41.2412 15.1876 43.4322 16.1906 46.5799 16.1906C50.7538 16.1906 53.0617 14.1152 53.0617 10.9906C53.0617 5.20759 44.2721 6.65363 44.2721 4.74138ZM9.53579 8.93838L6.27236 0.358136H0.69873V15.9106H4.71063V5.62636L8.65081 15.9106H10.4231L14.3401 5.62636V15.9106H18.3509V0.358136H12.7772L9.53579 8.93838ZM27.6507 10.1739L29.6335 4.32145L31.5908 10.1739H27.6507ZM27.0908 0.358136L21.2383 15.9106H25.7847L26.554 13.671H32.6864L33.4568 15.9106H38.0043L32.1507 0.358136H27.0908ZM64.2992 3.6447C65.7915 3.6447 67.1207 4.67081 67.6343 5.90631L71.0852 4.25204C70.0822 2.22295 68.0531 0.101318 64.2992 0.101318C59.5203 0.101318 55.882 3.34277 55.882 8.14595C55.882 12.926 59.5203 16.1906 64.2992 16.1906C68.0531 16.1906 70.0822 13.9984 71.0852 12.0167L67.6343 10.3844C67.1207 11.6199 65.7915 12.646 64.2992 12.646C61.7576 12.646 59.9622 10.6864 59.9622 8.14595C59.9622 5.58009 61.7576 3.6447 64.2992 3.6447Z" />
    <path fill-rule="evenodd" clip-rule="evenodd" d="M64.363 30.7377C64.363 31.1149 64.2902 31.4538 64.1444 31.7534C63.9975 32.0542 63.7927 32.3087 63.5301 32.5158C63.2687 32.724 62.9552 32.8814 62.5931 32.9889C62.2298 33.0965 61.8342 33.1497 61.4016 33.1497C60.7769 33.1497 60.2331 33.0699 59.7704 32.9068C59.3077 32.746 58.8797 32.4637 58.4863 32.0635L59.3192 31.2421C59.62 31.5429 59.9405 31.7488 60.2794 31.861C60.6195 31.9732 61.0013 32.0276 61.4247 32.0276C61.9649 32.0276 62.3825 31.9189 62.6799 31.6979C62.9772 31.4793 63.1252 31.1681 63.1252 30.7678C63.1252 30.3907 63.0176 30.1038 62.8013 29.9106C62.6937 29.8111 62.5781 29.7382 62.4554 29.692C62.3305 29.6457 62.1454 29.6029 61.899 29.5647L60.9272 29.4247C60.2563 29.3322 59.7357 29.1136 59.3655 28.7653C58.9641 28.3882 58.764 27.8642 58.764 27.1932C58.764 26.8381 58.8288 26.5118 58.9572 26.2157C59.0856 25.9184 59.2683 25.6627 59.5055 25.4464C59.7438 25.2301 60.0319 25.0646 60.372 24.9478C60.7109 24.8333 61.0973 24.7754 61.5288 24.7754C62.076 24.7754 62.5514 24.8483 62.9517 24.9941C63.3531 25.141 63.7303 25.3804 64.0854 25.7125L63.2872 26.4979C63.0338 26.2515 62.7562 26.085 62.4612 25.9959C62.1639 25.908 61.8411 25.8617 61.4953 25.8617C61.0094 25.8617 60.6357 25.9843 60.3778 26.2284C60.1198 26.4725 59.9902 26.7802 59.9902 27.1527C59.9902 27.3077 60.0145 27.4489 60.0654 27.5773C60.1152 27.7045 60.195 27.8191 60.3014 27.9197C60.5177 28.114 60.8243 28.2413 61.2246 28.3038L62.1593 28.4414C62.5445 28.5039 62.8511 28.5826 63.0836 28.6786C63.3138 28.7746 63.5174 28.8995 63.6944 29.0534C63.9165 29.2535 64.0843 29.4965 64.1965 29.781C64.3075 30.0656 64.363 30.3849 64.363 30.7377Z" fill="#5F6361" />
    <path fill-rule="evenodd" clip-rule="evenodd" d="M72.8668 27.3494C72.8668 26.9075 72.7326 26.5674 72.4654 26.3268C72.1982 26.0873 71.8442 25.9658 71.4034 25.9658H69.593V28.7202H71.4034C71.8442 28.7202 72.1982 28.6022 72.4654 28.3651C72.7326 28.1291 72.8668 27.7901 72.8668 27.3494ZM74.1046 27.3436C74.1046 27.7057 74.0422 28.0389 73.9195 28.3443C73.7946 28.6485 73.6188 28.91 73.3874 29.1309C73.156 29.3507 72.8772 29.5242 72.5533 29.6515C72.2306 29.7776 71.8673 29.8424 71.467 29.8424H69.593V33.0815H68.354V24.8448H71.4728C71.8719 24.8448 72.234 24.9073 72.5568 25.0357C72.8795 25.163 73.1583 25.3353 73.3885 25.5563C73.6188 25.7749 73.7958 26.0399 73.9195 26.3476C74.0422 26.6565 74.1046 26.9885 74.1046 27.3436Z" fill="#5F6361" />
    <path fill-rule="evenodd" clip-rule="evenodd" d="M79.9348 26.7074L78.6507 30.3629H81.1842L79.9348 26.7074ZM82.0969 33.0815L81.5312 31.4272H78.2794L77.7137 33.0815H76.3833L79.4026 24.8448H80.4079L83.4284 33.0815H82.0969Z" fill="#5F6361" />
    <path fill-rule="evenodd" clip-rule="evenodd" d="M86.9097 33.0815H88.1475V24.8448H86.9097V33.0815Z" fill="#5F6361" />
    <path fill-rule="evenodd" clip-rule="evenodd" d="M97.6678 33.0815L93.8618 27.2858V33.0815H92.624V24.8448H93.7693L97.5753 30.629V24.8448H98.8131V33.0815H97.6678Z" fill="#5F6361" />
</svg>
