<svg width="131" height="58" viewBox="0 0 131 58" fill="none" xmlns="http://www.w3.org/2000/svg">
<path fill-rule="evenodd" clip-rule="evenodd" d="M30.9331 42.3008H40.5331V41.9659H30.9331V42.3008Z" fill="#636463"/>
<path fill-rule="evenodd" clip-rule="evenodd" d="M89.6001 42.3008H99.2001V41.9659H89.6001V42.3008Z" fill="#636463"/>
<path fill-rule="evenodd" clip-rule="evenodd" d="M44.7998 39.1814V38.9395C45.2197 38.9549 45.5749 38.9626 45.8673 38.9626C46.073 38.9626 46.4453 38.958 46.979 38.9472C47.5145 38.938 47.8749 38.9333 48.0618 38.9333C48.2624 38.9333 48.446 38.9364 48.6143 38.938C48.7809 38.9426 48.9322 38.9488 49.0665 38.9595C48.9985 39.1722 48.9526 39.5497 48.9339 40.0937H48.6738C48.65 39.7917 48.6143 39.5605 48.5701 39.3972C48.4273 39.3525 48.2505 39.3201 48.0398 39.2986C47.829 39.277 47.5842 39.2662 47.3054 39.2662C47.0266 39.2662 46.7394 39.2816 46.4419 39.3124C46.4249 39.448 46.4147 39.5729 46.4079 39.69C46.4062 39.7578 46.3994 40.0429 46.3875 40.5483V41.3789C46.6969 41.3866 46.9688 41.3912 47.2068 41.3912C47.5553 41.3912 47.8358 41.3758 48.0466 41.3419C48.1247 41.3296 48.1774 41.3095 48.1995 41.2803C48.2233 41.251 48.2488 41.1462 48.276 40.9644L48.31 40.7332H48.5701L48.5412 41.5854L48.5701 42.5038H48.31L48.2811 42.2649C48.2505 41.9922 48.2284 41.8458 48.2148 41.8258C48.1927 41.7903 48.14 41.7641 48.0568 41.7472C47.9004 41.7148 47.5451 41.6979 46.9909 41.6979C46.7954 41.6979 46.5949 41.7025 46.3875 41.7133V42.4699C46.3875 42.8105 46.3926 43.1418 46.4045 43.4638C46.4096 43.7011 46.4283 43.8414 46.4606 43.8861C46.4912 43.9323 46.5439 43.9647 46.6153 43.9862C46.6867 44.0078 46.8855 44.0201 47.2102 44.0247V44.2667C46.86 44.2451 46.5116 44.2359 46.1648 44.2359C45.852 44.2359 45.3982 44.2451 44.7998 44.2667V44.0247C45.1262 44.0201 45.3251 44.0078 45.3965 43.9862C45.4679 43.9647 45.5171 43.9369 45.5443 43.8984C45.5766 43.8475 45.5987 43.7273 45.6055 43.5347C45.6089 43.4823 45.614 43.1279 45.6225 42.4699V40.7348C45.6225 40.3957 45.6191 40.0644 45.6106 39.7393C45.6021 39.502 45.5817 39.3617 45.5511 39.3186C45.5188 39.2739 45.4679 39.2415 45.3982 39.22C45.3268 39.1984 45.1279 39.1861 44.7998 39.1814Z" fill="#636463"/>
<path fill-rule="evenodd" clip-rule="evenodd" d="M52.2666 39.1814V38.9395C52.3719 38.9426 52.5339 38.9457 52.7495 38.9518L53.5298 38.9703C53.6851 38.9703 53.9241 38.9657 54.2482 38.9549C54.6709 38.9395 54.9166 38.9333 54.9834 38.9333C55.5014 38.9333 55.879 38.9765 56.1162 39.0613C56.3535 39.1445 56.5373 39.2832 56.6659 39.4742C56.7963 39.6653 56.8614 39.8733 56.8614 40.0983C56.8614 40.3079 56.7996 40.5175 56.6793 40.7255C56.5573 40.9305 56.3802 41.1046 56.148 41.2417C55.9157 41.3789 55.615 41.4852 55.244 41.5607C55.3125 41.647 55.4713 41.8412 55.7236 42.1448L56.7478 43.3883C57.0402 43.7366 57.2106 43.9292 57.2591 43.9693C57.2841 43.9878 57.3075 44.0001 57.3326 44.0078C57.3744 44.0186 57.4629 44.0247 57.5999 44.0247V44.2667C57.3944 44.2513 57.214 44.2436 57.0603 44.2436C56.8999 44.2436 56.7044 44.2513 56.4721 44.2667C56.295 44.0771 55.9993 43.7119 55.5849 43.168C55.356 42.8644 55.1521 42.6132 54.9767 42.4098C54.6927 42.0769 54.422 41.7718 54.163 41.5006L54.2048 41.3866C54.3451 41.3943 54.4521 41.3989 54.5256 41.3989C55.0185 41.3989 55.3928 41.291 55.6467 41.0769C55.9007 40.8627 56.0277 40.5776 56.0277 40.2247C56.0277 39.918 55.9191 39.6746 55.7002 39.4943C55.4796 39.3124 55.1488 39.2215 54.7044 39.2215C54.4253 39.2215 54.1513 39.26 53.884 39.3371C53.8723 39.4727 53.8639 39.5991 53.8589 39.7162C53.8556 39.7516 53.8472 40.1153 53.8305 40.8056V42.4699C53.8305 42.8105 53.8355 43.1418 53.8472 43.4638C53.8522 43.7011 53.8706 43.8414 53.9007 43.8861C53.9324 43.9323 53.9842 43.9647 54.0544 43.9862C54.1246 44.0078 54.3184 44.0201 54.6392 44.0247V44.2667C54.2549 44.2451 53.9007 44.2359 53.5782 44.2359C53.3176 44.2359 52.8815 44.2451 52.2666 44.2667V44.0247C52.5857 44.0201 52.7812 44.0078 52.8514 43.9862C52.9216 43.9647 52.97 43.9369 52.9968 43.8984C53.0302 43.8475 53.0502 43.7273 53.0586 43.5347C53.0619 43.4823 53.0669 43.1279 53.0753 42.4699V40.7348C53.0753 40.3957 53.0703 40.0644 53.0619 39.7393C53.0552 39.502 53.0352 39.3617 53.0034 39.3186C52.9717 39.2739 52.9216 39.2415 52.8531 39.22C52.7846 39.1984 52.5891 39.1861 52.2666 39.1814Z" fill="#636463"/>
<path fill-rule="evenodd" clip-rule="evenodd" d="M59.2428 41.1146H61.0264L60.1433 38.8734L59.2428 41.1146ZM57.6001 43.2V42.9449C57.786 42.9449 57.9022 42.9357 57.9472 42.922C57.9937 42.9082 58.0358 42.8822 58.075 42.844C58.1143 42.8058 58.1695 42.705 58.2421 42.5446C58.2842 42.4529 58.4382 42.1061 58.7025 41.5012L59.5856 39.4051C59.6814 39.1759 59.8877 38.6626 60.2029 37.8667H60.4323L61.94 41.5943C62.1854 42.1978 62.3481 42.5767 62.428 42.731C62.473 42.8181 62.5209 42.8746 62.5747 42.9006C62.627 42.9296 62.7475 42.9449 62.9334 42.9449V43.2C62.566 43.174 62.3089 43.1618 62.1622 43.1618L61.0264 43.2V42.9449C61.2893 42.9418 61.449 42.9326 61.5057 42.9204C61.5623 42.9082 61.6016 42.8899 61.6204 42.867C61.6408 42.8425 61.6509 42.815 61.6509 42.7783C61.6509 42.7249 61.635 42.6531 61.6016 42.566L61.1673 41.4294H59.1222L58.7374 42.3842C58.6691 42.5568 58.6342 42.6821 58.6342 42.76C58.6342 42.7952 58.6444 42.8227 58.6633 42.8456C58.688 42.8792 58.7286 42.9006 58.7824 42.9128C58.8695 42.9326 59.0235 42.9449 59.2428 42.9449V43.2C58.8448 43.1771 58.5471 43.1649 58.3481 43.1649C58.1201 43.1649 57.8703 43.1771 57.6001 43.2Z" fill="#636463"/>
<path fill-rule="evenodd" clip-rule="evenodd" d="M66.1596 44.1402V43.9082C66.3964 43.9052 66.5501 43.8871 66.6248 43.8495C66.6553 43.8344 66.6788 43.8118 66.6913 43.7802C66.7148 43.7305 66.73 43.6025 66.7384 43.3946C66.7522 43.0723 66.7591 42.7952 66.7591 42.5602V39.575C66.7591 39.4951 66.755 39.4424 66.7453 39.4183C66.7273 39.3732 66.6871 39.3204 66.6248 39.2602C66.5833 39.221 66.5376 39.1954 66.485 39.1849C66.431 39.1743 66.3147 39.1683 66.1333 39.1653V38.9333C66.5085 38.9439 66.7425 38.9484 66.8394 38.9484C67.0042 38.9484 67.1662 38.9439 67.3282 38.9333C67.5192 39.206 67.6591 39.4063 67.7491 39.5358L68.4455 40.4696L69.4618 41.8026C69.7885 42.2273 70.0502 42.5617 70.2468 42.8057C70.3728 42.9669 70.4781 43.0934 70.5639 43.1868V40.5088C70.5639 40.2693 70.5556 39.9892 70.5404 39.6669C70.5307 39.465 70.5168 39.3385 70.4961 39.2903C70.4808 39.2572 70.4573 39.2361 70.4254 39.221C70.3507 39.1849 70.1984 39.1683 69.9644 39.1653V38.9333C70.2288 38.9439 70.4974 38.9484 70.7688 38.9484C71.025 38.9484 71.2576 38.9439 71.4666 38.9333V39.1653C71.2326 39.1683 71.079 39.1849 71.0042 39.221C70.9737 39.2361 70.9516 39.2587 70.9377 39.2933C70.9142 39.34 70.899 39.468 70.8907 39.6789C70.8768 39.9997 70.8699 40.2768 70.8699 40.5088V42.271C70.8699 42.628 70.8754 43.2922 70.8865 44.2667L70.5404 44.1567L70.4587 44.1402C70.4462 44.1341 70.4338 44.1266 70.4227 44.1176C70.4061 44.104 70.3631 44.0558 70.2939 43.97C70.1084 43.741 69.9713 43.5678 69.8841 43.4503L69.4493 42.8539L67.0623 39.7512V42.5602C67.0623 42.7997 67.0693 43.0813 67.0859 43.4067C67.0942 43.6085 67.1094 43.7335 67.1288 43.7802C67.1454 43.8148 67.169 43.8389 67.2008 43.8525C67.2742 43.8886 67.4279 43.9052 67.6619 43.9082V44.1402C67.4639 44.1221 67.2465 44.1131 67.0083 44.1131C66.748 44.1131 66.4642 44.1221 66.1596 44.1402Z" fill="#636463"/>
<path fill-rule="evenodd" clip-rule="evenodd" d="M78.9334 42.461L78.776 42.7964C78.4629 42.9373 78.1547 43.0397 77.8532 43.1035C77.5533 43.1674 77.2252 43.2 76.8707 43.2C76.4548 43.2 76.0671 43.154 75.7109 43.059C75.353 42.967 75.0415 42.832 74.7748 42.6584C74.5064 42.4818 74.2893 42.2874 74.1187 42.0707C73.9497 41.8555 73.8205 41.6181 73.7326 41.3658C73.6432 41.1121 73.6001 40.8331 73.6001 40.5304C73.6001 39.7617 73.8983 39.128 74.4964 38.6235C75.0929 38.1189 75.9097 37.8667 76.9436 37.8667C77.1888 37.8667 77.4141 37.88 77.6229 37.9053C77.83 37.9305 78.0851 37.978 78.3834 38.0492C78.6832 38.1204 78.8672 38.1605 78.9334 38.1738C78.8754 38.3059 78.8307 38.4365 78.8009 38.5641C78.7578 38.7689 78.728 39.0049 78.7114 39.2735H78.4579L78.4546 38.8476C78.4281 38.6131 78.2823 38.438 78.0172 38.3222C77.7521 38.2065 77.3644 38.1486 76.8541 38.1486C76.473 38.1531 76.15 38.1976 75.8832 38.2792C75.6181 38.3638 75.3828 38.4944 75.1807 38.6739C74.9786 38.852 74.8129 39.0805 74.6837 39.3551C74.5544 39.6311 74.4882 39.9769 74.4865 40.3924C74.4865 41.121 74.735 41.7086 75.2304 42.1523C75.7275 42.596 76.3852 42.8171 77.2004 42.8171C77.5699 42.8171 77.9112 42.7726 78.2243 42.6806C78.4397 42.6183 78.6534 42.5204 78.8655 42.3853L78.9334 42.461Z" fill="#636463"/>
<path fill-rule="evenodd" clip-rule="evenodd" d="M81.1456 44.2667V44.0294C81.4147 44.0263 81.591 44.0078 81.6744 43.9693C81.7106 43.9539 81.7358 43.9307 81.7515 43.8984C81.7767 43.8475 81.794 43.7166 81.805 43.5039C81.8208 43.1741 81.8286 42.8906 81.8286 42.6502V40.7348C81.8286 40.3957 81.8239 40.0644 81.816 39.7393C81.8082 39.502 81.7909 39.3617 81.761 39.3186C81.7311 39.2739 81.6838 39.2415 81.6193 39.22C81.5548 39.1984 81.3706 39.1861 81.0669 39.1814V38.9395L82.1576 38.9626L83.3128 38.9441C83.8667 38.9364 84.2681 38.9333 84.5183 38.9333C84.7701 38.9333 85.0094 38.9457 85.2344 38.975C85.1919 39.1167 85.1652 39.2415 85.1494 39.3448C85.1447 39.3679 85.1211 39.6283 85.0802 40.1245H84.8394C84.8425 39.8703 84.8252 39.6376 84.789 39.428C84.6489 39.371 84.4947 39.3309 84.3263 39.3124C84.0414 39.277 83.755 39.2585 83.4686 39.2585C83.4088 39.2585 83.2718 39.2631 83.0594 39.2739C82.8485 39.2847 82.6958 39.2924 82.6045 39.3001C82.5935 39.579 82.5872 39.8364 82.5809 40.0798L82.5668 41.3465C82.8642 41.3619 83.1396 41.3696 83.3899 41.3696C83.6936 41.3696 83.9517 41.3558 84.1658 41.328C84.2476 41.3172 84.2996 41.2988 84.3232 41.2679C84.3468 41.2387 84.3657 41.1354 84.3845 40.9597L84.4066 40.6978H84.6364V40.7687L84.6175 41.5484L84.6364 42.4221H84.3688L84.3578 42.1663C84.3515 41.9814 84.3357 41.8674 84.3058 41.8227C84.2759 41.7765 84.2209 41.7472 84.139 41.7287C83.9942 41.6979 83.7125 41.684 83.2939 41.684C83.1223 41.684 82.88 41.6902 82.5668 41.7025C82.5526 41.9537 82.5479 42.3235 82.5479 42.8151C82.5479 43.2774 82.5526 43.6272 82.5668 43.8691C82.9335 43.8953 83.3458 43.9092 83.8022 43.9092C84.1264 43.9092 84.3578 43.8984 84.4947 43.8799C84.6332 43.8599 84.7607 43.826 84.8771 43.7782C84.9086 43.7011 84.9401 43.5964 84.97 43.4638C85.0251 43.2404 85.0629 43.074 85.0802 42.9615H85.3336C85.2675 43.4654 85.2344 43.8845 85.2344 44.2158C85.0141 44.2497 84.7481 44.2667 84.4333 44.2667L82.1497 44.2359C82.1166 44.2359 81.7814 44.2451 81.1456 44.2667Z" fill="#636463"/>
<path fill-rule="evenodd" clip-rule="evenodd" d="M63.8779 33.476C63.2628 32.9113 62.4817 32.4889 61.613 32.1492C59.0258 31.1361 56.6795 29.8934 54.6885 28.3279C52.4143 26.5389 50.7912 24.4821 49.9115 22.1268C49.5296 21.1061 49.2839 20.0715 49.1273 19.0217C48.9677 17.9535 49.0006 16.8777 49.0835 15.8125C49.1712 14.6923 49.3371 13.5705 49.5703 12.4549C49.8051 11.3377 50.0367 10.219 50.2715 9.0988C50.5298 7.86226 50.788 6.62572 51.0494 5.38918C51.2764 4.31487 51.4861 3.23902 51.7397 2.16623C51.868 1.62142 51.951 1.07048 52.1247 0.533325H0V33.6H64C63.9593 33.5587 63.9217 33.5158 63.8779 33.476Z" fill="#1E4569"/>
<path fill-rule="evenodd" clip-rule="evenodd" d="M66.2554 33.476C66.8705 32.9113 67.6531 32.4889 68.5218 32.1492C71.1091 31.1361 73.4554 29.8934 75.4448 28.3279C77.7206 26.5389 79.3421 24.4821 80.2218 22.1268C80.6037 21.1061 80.8494 20.0715 81.006 19.0217C81.1656 17.9535 81.1343 16.8777 81.0513 15.8125C80.9637 14.6923 80.7978 13.5705 80.563 12.4549C80.3282 11.3377 80.0966 10.219 79.8618 9.0988C79.6035 7.86226 79.3453 6.62572 79.0854 5.38918C78.8585 4.31487 78.6472 3.23902 78.3952 2.16623C78.2668 1.62142 78.1839 1.07048 78.0086 0.533325H130.133V33.6H66.1333C66.1756 33.5587 66.2116 33.5158 66.2554 33.476Z" fill="#B62C30"/>
<path fill-rule="evenodd" clip-rule="evenodd" d="M12.7998 13.8526V13.3524C12.8959 13.3524 13.2279 13.3612 13.7972 13.3759C14.0766 13.3847 14.4716 13.3891 14.9823 13.3891C15.4194 13.3891 15.7935 13.3803 16.1059 13.3641C16.6211 13.3451 17.0477 13.3333 17.3842 13.3333C18.0361 13.3333 18.5257 13.3803 18.8502 13.4712C19.1746 13.5636 19.451 13.7528 19.6793 14.0403C19.9077 14.3292 20.0218 14.6798 20.0218 15.0934C20.0218 15.5847 19.8656 16.0321 19.5547 16.434C19.2422 16.8359 18.7631 17.1541 18.1142 17.3903C18.2178 17.5736 18.3365 17.7599 18.4687 17.9506C18.6024 18.1412 18.6805 18.2571 18.703 18.2982C18.7255 18.3378 18.7496 18.3774 18.7751 18.414L19.7409 19.8323C19.9993 20.2108 20.139 20.4132 20.16 20.441C20.4709 20.8473 20.6632 21.0879 20.7338 21.1612C20.8029 21.2331 20.872 21.2844 20.9396 21.3123C21.0057 21.3416 21.1364 21.3577 21.3331 21.3607V21.8667C20.6917 21.8505 20.2276 21.8432 19.9407 21.8432C19.6087 21.8432 19.2783 21.8505 18.9493 21.8667C18.9283 21.7772 18.8787 21.6613 18.7991 21.5205L17.4653 19.3703C17.0822 18.7528 16.7578 18.2674 16.4919 17.9139C16.3582 17.7349 16.2306 17.6015 16.1059 17.512L16.1735 17.3111C16.6737 17.3272 17.0492 17.2773 17.303 17.1615C17.5569 17.0471 17.7702 16.8388 17.9459 16.541C18.1202 16.2418 18.2073 15.9089 18.2073 15.5393C18.2073 15.1653 18.1157 14.8543 17.9324 14.6064C17.7492 14.3586 17.5224 14.187 17.2535 14.0887C17.0777 14.0286 16.7668 13.9978 16.3177 13.9978C16.1179 13.9978 15.9211 14.0154 15.7259 14.0476C15.7123 14.1928 15.7003 14.5214 15.6868 15.0333C15.6628 16.1832 15.6493 16.9503 15.6493 17.336C15.6493 17.9447 15.6568 18.59 15.6688 19.2721C15.6853 20.1081 15.6973 20.5848 15.7063 20.6977C15.7184 20.925 15.7409 21.0732 15.7739 21.1421C15.792 21.1744 15.819 21.2037 15.8565 21.2301C15.8926 21.2565 15.9527 21.2785 16.0368 21.2947C16.1194 21.3108 16.3612 21.3225 16.7608 21.3313V21.8667C16.0488 21.8432 15.3293 21.83 14.6023 21.83C13.9534 21.83 13.3526 21.8432 12.7998 21.8667V21.3313C13.273 21.3152 13.5539 21.2932 13.641 21.2639C13.692 21.2521 13.7281 21.2316 13.7506 21.2023C13.7732 21.1744 13.7912 21.1172 13.8032 21.0321C13.8332 20.8737 13.8543 20.6346 13.8663 20.3149L13.9159 18.5358V16.2756L13.8903 14.9907C13.8828 14.4832 13.8573 14.1782 13.8167 14.077C13.7957 14.033 13.7641 13.9978 13.7236 13.9743C13.6229 13.9259 13.315 13.8848 12.7998 13.8526Z" fill="#FFFFFE"/>
<path fill-rule="evenodd" clip-rule="evenodd" d="M24.5332 13.8277V13.3333L26.6351 13.3692L27.5085 13.3577L28.3804 13.3391L28.6186 13.3333V13.8277C28.1531 13.8277 27.8588 13.865 27.7342 13.9395C27.6689 13.9753 27.6253 14.0455 27.605 14.1487C27.5443 14.3937 27.5132 14.9354 27.5132 15.7737V17.1536L27.5194 17.8486C27.5194 18.5751 27.5287 19.0237 27.5459 19.1942C27.5848 19.5668 27.686 19.8677 27.8495 20.0955C28.0129 20.3234 28.2652 20.5082 28.603 20.6501C28.9409 20.7905 29.3706 20.8593 29.8921 20.8593C30.4916 20.8593 30.9695 20.7662 31.3245 20.577C31.681 20.3893 31.9333 20.1442 32.0843 19.8433C32.2353 19.5424 32.3116 18.9678 32.3116 18.1223V16.91C32.3116 15.8625 32.3085 15.2234 32.3038 14.9927C32.2914 14.494 32.2602 14.1917 32.2135 14.0885C32.1839 14.0255 32.1341 13.9782 32.0656 13.9467C31.9239 13.8779 31.6125 13.8392 31.1346 13.8277V13.3333C31.9146 13.3606 32.377 13.3749 32.5233 13.3749C32.5638 13.3749 32.6214 13.372 32.6993 13.3692L34.1332 13.3333V13.8277C33.7331 13.8277 33.4809 13.8564 33.3781 13.9166C33.3252 13.9481 33.2831 14.0083 33.252 14.0971C33.2193 14.1874 33.1881 14.5886 33.157 15.3037C33.1274 16.0173 33.1119 16.5805 33.1119 16.9931V18.3903C33.1119 18.7485 33.0854 19.1168 33.0278 19.498C32.9717 19.8777 32.8596 20.203 32.6884 20.4738C32.5187 20.7432 32.2789 20.9868 31.9675 21.2046C31.6577 21.4239 31.2887 21.5887 30.8621 21.699C30.4355 21.8108 29.942 21.8667 29.3815 21.8667C28.726 21.8667 28.1157 21.785 27.5459 21.6216C27.1317 21.5027 26.7939 21.3436 26.5307 21.143C26.2676 20.9424 26.0683 20.7189 25.9298 20.471C25.7928 20.2231 25.7071 19.9838 25.6775 19.753C25.6557 19.6112 25.6448 19.2257 25.6448 18.5995L25.6526 17.456V15.9456C25.6526 15.3897 25.6386 14.8895 25.6122 14.4453C25.5997 14.2719 25.5732 14.1444 25.5359 14.0656C25.5141 14.0212 25.4596 13.9696 25.3739 13.9094L24.5332 13.8277Z" fill="#FFFFFE"/>
<path fill-rule="evenodd" clip-rule="evenodd" d="M37.6824 21.8667V21.5381C37.9149 21.4237 38.1055 21.3064 38.2526 21.1847C38.2764 21.0145 38.296 20.7388 38.31 20.356C38.3423 19.6578 38.3577 19.1503 38.3577 18.8335V16.0937C38.3577 15.9881 38.3521 15.5921 38.3395 14.9057C38.3282 14.4466 38.3016 14.1664 38.2582 14.0652C38.24 14.0242 38.2106 13.9934 38.1713 13.9743C38.0676 13.9259 37.7874 13.8878 37.3335 13.8643V13.3465L38.6841 13.3759C38.9517 13.3803 39.2067 13.3832 39.4505 13.3832C39.9829 13.3832 40.5741 13.3759 41.2256 13.3641L42.4067 13.3333C42.5454 13.3333 42.8298 13.3421 43.2557 13.3583C43.295 13.3583 43.358 13.3715 43.4477 13.3949L43.4883 13.4741L43.379 14.3512C43.3748 14.4128 43.3552 14.7047 43.3202 15.2283H42.8662C42.8592 14.7502 42.841 14.4554 42.8144 14.3454C42.799 14.2882 42.7752 14.2471 42.7444 14.2236C42.6939 14.187 42.5384 14.1547 42.2792 14.1254C41.8953 14.0814 41.5184 14.0579 41.15 14.0579C40.8053 14.0579 40.4522 14.074 40.0908 14.1019C40.0361 14.561 40.0095 15.1433 40.0095 15.8502V17.0984C40.2729 17.1189 40.5489 17.1292 40.8361 17.1292C40.9258 17.1292 41.2466 17.1204 41.8014 17.1043C42.0116 17.0999 42.1349 17.0852 42.1713 17.0617C42.2078 17.0368 42.2358 16.9943 42.2554 16.9327C42.303 16.7787 42.3296 16.522 42.338 16.1597H42.8088L42.785 17.5003L42.8088 18.8335H42.3072C42.3114 18.3627 42.282 18.0723 42.2204 17.9638C42.1741 17.8816 42.0901 17.8318 41.9696 17.8112C41.702 17.7657 41.3601 17.7437 40.9398 17.7437C40.5643 17.7437 40.2547 17.7555 40.0095 17.7804V20.3633C40.0095 20.6508 40.0165 20.8986 40.0277 21.1055C40.3416 21.1304 40.7142 21.1421 41.1444 21.1421C41.5633 21.1421 41.95 21.1275 42.3058 21.0996C42.6603 21.0717 42.8775 21.0307 42.9587 20.9778C42.9867 20.9617 43.012 20.925 43.0358 20.8678C43.1044 20.6728 43.1787 20.3046 43.2557 19.7605H43.7335C43.648 20.5628 43.606 21.2257 43.606 21.7449L43.5303 21.8241C43.281 21.852 42.9279 21.8667 42.4711 21.8667L41.5338 21.8476C40.612 21.8359 39.9759 21.83 39.6256 21.83C39.5331 21.83 38.8859 21.8432 37.6824 21.8667Z" fill="#FFFFFE"/>
<path fill-rule="evenodd" clip-rule="evenodd" d="M92.9397 21.8667C92.5784 21.0174 92.2339 20.2106 91.9032 19.4461L90.9998 17.3866C90.2924 15.7729 89.8561 14.8111 89.6938 14.5012C89.5299 14.1914 89.4059 14.0145 89.3217 13.9706C89.1946 13.9063 88.9328 13.8698 88.5332 13.861V13.3333C89.5514 13.3611 90.1684 13.3757 90.3904 13.3757L92.6718 13.3333V13.861C92.3166 13.8654 92.0578 13.8859 91.8955 13.9209C91.8036 13.9429 91.7393 13.9721 91.7026 14.0101C91.6674 14.0481 91.649 14.0978 91.649 14.1592C91.649 14.2805 91.7883 14.6649 92.067 15.3125C92.2293 15.6837 92.315 15.8855 92.3242 15.9161C92.3349 15.9454 92.3502 15.9834 92.3671 16.0272L93.9763 19.7721L95.3864 16.435C95.4201 16.3576 95.5717 15.9761 95.8381 15.2876C96.0279 14.8023 96.1458 14.4764 96.1887 14.3112C96.1964 14.2615 96.201 14.2133 96.201 14.165C96.201 14.0963 96.1887 14.0437 96.1657 14.0101C96.1428 13.9765 96.1106 13.9502 96.0739 13.9341C96.0433 13.9209 95.9667 13.9107 95.8442 13.9034C95.5701 13.8786 95.3359 13.8654 95.1445 13.861V13.3333L96.7598 13.3699L98.1332 13.3333V13.861C97.7229 13.8976 97.484 13.9399 97.4151 13.9882C97.3003 14.073 97.0614 14.5334 96.697 15.3666L96.2454 16.3737L95.3864 18.3279C94.6576 19.9957 94.1646 21.1753 93.9058 21.8667H92.9397Z" fill="#FFFFFE"/>
<path fill-rule="evenodd" clip-rule="evenodd" d="M106.667 13.3333V13.8695C106.214 13.8813 105.945 13.8974 105.859 13.9165C105.775 13.9342 105.715 13.9562 105.678 13.9826C105.642 14.0091 105.618 14.0429 105.605 14.084C105.574 14.153 105.55 14.2852 105.537 14.4792C105.527 14.5864 105.523 14.7847 105.518 15.0785C105.5 16.0774 105.49 16.6165 105.49 16.6944V19.152L105.511 20.2684C105.511 20.6871 105.532 20.9603 105.578 21.0866C105.595 21.1425 105.626 21.1865 105.668 21.2174C105.712 21.2482 105.778 21.2717 105.869 21.2908C105.961 21.3085 106.226 21.3217 106.667 21.3305V21.8667C105.935 21.8432 105.157 21.83 104.329 21.83C103.607 21.83 102.965 21.8432 102.4 21.8667V21.3305C102.866 21.3143 103.134 21.2996 103.206 21.2879C103.3 21.2717 103.364 21.2482 103.398 21.2203C103.432 21.1924 103.452 21.1601 103.461 21.1219C103.476 21.0734 103.494 20.8825 103.515 20.549C103.552 20.0613 103.568 19.6103 103.568 19.1946V16.6444C103.568 15.8365 103.565 15.315 103.557 15.0829C103.533 14.5673 103.505 14.2441 103.476 14.1134C103.461 14.062 103.44 14.0208 103.411 13.9914C103.382 13.9635 103.329 13.94 103.249 13.9209C103.17 13.9033 102.889 13.8857 102.4 13.8695V13.3333C102.965 13.3583 103.612 13.3701 104.342 13.3701C105.162 13.3701 105.935 13.3583 106.667 13.3333Z" fill="#FFFFFE"/>
<path fill-rule="evenodd" clip-rule="evenodd" d="M108.8 21.2018C109.283 21.1788 109.557 21.1557 109.627 21.1369C109.671 21.1196 109.711 21.0937 109.74 21.0576C109.771 21.023 109.796 20.948 109.817 20.837C109.842 20.6855 109.87 20.3178 109.904 19.7351C109.919 19.4034 109.926 18.9722 109.926 18.4415V16.5191L109.904 14.777C109.9 14.4856 109.886 14.2953 109.866 14.2073C109.846 14.1193 109.815 14.0544 109.777 14.0126C109.737 13.9708 109.674 13.9376 109.584 13.9131C109.494 13.89 109.234 13.8641 108.8 13.8367V13.3333C109.318 13.3579 109.7 13.3694 109.945 13.3694L110.836 13.3506L111.398 13.3333C112.241 14.4078 113.26 15.6451 114.458 17.0455C115.32 18.055 116.035 18.8468 116.603 19.4179V18.0334C116.603 15.8874 116.578 14.6226 116.529 14.2434C116.513 14.0963 116.476 13.9996 116.419 13.9564C116.324 13.8843 116.005 13.8439 115.462 13.8367V13.3333C115.961 13.3579 116.419 13.3694 116.835 13.3694C117.239 13.3694 117.762 13.3579 118.4 13.3333V13.8367C117.901 13.8482 117.603 13.8843 117.51 13.9434C117.479 13.9636 117.455 13.9939 117.442 14.0328C117.381 14.2333 117.341 14.689 117.324 15.4029C117.304 16.1153 117.296 16.6417 117.296 16.9806C117.296 19.6356 117.322 21.2451 117.375 21.8133L117.296 21.8667C116.952 21.8104 116.603 21.7585 116.247 21.7109C114.928 20.2702 113.056 18.1055 110.632 15.2197V18.2021C110.632 18.8208 110.645 19.4655 110.669 20.1361C110.685 20.599 110.71 20.8802 110.743 20.9797C110.759 21.0273 110.785 21.0677 110.825 21.0966C110.864 21.1268 110.933 21.1485 111.03 21.16C111.296 21.1917 111.491 21.2076 111.614 21.2076C111.637 21.2076 111.678 21.2062 111.736 21.2018V21.6878C110.96 21.6792 110.518 21.6749 110.41 21.6749C110.015 21.6749 109.479 21.6878 108.8 21.7109V21.2018Z" fill="#FFFFFE"/>
<path fill-rule="evenodd" clip-rule="evenodd" d="M62.4121 16.0398C62.063 15.6477 61.6952 15.3634 61.3105 15.1822C60.9258 15.0026 60.5488 14.9135 60.1764 14.9135C59.7546 14.9135 59.3653 15.0213 59.0084 15.2416C58.653 15.4603 58.3811 15.7915 58.1926 16.2351C58.0041 16.6772 57.9098 17.2099 57.9098 17.8316C57.9098 18.7845 58.1447 19.5312 58.6144 20.0686C59.0841 20.606 59.648 20.8731 60.3093 20.8731C60.6539 20.8731 60.9629 20.8013 61.2363 20.6544C61.5098 20.5092 61.7509 20.2951 61.9563 20.014C62.1618 19.7328 62.2947 19.4188 62.3519 19.0751C62.392 18.8455 62.4121 18.28 62.4121 17.377V16.0398ZM61.1359 11.1191V10.6723C61.7091 10.6114 62.1927 10.5364 62.5867 10.4504C62.9823 10.363 63.367 10.2583 63.744 10.1333L63.8444 10.2036C63.8228 10.6473 63.7996 11.5018 63.7749 12.7687L63.744 14.0215V18.9189C63.744 19.45 63.7532 19.9093 63.7702 20.2983C63.7888 20.6872 63.8212 20.92 63.8676 20.995C63.9139 21.07 63.9912 21.1325 64.0993 21.1793C64.2075 21.2262 64.5304 21.273 65.0665 21.3199V21.7417C64.4377 21.7058 63.9943 21.687 63.7362 21.687C63.5138 21.687 63.0611 21.7058 62.3751 21.7417C62.389 21.3824 62.4029 20.8981 62.4121 20.2873C62.2066 20.4389 61.9285 20.6654 61.5809 20.9684C61.2333 21.2699 60.9613 21.5183 60.7651 21.7104C60.3526 21.8151 59.9895 21.8667 59.6743 21.8667C59.0903 21.8667 58.5541 21.7214 58.0644 21.4293C57.5746 21.1371 57.196 20.7122 56.9318 20.1577C56.6661 19.6031 56.5332 18.9782 56.5332 18.2846C56.5332 17.7629 56.6135 17.2677 56.7773 16.8022C56.938 16.3351 57.1435 15.9742 57.3907 15.718C57.5313 15.5727 57.848 15.3509 58.344 15.0541C58.8384 14.7557 59.2401 14.5417 59.5461 14.4074C59.8535 14.2746 60.1873 14.209 60.5488 14.209C60.8733 14.209 61.1915 14.2496 61.5036 14.3308C61.8157 14.4105 62.1201 14.5339 62.4121 14.7011V12.6437C62.4121 11.9189 62.3812 11.4783 62.3194 11.3221C62.2993 11.2659 62.2607 11.2237 62.2051 11.1972C62.1 11.1503 61.7447 11.1237 61.1359 11.1191Z" fill="#636463"/>
<path fill-rule="evenodd" clip-rule="evenodd" d="M74.6666 21.2693V21.7003C74.023 21.6655 73.5355 21.6474 73.2056 21.6474C72.8418 21.6474 72.4737 21.6655 72.0996 21.7003C72.1305 21.292 72.1511 20.8322 72.1658 20.3225C71.8713 20.5645 71.5193 20.8957 71.1128 21.3146C71.0185 21.4099 70.9272 21.481 70.8389 21.5264C70.6268 21.6474 70.4147 21.7351 70.2041 21.788C69.9935 21.841 69.7402 21.8667 69.4456 21.8667C69.0465 21.8667 68.7136 21.8107 68.4456 21.7003C68.1775 21.5899 67.9478 21.4205 67.7563 21.1936C67.6135 21.0273 67.503 20.811 67.4279 20.5448C67.3513 20.2802 67.313 19.9611 67.313 19.5875C67.313 19.4105 67.3189 19.2442 67.3322 19.0884C67.3439 18.9311 67.3498 18.7768 67.3498 18.6256V17.331C67.3498 17.1994 67.3439 16.8682 67.3277 16.3389C67.3174 16.0062 67.2953 15.7884 67.2615 15.687C67.2423 15.6371 67.2099 15.5963 67.1657 15.566C67.0921 15.5161 66.9625 15.4904 66.7754 15.4904C66.5044 15.4904 66.2909 15.4874 66.1333 15.4829V15.0518C67.1908 14.9308 67.9566 14.7357 68.4353 14.4681C68.5133 14.4227 68.5752 14.4 68.6194 14.4C68.6532 14.4 68.6812 14.4121 68.7033 14.4378C68.7254 14.462 68.7372 14.4998 68.7372 14.5512C68.7372 14.5921 68.7342 14.642 68.7284 14.7025C68.7092 14.8643 68.693 15.1743 68.6783 15.6341C68.6488 16.478 68.6341 17.0437 68.6341 17.331V18.8086C68.6341 19.4242 68.6739 19.8567 68.7549 20.1062C68.8359 20.3558 68.9935 20.5554 69.2276 20.7036C69.4603 20.8549 69.749 20.9275 70.0936 20.9275C70.3293 20.9275 70.5649 20.8866 70.7976 20.8035C71.0318 20.7203 71.2409 20.6008 71.428 20.4435C71.5664 20.327 71.7063 20.1698 71.8492 19.9747C71.9567 19.8264 72.0289 19.7145 72.0627 19.6374C72.0966 19.5588 72.1202 19.4438 72.1305 19.2926C72.1541 18.8479 72.1658 18.4063 72.1658 17.9662V17.331C72.1658 17.1994 72.1585 16.8682 72.1437 16.3389C72.1349 16.0062 72.1128 15.7884 72.0775 15.687C72.0583 15.6371 72.0259 15.5963 71.9817 15.566C71.9081 15.5161 71.7785 15.4904 71.5915 15.4904C71.3205 15.4904 71.1069 15.4874 70.9493 15.4829V15.0518C72.0068 14.9308 72.7726 14.7357 73.2498 14.4681C73.3293 14.4227 73.3897 14.4 73.4339 14.4C73.4693 14.4 73.4972 14.4121 73.5193 14.4378C73.5414 14.462 73.5532 14.4998 73.5532 14.5512C73.5532 14.5921 73.5503 14.642 73.5458 14.7025C73.5311 14.8643 73.5134 15.1849 73.4943 15.6644C73.4648 16.4871 73.4486 17.0437 73.4486 17.331V18.3685L73.4648 19.4211C73.4796 20.0321 73.4884 20.3906 73.4943 20.4964C73.4987 20.749 73.5252 20.9335 73.5753 21.05C73.5989 21.0953 73.6313 21.1347 73.671 21.1664C73.7093 21.1997 73.7682 21.2269 73.8478 21.2466C73.8772 21.2511 74.1497 21.2587 74.6666 21.2693Z" fill="#636463"/>
<path fill-rule="evenodd" clip-rule="evenodd" d="M79.2067 55.4788C78.3841 55.3256 77.5569 55.1812 76.7235 55.0621C75.4603 54.8806 74.1832 54.7229 73.1187 54.1618C71.8047 53.4698 70.6031 52.6886 69.5879 51.7719C68.8085 51.068 67.9581 50.3879 67.3281 49.62C66.7781 48.9489 66.2436 48.2599 66.0726 47.4667H64.0607C63.8912 48.2599 63.3552 48.9489 62.8052 49.62C62.1751 50.3879 61.3248 51.068 60.5453 51.7719C59.5317 52.6886 58.3286 53.4698 57.0145 54.1618C55.9516 54.7229 54.673 54.8806 53.4098 55.0621C52.5764 55.1812 51.7492 55.3256 50.9265 55.4788C50.4367 55.5711 50.07 56.016 50.1424 56.3717C50.2164 56.7348 50.5861 56.9804 51.1222 57.0086C51.723 57.0429 52.3222 57.0667 52.9261 57.0667C56.805 57.0622 73.3282 57.0622 77.2072 57.0667C77.811 57.0667 78.4118 57.0429 79.0111 57.0086C79.5487 56.9804 79.9169 56.7348 79.9908 56.3717C80.0632 56.016 79.6966 55.5711 79.2067 55.4788Z" fill="#636463"/>
</svg>
