<?xml version="1.0" encoding="UTF-8"?>
<svg width="131px" height="58px" viewBox="0 0 131 58" version="1.1" xmlns="http://www.w3.org/2000/svg" xmlns:xlink="http://www.w3.org/1999/xlink">
    <title>RUEDUVIN_LOGO-01</title>
    <g id="Page-1" stroke="none" stroke-width="1" fill="none" fill-rule="evenodd">
        <g id="Desktop-0" transform="translate(-655.000000, -577.000000)">
            <g id="Logos" transform="translate(370.000000, 555.000000)">
                <g id="RUEDUVIN_LOGO-01" transform="translate(285.000000, 22.533333)">
                    <polygon id="Fill-1" fill="#636463" points="30.9333333 41.7674667 40.5333333 41.7674667 40.5333333 41.4325333 30.9333333 41.4325333"></polygon>
                    <polygon id="Fill-2" fill="#636463" points="89.6 41.7674667 99.2 41.7674667 99.2 41.4325333 89.6 41.4325333"></polygon>
                    <path d="M45,38.2480979 L45,38.0061639 C45.4198672,38.0215737 45.7751394,38.0292786 46.0675166,38.0292786 C46.2732005,38.0292786 46.6454714,38.0246557 47.1792297,38.0138688 C47.7146879,38.0046229 48.0750598,38 48.2620452,38 C48.4626295,38 48.6462151,38.003082 48.814502,38.0046229 C48.981089,38.0092459 49.1323772,38.0154098 49.2666667,38.0261967 C49.198672,38.238852 49.1527756,38.6163922 49.134077,39.1603583 L48.8739973,39.1603583 C48.8501992,38.8583261 48.814502,38.627179 48.7703054,38.4638351 C48.6275166,38.4191467 48.4507304,38.3867861 48.2399469,38.3652124 C48.0291633,38.3436386 47.7843825,38.3328518 47.5056042,38.3328518 C47.226826,38.3328518 46.9395485,38.3482616 46.6420717,38.3790812 C46.625073,38.5146875 46.6148738,38.6395069 46.6080744,38.7566214 C46.6063745,38.8244245 46.599575,39.1095059 46.587676,39.6149475 L46.587676,40.445536 C46.8970518,40.4532409 47.1690305,40.4578638 47.407012,40.4578638 C47.7554847,40.4578638 48.0359628,40.442454 48.2467463,40.4085524 C48.3249402,40.3962246 48.3776361,40.3761919 48.3997344,40.3469132 C48.4235325,40.3176346 48.4490305,40.2128479 48.4762284,40.0310122 L48.5102258,39.7998652 L48.7703054,39.7998652 L48.7414077,40.6520274 L48.7703054,41.5704517 L48.5102258,41.5704517 L48.481328,41.3315997 C48.4507304,41.0588462 48.4286321,40.912453 48.4150332,40.8924203 C48.3929349,40.8569778 48.340239,40.8307811 48.2569456,40.8138303 C48.1005578,40.7814697 47.7452855,40.7645189 47.1911288,40.7645189 C46.9956441,40.7645189 46.7950598,40.7691419 46.587676,40.7799287 L46.587676,41.5365501 C46.587676,41.8771068 46.5927756,42.2084176 46.6046746,42.5304825 C46.6097742,42.7677935 46.6284728,42.9080227 46.6607703,42.9527112 C46.6913679,42.9989406 46.7440637,43.0313012 46.8154582,43.0528749 C46.8868526,43.0744486 47.0857371,43.0867765 47.4104117,43.0913994 L47.4104117,43.3333333 C47.060239,43.3117596 46.7117663,43.3025137 46.3649934,43.3025137 C46.0522178,43.3025137 45.5983533,43.3117596 45,43.3333333 L45,43.0913994 C45.3263745,43.0867765 45.525259,43.0744486 45.5966534,43.0528749 C45.6680478,43.0313012 45.717344,43.0035635 45.7445418,42.965039 C45.7768393,42.9141867 45.7989376,42.7939902 45.8057371,42.6013676 C45.8091368,42.5489743 45.8142364,42.1945488 45.8227357,41.5365501 L45.8227357,39.8014061 C45.8227357,39.4623904 45.819336,39.1310796 45.8108367,38.8059328 C45.8023373,38.5686218 45.7819389,38.4283926 45.7513413,38.3852451 C45.7190438,38.3405567 45.6680478,38.3081961 45.5983533,38.2866224 C45.5269588,38.2650486 45.3280744,38.2527208 45,38.2480979" id="Fill-3" fill="#636463"></path>
                    <path d="M52,38.2480979 L52,38.0061639 C52.1052632,38.0092459 52.267335,38.0123278 52.4828739,38.0184918 L53.2631579,38.0369835 C53.4185464,38.0369835 53.657477,38.0323606 53.9816207,38.0215737 C54.4043442,38.0061639 54.6499582,38 54.716792,38 C55.2347536,38 55.6123642,38.0431475 55.8496241,38.1279014 C56.0868839,38.2111143 56.2706767,38.3498026 56.3993317,38.5408841 C56.5296575,38.7319657 56.5948204,38.9399981 56.5948204,39.1649812 C56.5948204,39.3745546 56.5329992,39.5841279 56.4126984,39.7921603 C56.2907268,39.9971107 56.1136174,40.1712415 55.8813701,40.3083887 C55.6491228,40.445536 55.3483709,40.5518636 54.9774436,40.6273717 C55.0459482,40.7136666 55.2046784,40.9078301 55.4569758,41.2114033 L56.481203,42.4549745 C56.7736007,42.8032361 56.9440267,42.9958586 56.9924812,43.0359241 C57.0175439,43.0544159 57.0409357,43.0667437 57.0659983,43.0744486 C57.1077694,43.0852355 57.1963241,43.0913994 57.3333333,43.0913994 L57.3333333,43.3333333 C57.1278195,43.3179235 56.9473684,43.3102186 56.7936508,43.3102186 C56.6332498,43.3102186 56.4377611,43.3179235 56.2055138,43.3333333 C56.0284043,43.1437927 55.732665,42.7785804 55.3182957,42.2346143 C55.0893901,41.9310411 54.8855472,41.6798613 54.7101086,41.4764519 C54.4260652,41.1436001 54.1553885,40.838486 53.8964077,40.5672734 L53.9381788,40.4532409 C54.0785297,40.4609458 54.1854637,40.4655687 54.2589808,40.4655687 C54.7518797,40.4655687 55.1261487,40.3577001 55.380117,40.1435038 C55.6340852,39.9293075 55.7610693,39.6442261 55.7610693,39.2913416 C55.7610693,38.9846865 55.6524645,38.7412116 55.433584,38.5609169 C55.2130326,38.3790812 54.8822055,38.2881633 54.4377611,38.2881633 C54.1587302,38.2881633 53.8847118,38.3266879 53.6173768,38.4037369 C53.6056809,38.5393432 53.5973266,38.6657036 53.5923141,38.7828181 C53.5889724,38.8182606 53.5806182,39.181932 53.5639098,39.8722912 L53.5639098,41.5365501 C53.5639098,41.8771068 53.5689223,42.2084176 53.5806182,42.5304825 C53.5856307,42.7677935 53.60401,42.9080227 53.6340852,42.9527112 C53.6658312,42.9989406 53.7176274,43.0313012 53.7878028,43.0528749 C53.8579783,43.0744486 54.0517962,43.0867765 54.3725982,43.0913994 L54.3725982,43.3333333 C53.9883041,43.3117596 53.6340852,43.3025137 53.3116124,43.3025137 C53.0509607,43.3025137 52.6148705,43.3117596 52,43.3333333 L52,43.0913994 C52.3191312,43.0867765 52.5146199,43.0744486 52.5847953,43.0528749 C52.6549708,43.0313012 52.7034252,43.0035635 52.7301587,42.965039 C52.7635756,42.9141867 52.7836257,42.7939902 52.7919799,42.6013676 C52.7953216,42.5489743 52.8003342,42.1945488 52.8086884,41.5365501 L52.8086884,39.8014061 C52.8086884,39.4623904 52.8036759,39.1310796 52.7953216,38.8059328 C52.7886383,38.5686218 52.7685881,38.4283926 52.7368421,38.3852451 C52.7050961,38.3405567 52.6549708,38.3081961 52.5864662,38.2866224 C52.5179616,38.2650486 52.3224728,38.2527208 52,38.2480979" id="Fill-4" fill="#636463"></path>
                    <path d="M60.6427015,41.247971 L62.426289,41.247971 L61.5432099,39.0067793 L60.6427015,41.247971 Z M59,43.3333333 L59,43.0782011 C59.1859114,43.0782011 59.302106,43.0690347 59.3471314,43.055285 C59.3936093,43.0415354 59.4357298,43.0155638 59.4749455,42.9773704 C59.5141612,42.9391769 59.5693537,42.8383462 59.6419753,42.6779337 C59.6840959,42.5862695 59.8380537,42.2394729 60.1023965,41.6344887 L60.9854757,39.5384322 C61.0813362,39.3092715 61.2875817,38.7959515 61.6027596,38 L61.832244,38 L63.3398693,41.7276807 C63.5853304,42.3311372 63.7480029,42.7100162 63.8278867,42.8643178 C63.8729121,42.9513988 63.9208424,43.0079251 63.9745824,43.0338967 C64.02687,43.0629237 64.1474219,43.0782011 64.3333333,43.0782011 L64.3333333,43.3333333 C63.9658678,43.3073618 63.7087872,43.2951399 63.5620915,43.2951399 L62.426289,43.3333333 L62.426289,43.0782011 C62.6891794,43.0751456 62.848947,43.0659792 62.9055919,43.0537573 C62.9622367,43.0415354 63.0014524,43.0232025 63.0203341,43.0002865 C63.0406681,42.9758426 63.0508351,42.9483434 63.0508351,42.9116776 C63.0508351,42.8582068 63.0348584,42.7864031 63.0014524,42.6993221 L62.567175,41.562685 L60.5221496,41.562685 L60.1372549,42.5175212 C60.0689906,42.6901556 60.0341322,42.8154302 60.0341322,42.8933448 C60.0341322,42.9284828 60.0442992,42.955982 60.0631808,42.9788981 C60.0878722,43.0125084 60.1285403,43.0338967 60.1822803,43.0461186 C60.2694263,43.0659792 60.4233842,43.0782011 60.6427015,43.0782011 L60.6427015,43.3333333 C60.2447349,43.3104173 59.9469862,43.2981954 59.7480029,43.2981954 C59.519971,43.2981954 59.2701525,43.3104173 59,43.3333333 L59,43.3333333 Z" id="Fill-5" fill="#636463"></path>
                    <path d="M66.0263067,43.2068154 L66.0263067,42.9748659 C66.2630668,42.9718535 66.4167532,42.9537795 66.4915196,42.9161254 C66.5219799,42.9010637 66.5455175,42.8784712 66.5579785,42.8468418 C66.5815161,42.7971383 66.5967463,42.6691142 66.6050537,42.4612633 C66.6188993,42.1389438 66.6258221,41.8618093 66.6258221,41.6268474 L66.6258221,38.6416267 C66.6258221,38.5617999 66.6216684,38.5090841 66.6119765,38.4849854 C66.5939772,38.4398004 66.5538249,38.3870846 66.4915196,38.326838 C66.4499827,38.2876777 66.4042921,38.2620729 66.3516788,38.2515297 C66.2976809,38.2409865 66.1813776,38.2349619 66,38.2319495 L66,38 C66.3752163,38.0105432 66.6092073,38.0150617 66.7061267,38.0150617 C66.8708896,38.0150617 67.0328834,38.0105432 67.1948771,38 C67.3859467,38.272616 67.5257875,38.4729361 67.615784,38.6024663 L68.3122188,39.5362892 L69.3284874,40.869246 C69.655244,41.2939848 69.9169263,41.6283536 70.1135341,41.8723524 C70.2395292,42.0335122 70.344756,42.1600301 70.4305988,42.2534124 L70.4305988,39.5754495 C70.4305988,39.3359691 70.4222915,39.0558223 70.4070613,38.7335028 C70.3973693,38.5316766 70.3835237,38.4051586 70.3627553,38.3569613 C70.3475251,38.3238257 70.3239875,38.3027393 70.2921426,38.2876777 C70.2173763,38.2515297 70.0650744,38.2349619 69.8310834,38.2319495 L69.8310834,38 C70.0955348,38.0105432 70.3641398,38.0150617 70.635514,38.0150617 C70.891658,38.0150617 71.1242645,38.0105432 71.3333333,38 L71.3333333,38.2319495 C71.0993423,38.2349619 70.9456559,38.2515297 70.8708896,38.2876777 C70.8404292,38.3027393 70.8182762,38.3253318 70.8044306,38.3599736 C70.780893,38.4066648 70.7656629,38.5346889 70.7573555,38.7455521 C70.7435099,39.0663654 70.7365871,39.3435 70.7365871,39.5754495 L70.7365871,41.3376636 C70.7365871,41.6946249 70.7421253,42.358844 70.7532018,43.3333333 L70.4070613,43.2233832 L70.3253721,43.2068154 C70.312911,43.2007907 70.30045,43.1932599 70.2893735,43.1842229 C70.2727587,43.1706674 70.2298373,43.1224701 70.1606092,43.0366187 C69.9750779,42.8076814 69.8380062,42.6344724 69.7507788,42.5169914 L69.3160263,41.9205498 L66.9290412,38.8178481 L66.9290412,41.6268474 C66.9290412,41.8663278 66.935964,42.1479808 66.9525787,42.4733126 C66.9608861,42.6751388 66.9761163,42.8001506 66.9955002,42.8468418 C67.0121149,42.8814836 67.0356525,42.9055822 67.0674974,42.9191377 C67.1408792,42.9552857 67.2945656,42.9718535 67.5285566,42.9748659 L67.5285566,43.2068154 C67.3305642,43.1887414 67.113188,43.1797044 66.8750433,43.1797044 C66.6147456,43.1797044 66.3309103,43.1887414 66.0263067,43.2068154" id="Fill-6" fill="#636463"></path>
                    <path d="M78.3333333,42.5943239 L78.1759346,42.9296976 C77.8627938,43.0706733 77.5546236,43.1730662 77.2530807,43.2368763 C76.9531946,43.3006863 76.6251424,43.3333333 76.2705809,43.3333333 C75.8547168,43.3333333 75.4670187,43.2873307 75.1108005,43.1923576 C74.7529253,43.1003524 74.4414414,42.9653126 74.1746919,42.7916899 C73.9062856,42.6150992 73.689241,42.4207012 73.5185876,42.2040438 C73.349591,41.9888703 73.2203583,41.7514376 73.1325463,41.4991653 C73.0430776,41.245409 73,40.9664255 73,40.6636988 C73,39.8950102 73.2982293,39.2613615 73.8963446,38.7568169 C74.4928031,38.2522723 75.30962,38 76.3434814,38 C76.5886921,38 76.8140209,38.0133556 77.0227814,38.0385828 C77.2298851,38.0638101 77.4850368,38.1112966 77.783266,38.1825264 C78.0831521,38.2537563 78.2670602,38.293823 78.3333333,38.3071786 C78.2753443,38.4392506 78.2306099,38.5698386 78.200787,38.6974587 C78.1577094,38.9022445 78.1278865,39.1381933 78.1113182,39.4067891 L77.8578233,39.4067891 L77.8545097,38.9808941 C77.8280004,38.7464292 77.6821994,38.5713226 77.4171068,38.4555741 C77.1520141,38.3398256 76.764316,38.2819514 76.2540126,38.2819514 C75.8729419,38.2864033 75.5498602,38.3309219 75.2831107,38.4125394 C75.018018,38.4971248 74.7827483,38.6277129 74.5806151,38.8072714 C74.3784819,38.9853459 74.212799,39.213875 74.0835663,39.4884066 C73.9543336,39.7644222 73.8880605,40.1101836 73.8864036,40.525691 C73.8864036,41.2543127 74.134928,41.8419588 74.63032,42.2856613 C75.1273687,42.7293638 75.78513,42.950473 76.6002899,42.950473 C76.9697629,42.950473 77.3110697,42.9059544 77.6242104,42.8139492 C77.8395982,42.7516231 78.0533292,42.6536821 78.2654033,42.5186422 L78.3333333,42.5943239" id="Fill-7" fill="#636463"></path>
                    <path d="M81.0786917,43.3333333 L81.0786917,43.0960223 C81.3478175,43.0929404 81.5240871,43.0744486 81.6075003,43.0359241 C81.6436985,43.0205143 81.6688799,42.9973996 81.6846182,42.965039 C81.7097996,42.9141867 81.7271118,42.7832033 81.7381286,42.570548 C81.753867,42.2407782 81.7617361,41.9572378 81.7617361,41.7168448 L81.7617361,39.8014061 C81.7617361,39.4623904 81.7570146,39.1310796 81.7491455,38.8059328 C81.7412763,38.5686218 81.7239641,38.4283926 81.6940612,38.3852451 C81.6641584,38.3405567 81.6169433,38.3081961 81.5524161,38.2866224 C81.4878888,38.2650486 81.3037502,38.2527208 81,38.2480979 L81,38.0061639 L82.0906677,38.0292786 L83.2458625,38.0107869 C83.7998525,38.003082 84.2011804,38 84.4514201,38 C84.7032337,38 84.9424567,38.0123278 85.1675151,38.0416065 C85.1250215,38.1833767 85.0982663,38.3081961 85.082528,38.4114418 C85.0778065,38.4345565 85.0541989,38.6949822 85.0132792,39.1911779 L84.7724825,39.1911779 C84.7756301,38.9369161 84.758318,38.7042281 84.7221198,38.4946547 C84.5820484,38.4376384 84.4278126,38.397573 84.2594123,38.3790812 C83.9745481,38.3436386 83.6881102,38.3251469 83.4016722,38.3251469 C83.3418665,38.3251469 83.2049428,38.3297698 82.9924751,38.3405567 C82.7815812,38.3513435 82.6289192,38.3590484 82.5376368,38.3667533 C82.5266199,38.6456708 82.5203246,38.9030145 82.5140293,39.1464895 L82.4998647,40.4131754 C82.7973196,40.4285852 83.0727407,40.4362901 83.3229805,40.4362901 C83.6267306,40.4362901 83.8848395,40.4224213 84.0988811,40.3946836 C84.1807205,40.3838968 84.2326571,40.365405 84.2562646,40.3345854 C84.2798721,40.3053068 84.2987581,40.2020611 84.3176442,40.0263893 L84.3396779,39.7644226 L84.5694578,39.7644226 L84.5694578,39.8353077 L84.5505717,40.6150438 L84.5694578,41.4887797 L84.3019058,41.4887797 L84.290889,41.232977 C84.2845936,41.0480593 84.2688553,40.9340268 84.2389524,40.8893383 C84.2090496,40.8431089 84.1539653,40.8138303 84.0721259,40.7953385 C83.9273331,40.7645189 83.6456166,40.7506501 83.2269765,40.7506501 C83.0554285,40.7506501 82.8130579,40.756814 82.4998647,40.7691419 C82.4857002,41.0203217 82.4809787,41.390157 82.4809787,41.8817298 C82.4809787,42.3440239 82.4857002,42.6938264 82.4998647,42.9357604 C82.8665683,42.961957 83.2789131,42.9758259 83.7353252,42.9758259 C84.0595352,42.9758259 84.290889,42.965039 84.4278126,42.9465472 C84.5663101,42.9265145 84.6937907,42.8926129 84.8102545,42.8448425 C84.8417312,42.7677935 84.8732079,42.6630068 84.9031108,42.5304825 C84.958195,42.3070404 84.995967,42.1406145 85.0132792,42.0281229 L85.2666667,42.0281229 C85.2005656,42.5320235 85.1675151,42.9511702 85.1675151,43.282481 C84.9471782,43.3163825 84.6812,43.3333333 84.3664331,43.3333333 L82.0827985,43.3025137 C82.0497479,43.3025137 81.7145211,43.3117596 81.0786917,43.3333333" id="Fill-8" fill="#636463"></path>
                    <path d="M63.8779134,32.9427068 C63.2627846,32.378001 62.4817433,31.9556193 61.61305,31.6158776 C59.0257526,30.6027738 56.6794982,29.3601148 54.688547,27.7945481 C52.4142924,26.0055476 50.7911663,23.9487327 49.9115165,21.5934959 C49.5296045,20.5727403 49.2838661,19.5382114 49.1273448,18.4883788 C48.967693,17.4201817 49.0005625,16.3443329 49.0835188,15.2791966 C49.1711707,14.158967 49.3370833,13.0372071 49.5703001,11.9215686 C49.8050821,10.8043998 50.0367336,9.68570062 50.2715156,8.56547107 C50.5297757,7.32893352 50.7880359,6.09239598 51.0494265,4.85585844 C51.2763824,3.78153993 51.486121,2.70569106 51.7396855,1.63290292 C51.868033,1.08809182 51.9509893,0.537159254 52.1247279,0 L0,0 L0,33.0666667 L64,33.0666667 C63.9593045,33.0253467 63.9217393,32.9824964 63.8779134,32.9427068" id="Fill-9" fill="#1E4569"></path>
                    <path d="M66.25542,32.9427068 C66.8705487,32.378001 67.6531553,31.9556193 68.5218486,31.6158776 C71.1091459,30.6027738 73.4554004,29.3601148 75.4447863,27.7945481 C77.7206062,26.0055476 79.342167,23.9487327 80.2218168,21.5934959 C80.6037288,20.5727403 80.8494673,19.5382114 81.0059886,18.4883788 C81.1656403,17.4201817 81.134336,16.3443329 81.0513798,15.2791966 C80.9637278,14.158967 80.7978152,13.0372071 80.5630333,11.9215686 C80.3282513,10.8043998 80.0965997,9.68570062 79.8618178,8.56547107 C79.6035576,7.32893352 79.3452974,6.09239598 79.0854721,4.85585844 C78.8585161,3.78153993 78.6472124,2.70569106 78.3952131,1.63290292 C78.2668656,1.08809182 78.1839093,0.537159254 78.0086054,0 L130.133333,0 L130.133333,33.0666667 L66.1333333,33.0666667 C66.1755941,33.0253467 66.211594,32.9824964 66.25542,32.9427068" id="Fill-10" fill="#B62C30"></path>
                    <path d="M12.8,13.3192162 L12.8,12.8190673 C12.8961333,12.8190673 13.2280936,12.8278675 13.7973831,12.8425347 C14.0767705,12.8513349 14.4718183,12.8557351 14.9825266,12.8557351 C15.4196327,12.8557351 15.7936514,12.8469348 16.1060846,12.830801 C16.6212991,12.8117337 17.0478906,12.8 17.3843572,12.8 C18.0362612,12.8 18.5259403,12.8469348 18.8503902,12.937871 C19.1748401,13.0302739 19.4512234,13.2194798 19.67954,13.5069554 C19.9078566,13.7958978 20.0220149,14.1464421 20.0220149,14.560055 C20.0220149,15.0514037 19.8657983,15.498751 19.5548671,15.9006302 C19.2424338,16.3025095 18.7632694,16.6207861 18.1143695,16.8569268 C18.2180133,17.0402658 18.3366778,17.2265383 18.4688611,17.417211 C18.6025465,17.6078836 18.6806548,17.7237539 18.7031861,17.7648218 C18.7257173,17.8044231 18.7497506,17.8440243 18.775286,17.8806921 L19.7411254,19.2990031 C19.9994837,19.6774149 20.1391774,19.8798212 20.1602065,19.9076888 C20.4711377,20.3139681 20.6634043,20.554509 20.7340022,20.6278446 C20.803098,20.6997135 20.8721939,20.7510485 20.9397876,20.778916 C21.0058792,20.8082503 21.1365605,20.8243841 21.3333333,20.8273175 L21.3333333,21.3333333 C20.6919439,21.3171995 20.2278003,21.3098659 19.9409024,21.3098659 C19.6089421,21.3098659 19.2784838,21.3171995 18.9495277,21.3333333 C18.9284985,21.2438639 18.8789298,21.1279936 18.7993194,20.9871892 L17.4654697,18.8369887 C17.0824385,18.2195027 16.7579886,17.7340209 16.4921199,17.3805431 C16.3584345,17.2016042 16.2307575,17.0681334 16.1060846,16.9786639 L16.1736783,16.7777243 C16.673872,16.7938581 17.0493927,16.7439899 17.3032447,16.6281196 C17.5570968,16.5137161 17.7703925,16.3054429 17.9461362,16.0077002 C18.1203779,15.7084909 18.2074987,15.3755472 18.2074987,15.0059356 C18.2074987,14.6319239 18.1158716,14.3209809 17.9326175,14.0731065 C17.7493634,13.825232 17.5225488,13.6536267 17.253676,13.5553569 C17.0779323,13.4952217 16.7670011,13.4644208 16.3178783,13.4644208 C16.1181013,13.4644208 15.9213284,13.4820213 15.7260576,13.514289 C15.7125389,13.6594935 15.7005222,13.9880371 15.6870035,14.4999198 C15.6629701,15.6498224 15.6494514,16.416913 15.6494514,16.8026584 C15.6494514,17.4113441 15.6569618,18.0566976 15.6689785,18.7387189 C15.6855014,19.574745 15.697518,20.0514266 15.7065305,20.1643635 C15.7185472,20.3917039 15.7410784,20.5398419 15.7741243,20.6087774 C15.7921493,20.641045 15.8191868,20.6703793 15.8567388,20.6967801 C15.8927888,20.7231809 15.9528721,20.7451816 16.0369888,20.7613155 C16.1196034,20.7774493 16.3614387,20.789183 16.7609928,20.7979833 L16.7609928,21.3333333 C16.0490055,21.3098659 15.3295077,21.2966655 14.6024996,21.2966655 C13.9535997,21.2966655 13.3527665,21.3098659 12.8,21.3333333 L12.8,20.7979833 C13.2731561,20.7818494 13.5540456,20.7598487 13.6411665,20.7305145 C13.6922373,20.7187808 13.7282873,20.6982468 13.7508185,20.6689126 C13.7733498,20.641045 13.7913748,20.5838432 13.8033914,20.4987739 C13.8334331,20.340369 13.8544622,20.1012948 13.8664789,19.7815515 L13.9160476,18.0024292 L13.9160476,15.7422253 L13.8905122,14.4573851 C13.8830018,13.9499026 13.8574664,13.6448264 13.8169102,13.5436232 C13.795881,13.4996219 13.7643373,13.4644208 13.723781,13.4409534 C13.6231415,13.3925519 13.3152145,13.3514839 12.8,13.3192162" id="Fill-11" fill="#FFFFFE"></path>
                    <path d="M24.5333333,13.2943745 L24.5333333,12.8 L26.6351822,12.8358242 L27.5086171,12.8243605 L28.3804952,12.8057319 L28.6187047,12.8 L28.6187047,13.2943745 C28.1531841,13.2943745 27.8589253,13.3316317 27.7343713,13.4061461 C27.6689804,13.4419703 27.6253865,13.5121858 27.6051465,13.6153596 C27.5444264,13.8603974 27.5132879,14.4020599 27.5132879,15.240347 L27.5132879,16.6202967 L27.5195156,17.3152869 C27.5195156,18.0418024 27.5288572,18.4903219 27.5459833,18.6608452 C27.5849065,19.0334173 27.6861066,19.3343409 27.8495837,19.562183 C28.0130609,19.7900252 28.2652827,19.9748783 28.6031355,20.1167422 C28.9409882,20.2571732 29.3706995,20.3259558 29.8922694,20.3259558 C30.4916856,20.3259558 30.9696616,20.2328128 31.3246405,20.0436608 C31.6811763,19.8559418 31.9333982,19.610904 32.0844199,19.3099804 C32.2354417,19.0090568 32.311731,18.434436 32.311731,17.588984 L32.311731,16.3766919 C32.311731,15.3291912 32.3086171,14.6900868 32.3039464,14.4593787 C32.291491,13.9607053 32.2603525,13.6583487 32.2136447,13.5551749 C32.1840631,13.4921243 32.1342415,13.4448363 32.0657368,13.4133109 C31.9240567,13.3445284 31.6126716,13.3058382 31.1346956,13.2943745 L31.1346956,12.8 C31.9147151,12.8272264 32.3771219,12.8415561 32.5234728,12.8415561 C32.5639529,12.8415561 32.6215591,12.8386902 32.6994053,12.8358242 L34.1333333,12.8 L34.1333333,13.2943745 C33.7332036,13.2943745 33.4809817,13.3230339 33.3782247,13.3832186 C33.3252892,13.4147439 33.2832522,13.4749286 33.2521137,13.5637727 C33.2194183,13.6540498 33.1882798,14.0552813 33.1571413,14.7703331 C33.1275597,15.4839519 33.1119905,16.0471089 33.1119905,16.4598041 L33.1119905,17.8569493 C33.1119905,18.2151917 33.0855228,18.5834649 33.0279165,18.9646348 C32.9718672,19.3443717 32.8597686,19.6696558 32.6885069,19.940487 C32.518802,20.2098853 32.2790356,20.4534901 31.9676506,20.6713014 C31.6578225,20.8905458 31.2888312,21.0553373 30.8622338,21.1656759 C30.4356363,21.2774475 29.942091,21.3333333 29.381598,21.3333333 C28.7261326,21.3333333 28.1158179,21.2516541 27.5459833,21.0882955 C27.1318413,20.9693591 26.7939885,20.8102995 26.5308682,20.6096837 C26.2677479,20.409068 26.0684615,20.1855248 25.9298951,19.937621 C25.7928857,19.6897173 25.7072548,19.4504114 25.6776733,19.2197033 C25.6558763,19.0778394 25.6449778,18.6923706 25.6449778,18.0661629 L25.6527625,16.9226532 L25.6527625,15.4123034 C25.6527625,14.8563112 25.6387501,14.3562049 25.6122824,13.9119843 C25.599827,13.738595 25.5733593,13.6110607 25.5359931,13.5322474 C25.5141961,13.4878254 25.4597038,13.4362385 25.3740729,13.3760537 L24.5333333,13.2943745" id="Fill-12" fill="#FFFFFE"></path>
                    <path d="M37.682195,21.3333333 L37.682195,21.0047897 C37.9147694,20.8903862 38.1053123,20.7730492 38.2524227,20.651312 C38.2762405,20.4811734 38.2958552,20.2054314 38.3098657,19.8226195 C38.3420899,19.1244643 38.3575015,18.6169818 38.3575015,18.3001719 L38.3575015,15.5603529 C38.3575015,15.4547496 38.3518973,15.0587373 38.3392878,14.3723158 C38.3280794,13.9132348 38.3014594,13.6330927 38.2580269,13.5318895 C38.2398132,13.4908216 38.2103911,13.4600206 38.1711617,13.4409534 C38.0674839,13.3925519 37.7872738,13.3544173 37.3333333,13.3309499 L37.3333333,12.8132004 L38.6839463,12.8425347 C38.951547,12.8469348 39.2065382,12.8498682 39.4503211,12.8498682 C39.9827204,12.8498682 40.5739638,12.8425347 41.2254524,12.830801 L42.4065382,12.8 C42.5452423,12.8 42.8296556,12.8088003 43.255575,12.8249341 C43.2948044,12.8249341 43.3578517,12.8381345 43.447519,12.8616019 L43.4881494,12.9408044 L43.3788675,13.8178985 C43.3746643,13.8795004 43.3550496,14.1713762 43.3200234,14.6949926 L42.8660829,14.6949926 C42.8590776,14.2168443 42.840864,13.9220351 42.814244,13.8120316 C42.7988325,13.7548298 42.7750146,13.7137619 42.7441915,13.6902945 C42.6937536,13.6536267 42.538237,13.621359 42.2790426,13.5920248 C41.8951547,13.5480234 41.518272,13.524556 41.1497957,13.524556 C40.8051372,13.524556 40.4520724,13.5406898 40.0906013,13.5685574 C40.0359603,14.0276384 40.0093403,14.6099232 40.0093403,15.3168787 L40.0093403,16.565051 C40.2727379,16.585585 40.5487449,16.595852 40.8359603,16.595852 C40.9256276,16.595852 41.2464682,16.5870517 41.8012843,16.5709178 C42.0114419,16.5665177 42.1347344,16.5518506 42.1711617,16.5283832 C42.207589,16.5034491 42.23561,16.4609144 42.2552248,16.3993125 C42.3028605,16.2453077 42.3294804,15.988633 42.3378867,15.626355 L42.8086398,15.626355 L42.7848219,16.9669302 L42.8086398,18.3001719 L42.3070636,18.3001719 C42.3112668,17.8293572 42.2818447,17.5389481 42.2201985,17.4304114 C42.1739638,17.3482755 42.0899008,17.2984072 41.9694104,17.2778733 C41.7018097,17.2324052 41.3599533,17.2104045 40.9396381,17.2104045 C40.5641565,17.2104045 40.2545242,17.2221382 40.0093403,17.2470723 L40.0093403,19.829953 C40.0093403,20.1174287 40.0163456,20.3653031 40.027554,20.5721095 C40.3413894,20.5970437 40.7140689,20.6087774 41.1441915,20.6087774 C41.5631057,20.6087774 41.9497957,20.5941102 42.3056626,20.5662427 C42.6601284,20.5383752 42.8772913,20.4973072 42.9585522,20.4445056 C42.9865733,20.4283717 43.0117922,20.3917039 43.03561,20.3345021 C43.1042615,20.1394294 43.1785172,19.7712845 43.255575,19.2271342 L43.7333333,19.2271342 C43.6478692,20.0294259 43.6058377,20.69238 43.6058377,21.2115962 L43.530181,21.2907987 C43.2807939,21.3186662 42.9277291,21.3333333 42.4709866,21.3333333 L41.5336836,21.3142661 C40.6117922,21.3025324 39.9757151,21.2966655 39.6254524,21.2966655 C39.5329831,21.2966655 38.8856976,21.3098659 37.682195,21.3333333" id="Fill-13" fill="#FFFFFE"></path>
                    <path d="M92.9398405,21.3333333 C92.5785008,20.4840927 92.2340032,19.6772411 91.9032855,18.9127783 L90.9999362,16.8532602 C90.2925678,15.2395569 89.8562041,14.2777664 89.6939075,13.9678885 C89.5300797,13.6580107 89.4060606,13.4811465 89.3218501,13.4372959 C89.1947687,13.3729816 88.9329506,13.3364394 88.5333333,13.3276693 L88.5333333,12.8 C89.5515152,12.8277721 90.1685486,12.8423889 90.3905582,12.8423889 L92.6718979,12.8 L92.6718979,13.3276693 C92.3166826,13.3320544 92.0579266,13.352518 91.89563,13.3875985 C91.803764,13.4095238 91.7394577,13.4387576 91.7027113,13.4767614 C91.667496,13.5147653 91.6491228,13.5644627 91.6491228,13.6258536 C91.6491228,13.7471737 91.788453,14.1315976 92.0671132,14.7791253 C92.2294099,15.150394 92.3151515,15.3521069 92.3243381,15.3828023 C92.3350558,15.4120361 92.3503668,15.45004 92.3672089,15.4938906 L93.9763955,19.2387347 L95.3865391,15.9017015 C95.4202233,15.824232 95.5718022,15.4427315 95.8382137,14.7542766 C96.0280702,14.2689962 96.1459649,13.9430399 96.1888357,13.7778691 C96.1964912,13.7281717 96.2010845,13.6799361 96.2010845,13.6317004 C96.2010845,13.563001 96.1888357,13.5103803 96.1658692,13.4767614 C96.1429027,13.4431426 96.1107496,13.4168322 96.0740032,13.4007537 C96.0433812,13.3875985 95.9668262,13.3773667 95.8443381,13.3700582 C95.5702711,13.3452095 95.3360128,13.3320544 95.1446252,13.3276693 L95.1446252,12.8 L96.7599362,12.8365422 L98.1333333,12.8 L98.1333333,13.3276693 C97.7229984,13.3642115 97.4841467,13.4066004 97.4152472,13.4548361 C97.3004147,13.539614 97.061563,14.0000457 96.6971611,14.8332077 L96.2454864,15.8403106 L95.3865391,17.7945872 C94.6577352,19.462373 94.1647209,20.641955 93.9059649,21.3333333 L92.9398405,21.3333333" id="Fill-14" fill="#FFFFFE"></path>
                    <path d="M106.666667,12.8 L106.666667,13.3361795 C106.213627,13.3479314 105.945039,13.3640902 105.859285,13.383187 C105.775149,13.4008148 105.715283,13.4228496 105.678069,13.4492913 C105.642473,13.4757331 105.618203,13.5095197 105.605259,13.5506513 C105.574516,13.6196936 105.550246,13.7519022 105.537302,13.9458082 C105.527594,14.0530441 105.52274,14.2513571 105.517886,14.5451541 C105.500088,15.5440638 105.49038,16.0831813 105.49038,16.1610375 L105.49038,18.6186492 L105.511414,19.7350778 C105.511414,20.1537385 105.532448,20.4269696 105.577752,20.5533023 C105.59555,20.6091238 105.626293,20.6531933 105.668361,20.684042 C105.712047,20.7148907 105.778385,20.7383944 105.868993,20.7574912 C105.961219,20.7751191 106.226571,20.7883399 106.666667,20.7971538 L106.666667,21.3333333 C105.935331,21.3098296 105.157072,21.2966087 104.328656,21.2966087 C103.607028,21.2966087 102.964682,21.3098296 102.4,21.3333333 L102.4,20.7971538 C102.865984,20.780995 103.134572,20.7663052 103.205764,20.7545533 C103.299608,20.7383944 103.364328,20.7148907 103.398306,20.68698 C103.432284,20.6590693 103.4517,20.6267516 103.461408,20.588558 C103.47597,20.5400815 103.493768,20.3491134 103.514802,20.0156539 C103.552016,19.5279509 103.568196,19.0769725 103.568196,18.6612498 L103.568196,16.111092 C103.568196,15.3031503 103.56496,14.7816606 103.55687,14.549561 C103.5326,14.0339473 103.505094,13.7107706 103.47597,13.580031 C103.461408,13.5286165 103.440374,13.4874849 103.41125,13.4581052 C103.382126,13.4301945 103.328732,13.4066908 103.24945,13.387594 C103.170168,13.3699661 102.888636,13.3523383 102.4,13.3361795 L102.4,12.8 C102.964682,12.8249727 103.611882,12.8367246 104.3416,12.8367246 C105.161926,12.8367246 105.935331,12.8249727 106.666667,12.8" id="Fill-15" fill="#FFFFFE"></path>
                    <path d="M108.8,20.6684919 C109.282731,20.6454172 109.557312,20.6223424 109.626695,20.6035942 C109.670983,20.5862881 109.710841,20.560329 109.740366,20.5242747 C109.771367,20.4896626 109.796463,20.4146696 109.817131,20.3036223 C109.842227,20.1521942 109.870275,19.7844403 109.904229,19.2018027 C109.918991,18.8701031 109.926372,18.4388936 109.926372,17.9081742 L109.926372,15.9857585 L109.904229,14.2436144 C109.8998,13.9522956 109.886514,13.7619289 109.865847,13.6739564 C109.846655,13.5859839 109.815654,13.5210861 109.777272,13.4792631 C109.737414,13.4374401 109.673935,13.4042702 109.583884,13.3797533 C109.493834,13.3566785 109.234015,13.3307194 108.8,13.3033181 L108.8,12.8 C109.318161,12.8245169 109.700507,12.8360543 109.945564,12.8360543 L110.835737,12.8173061 L111.398185,12.8 C112.241119,13.8744183 113.259726,15.1118022 114.458435,16.5121514 C115.32056,17.521672 116.035061,18.3134246 116.603414,18.8845248 L116.603414,17.5000394 C116.603414,15.3540871 116.578318,14.089302 116.529602,13.7100107 C116.513363,13.5629091 116.476457,13.4662836 116.418884,13.4230184 C116.324404,13.3509098 116.005536,13.310529 115.462279,13.3033181 L115.462279,12.8 C115.961249,12.8245169 116.418884,12.8360543 116.835184,12.8360543 C117.239674,12.8360543 117.762264,12.8245169 118.4,12.8 L118.4,13.3033181 C117.90103,13.3148555 117.602829,13.3509098 117.509826,13.4100389 C117.478825,13.4302293 117.455205,13.4605149 117.441919,13.4994536 C117.381393,13.6999155 117.341535,14.1556419 117.32382,14.8695172 C117.304629,15.5819503 117.295771,16.1083432 117.295771,16.4472537 C117.295771,19.1022928 117.322344,20.7117571 117.375488,21.279973 L117.295771,21.3333333 C116.951807,21.2770886 116.603414,21.2251704 116.24764,21.1775787 C114.927879,19.7368486 113.056005,17.572148 110.632016,14.6863613 L110.632016,17.6687736 C110.632016,18.2874655 110.645302,18.9321165 110.668922,19.6027266 C110.685161,20.0656639 110.710257,20.3468875 110.742734,20.4463974 C110.758973,20.4939891 110.785545,20.5343699 110.825404,20.5632133 C110.863786,20.593499 110.933169,20.6151315 111.030601,20.6266689 C111.296325,20.6583967 111.491189,20.6742606 111.613717,20.6742606 C111.637337,20.6742606 111.678671,20.6728184 111.736245,20.6684919 L111.736245,21.154504 C110.959742,21.1458509 110.518345,21.1415244 110.41058,21.1415244 C110.014947,21.1415244 109.479071,21.154504 108.8,21.1775787 L108.8,20.6684919" id="Fill-16" fill="#FFFFFE"></path>
                    <path d="M62.4122639,15.5065016 C62.0630817,15.1144011 61.6953588,14.8300892 61.3106404,14.6488794 C60.9259219,14.4692318 60.5489287,14.3801891 60.1765707,14.3801891 C59.754771,14.3801891 59.3654173,14.4879776 59.0085099,14.7082412 C58.6531474,14.9269427 58.3812179,15.2581192 58.1927213,15.7017707 C58.0042248,16.1438601 57.9099765,16.6765544 57.9099765,17.2982914 C57.9099765,18.2512049 58.1448247,18.9979142 58.6145211,19.5352949 C59.0842175,20.0726756 59.6481622,20.3398038 60.3094453,20.3398038 C60.6539924,20.3398038 60.9630032,20.2679448 61.2364778,20.1211024 C61.5099523,19.9758221 61.7509807,19.7618071 61.9564729,19.4806195 C62.1619651,19.1994319 62.2948398,18.8854391 62.3520068,18.5417654 C62.3921782,18.3121289 62.4122639,17.7466294 62.4122639,16.8437048 L62.4122639,15.5065016 Z M61.1360492,10.5857187 L61.1360492,10.1389429 C61.7092643,10.0780189 62.1928662,10.0030355 62.586855,9.91711712 C62.9823888,9.82963653 63.3671072,9.72497226 63.7441004,9.6 L63.8445289,9.6702969 C63.8228982,10.1139484 63.7997224,10.9684463 63.7750015,12.2353526 L63.7441004,13.4881995 L63.7441004,18.3855501 C63.7441004,18.9166822 63.7533708,19.3759553 63.7703663,19.7649314 C63.788907,20.1539076 63.8213531,20.3866684 63.8677047,20.4616518 C63.9140564,20.5366352 63.9913091,20.5991213 64.0994629,20.6459859 C64.2076166,20.6928505 64.5305329,20.7397151 65.0666667,20.7865797 L65.0666667,21.2083611 C64.4378297,21.1724315 63.9943992,21.1536857 63.7363752,21.1536857 C63.5138874,21.1536857 63.0611866,21.1724315 62.3751826,21.2083611 C62.3890881,20.8490658 62.4029935,20.3647983 62.4122639,19.7539964 C62.2067717,19.9055252 61.928662,20.1320375 61.5810248,20.4350952 C61.2333877,20.7365908 60.9614581,20.9849732 60.7652363,21.177118 C60.3527069,21.2817823 59.9896192,21.3333333 59.6744281,21.3333333 C59.0903977,21.3333333 58.554264,21.1880531 58.0644819,20.8959304 C57.5746997,20.6038077 57.1961615,20.1789021 56.9319573,19.6243376 C56.666208,19.0697732 56.5333333,18.4449119 56.5333333,17.7513158 C56.5333333,17.2295567 56.6136761,16.7343541 56.7774519,16.2688324 C56.9381375,15.8017485 57.1436297,15.4408911 57.3908383,15.184698 C57.5314382,15.0394177 57.8481743,14.817592 58.3441366,14.5207829 C58.8385539,14.2224116 59.240268,14.0083966 59.5461887,13.8740514 C59.8536544,13.7412684 60.1873861,13.6756579 60.5489287,13.6756579 C60.8733901,13.6756579 61.1916712,13.7162739 61.5037721,13.7975059 C61.815873,13.8771757 62.1202487,14.0005858 62.4122639,14.1677362 L62.4122639,12.1103803 C62.4122639,11.3855412 62.3813628,10.945014 62.3195606,10.7887987 C62.2994749,10.7325611 62.2608486,10.690383 62.2052266,10.6638264 C62.100163,10.6169618 61.7448005,10.5904052 61.1360492,10.5857187 L61.1360492,10.5857187 Z" id="Fill-17" fill="#636463"></path>
                    <path d="M74.6666667,20.7359395 L74.6666667,21.1669705 C74.0230583,21.1321855 73.5355655,21.1140369 73.205661,21.1140369 C72.8418824,21.1140369 72.4736854,21.1321855 72.0995973,21.1669705 C72.1305258,20.7586253 72.1511449,20.298859 72.1658727,19.7891837 C71.8713152,20.031166 71.5193188,20.3623793 71.1128294,20.7813112 C71.0185709,20.8765917 70.9272581,20.947674 70.8388908,20.9930457 C70.6268093,21.1140369 70.4147279,21.2017555 70.2041192,21.2546891 C69.9935105,21.3076227 69.740191,21.3333333 69.4456334,21.3333333 C69.0465079,21.3333333 68.7136578,21.2773749 68.4456104,21.1669705 C68.177563,21.0565661 67.9478081,20.8871784 67.7563456,20.66032 C67.6134852,20.4939572 67.5030261,20.2776855 67.4279139,20.011505 C67.351329,19.7468368 67.3130365,19.4277226 67.3130365,19.0541624 C67.3130365,18.8772129 67.3189276,18.71085 67.3321827,18.5550739 C67.343965,18.3977854 67.3498562,18.2435217 67.3498562,18.0922828 L67.3498562,16.7976774 C67.3498562,16.6660995 67.343965,16.3348862 67.3277644,15.8055499 C67.3174548,15.4728243 67.295363,15.2550402 67.2614889,15.1537101 C67.2423427,15.1038012 67.2099413,15.0629667 67.1657577,15.0327189 C67.0921183,14.9828101 66.9625129,14.9570995 66.7754689,14.9570995 C66.5044759,14.9570995 66.2909216,14.9540747 66.1333333,14.9495375 L66.1333333,14.5185065 C67.1907951,14.3975154 67.9566448,14.2024171 68.4353009,13.9347242 C68.5133586,13.8893525 68.5752157,13.8666667 68.6193994,13.8666667 C68.6532735,13.8666667 68.6812565,13.8787658 68.7033483,13.9044764 C68.7254401,13.9286746 68.7372224,13.9664844 68.7372224,14.0179056 C68.7372224,14.0587401 68.7342768,14.108649 68.7283857,14.1691446 C68.7092394,14.3309702 68.6930388,14.6410101 68.6783109,15.1007764 C68.6488551,15.9446898 68.6341273,16.5103234 68.6341273,16.7976774 L68.6341273,18.2752819 C68.6341273,18.8908244 68.6738925,19.3233678 68.7548959,19.572912 C68.8358992,19.8224563 68.9934875,20.0220917 69.2276608,20.1703059 C69.4603613,20.3215448 69.7490277,20.3941395 70.0936601,20.3941395 C70.3293062,20.3941395 70.5649522,20.353305 70.7976527,20.2701236 C71.031826,20.1869421 71.2409619,20.0674634 71.428006,19.9101749 C71.566448,19.7937209 71.7063629,19.6364324 71.8492233,19.4413341 C71.9567369,19.29312 72.0289035,19.1812032 72.0627776,19.1040713 C72.0966517,19.025427 72.1202163,18.9104855 72.1305258,18.7592465 C72.1540904,18.314604 72.1658727,17.8729863 72.1658727,17.432881 L72.1658727,16.7976774 C72.1658727,16.6660995 72.1585088,16.3348862 72.1437809,15.8055499 C72.1349442,15.4728243 72.1128524,15.2550402 72.0775055,15.1537101 C72.0583592,15.1038012 72.0259579,15.0629667 71.9817742,15.0327189 C71.9081349,14.9828101 71.7785295,14.9570995 71.5914854,14.9570995 C71.3204925,14.9570995 71.1069382,14.9540747 70.9493499,14.9495375 L70.9493499,14.5185065 C72.0068116,14.3975154 72.7726614,14.2024171 73.2498447,13.9347242 C73.3293752,13.8893525 73.3897595,13.8666667 73.4339432,13.8666667 C73.4692901,13.8666667 73.497273,13.8787658 73.5193649,13.9044764 C73.5414567,13.9286746 73.553239,13.9664844 73.553239,14.0179056 C73.553239,14.0587401 73.5502934,14.108649 73.545875,14.1691446 C73.5311472,14.3309702 73.5134737,14.6515968 73.4943275,15.1310242 C73.4648717,15.9537641 73.448671,16.5103234 73.448671,16.7976774 L73.448671,17.8351766 L73.4648717,18.8877996 C73.4795996,19.4988049 73.4884363,19.8572412 73.4943275,19.9631085 C73.4987458,20.2156775 73.525256,20.400189 73.5753308,20.516643 C73.5988954,20.5620147 73.6312967,20.6013368 73.671062,20.633097 C73.7093545,20.6663696 73.768266,20.6935926 73.8477966,20.7132537 C73.8772523,20.7177908 74.1497181,20.7253528 74.6666667,20.7359395" id="Fill-18" fill="#636463"></path>
                    <path d="M79.206754,54.9454865 C78.3841364,54.7922079 77.5568974,54.6478582 76.7234965,54.5288069 C75.460301,54.3472537 74.1832411,54.1895107 73.1187678,53.6284814 C71.8047364,52.9364956 70.6031602,52.1552214 69.5879823,51.2385263 C68.8084983,50.5346355 67.958152,49.8545548 67.3280947,49.0866739 C66.7781425,48.4155221 66.2435952,47.7265127 66.0726016,46.9333333 L64.0607317,46.9333333 C63.8912786,47.7265127 63.3551908,48.4155221 62.8052386,49.0866739 C62.1751813,49.8545548 61.3248351,50.5346355 60.545351,51.2385263 C59.5317136,52.1552214 58.3285969,52.9364956 57.0145655,53.6284814 C55.9516327,54.1895107 54.6730324,54.3472537 53.4098369,54.5288069 C52.5764359,54.6478582 51.7491969,54.7922079 50.9265793,54.9454865 C50.4367059,55.0377513 50.0700712,55.4827055 50.1424738,55.8383713 C50.216417,56.2014778 50.5861327,56.4470211 51.1222206,56.4752958 C51.7230087,56.5095231 52.3222563,56.5333333 52.9261254,56.5333333 C56.8050599,56.5288689 73.3282734,56.5288689 77.2072079,56.5333333 C77.811077,56.5333333 78.4118651,56.5095231 79.0111127,56.4752958 C79.5487411,56.4470211 79.9169164,56.2014778 79.9908595,55.8383713 C80.0632622,55.4827055 79.6966274,55.0377513 79.206754,54.9454865" id="Fill-19" fill="#636463"></path>
                </g>
            </g>
        </g>
    </g>
</svg>