<svg width="128" height="95" viewBox="0 0 128 95" xmlns="http://www.w3.org/2000/svg">
<g opacity="0.2">
<path fill-rule="evenodd" clip-rule="evenodd" d="M13.9014 0.320587C14.0511 0.2351 14.3398 0.138924 14.543 0.0961761C15.2702 -0.0641174 16.1577 0.0641174 16.8421 0.416763C17.195 0.598427 17.5158 0.748032 17.5586 0.748032C17.6869 0.748032 18.4996 1.28234 18.8204 1.58155C18.9701 1.70979 19.3551 1.94488 19.6759 2.10517C21.1195 2.79977 21.1729 2.81046 24.798 2.67154C27.1398 2.57536 28.2947 2.57537 29.1609 2.66086C30.8184 2.83184 31.2247 2.72498 32.1444 1.91283C32.6042 1.50675 32.9571 1.28234 33.1282 1.28234C33.4597 1.28234 34.1975 1.6991 34.2723 1.92351C34.4114 2.34027 34.807 2.55399 35.6625 2.67154C38.1968 3.00281 38.9026 3.14173 39.4586 3.3982C39.9612 3.63329 40.2072 3.67604 41.1375 3.68673C41.7363 3.69742 42.2924 3.75085 42.3673 3.81496C42.4421 3.87908 42.7736 4.00731 43.0944 4.10349C43.4152 4.19966 43.7681 4.3279 43.8643 4.38132C44.1744 4.55231 46.0886 4.62711 46.6767 4.48819C46.9761 4.42407 47.7353 4.3279 48.3662 4.28515C49.2966 4.22103 49.5853 4.15691 49.8312 3.97525C50.1627 3.72947 50.6333 3.66535 50.7402 3.8577C50.783 3.91113 50.9327 4.018 51.0931 4.07143C51.3176 4.15691 51.4139 4.13554 51.6384 3.91113C52.6115 2.99213 54.5898 2.93869 55.0282 3.82565C55.21 4.18897 55.6271 4.59505 55.8195 4.59505C55.9051 4.59505 56.0869 4.53093 56.2045 4.44544C56.4718 4.25309 58.3539 4.22104 58.5678 4.4027C58.6747 4.48819 58.7816 4.48819 58.9527 4.41338C59.0719 4.35383 59.3941 4.23896 59.6792 4.13728L59.6793 4.13726L59.744 4.11417L60.3108 3.93251L60.8027 4.21035C61.1769 4.42407 61.455 4.48819 61.9148 4.48819C62.7489 4.48819 64.2566 5.0225 64.9945 5.57818C65.5078 5.96288 65.604 5.99494 65.9569 5.92014C66.1815 5.87739 66.5985 5.85602 66.8979 5.86671C67.1973 5.88808 67.5395 5.84533 67.6464 5.78121C68.0528 5.56749 69.4216 5.10799 69.8279 5.05456C70.1701 5.00113 70.3091 5.04388 70.5764 5.27897C70.7689 5.43926 71.047 5.55681 71.218 5.55681C71.4212 5.55681 71.603 5.65298 71.742 5.83465C71.9559 6.1018 71.9773 6.11249 72.8648 6.03768C73.7417 5.96288 73.7738 5.97356 74.0411 6.23003C74.3726 6.5613 74.394 6.93532 74.148 7.81158C73.9021 8.67716 74.1053 9.13667 74.4154 8.43138C74.533 8.17491 74.6079 8.1108 74.8431 8.14286C75.0677 8.16423 75.1425 8.26041 75.2708 8.65579C75.3992 9.09393 75.4633 9.15804 75.8483 9.28628C76.0942 9.36108 76.5327 9.53206 76.8321 9.67098C77.5485 9.99157 79.6017 10.1412 79.7514 9.87402C79.8048 9.77784 79.9546 9.72441 80.1043 9.74578C80.3074 9.76715 80.393 9.8847 80.5213 10.2587C80.6817 10.761 81.1308 11.6586 81.2591 11.7548C81.2912 11.7868 81.4195 11.9471 81.5265 12.1181L81.719 12.4173L81.8473 12.1715C81.9542 11.9364 82.0291 11.9258 83.2267 11.9044C84.3495 11.8723 84.5634 11.9044 85.0446 12.1181C85.3547 12.257 85.7718 12.5562 85.9749 12.7807C86.5203 13.4005 87.0015 13.5073 87.9532 13.2508C88.3703 13.1333 88.8301 13.0371 88.9798 13.0371C89.2471 13.0371 89.5786 13.315 89.7925 13.721C89.8994 13.9134 89.9101 13.9134 90.0919 13.6462C90.2844 13.347 90.6479 13.2615 90.8511 13.4646C90.926 13.5394 91.2147 13.5394 91.7494 13.4646C92.1771 13.4005 92.6262 13.3791 92.7439 13.4218C92.9363 13.4859 92.947 13.4539 92.8722 13.1333C92.8401 12.9303 92.7759 12.4921 92.7439 12.1609C92.7011 11.6159 92.7225 11.5411 92.9363 11.4342C93.2785 11.2418 93.995 11.3594 94.519 11.6907C95.2247 12.1395 95.7915 12.3105 96.5721 12.2998L97.2886 12.2891L97.8981 12.9516L98.5076 13.6035L98.8712 13.4218C99.0744 13.3256 99.331 13.2508 99.4379 13.2508C99.6518 13.2508 100.165 13.721 100.315 14.0523C100.368 14.1699 100.539 14.4263 100.678 14.6294C100.978 15.0354 101.021 15.5591 100.796 15.869C100.668 16.0399 100.7 16.0934 100.999 16.3712C101.192 16.5315 101.384 16.6704 101.416 16.6704C101.491 16.6704 102.304 16.3285 102.753 16.104C103.202 15.8796 104.196 15.9651 104.827 16.275C105.266 16.4994 105.469 16.6918 105.747 17.162L106.1 17.7604L106.549 17.3436C106.784 17.1086 107.148 16.8521 107.34 16.7773C107.971 16.5315 108.816 16.7452 109.875 17.4078C110.249 17.6429 110.602 17.7283 111.746 17.8673C111.939 17.8886 112.013 17.8459 112.045 17.6856C112.11 17.333 112.815 16.6918 113.339 16.5101C114.259 16.2002 114.847 16.1895 115.403 16.4888C115.831 16.7238 115.927 16.7452 116.098 16.617C116.558 16.2643 116.975 16.617 116.932 17.3116C116.9 17.8031 117.039 17.9528 117.51 17.9528C118.194 17.9528 118.333 18.3268 117.938 19.0748C117.659 19.5877 117.563 19.6625 117.125 19.6625C116.783 19.6625 116.772 19.6732 116.772 20.122C116.772 20.3785 116.804 20.6243 116.847 20.667C116.89 20.6991 116.932 20.8273 116.954 20.9449C116.975 21.0624 117.093 21.3403 117.232 21.5647C117.627 22.1952 117.756 22.6119 117.681 22.9646C117.595 23.3386 116.772 24.5141 116.473 24.6744C116.366 24.7278 116.045 25.1339 115.767 25.572C115.189 26.4589 114.975 26.6086 114.206 26.6086C113.906 26.6086 113.671 26.6513 113.671 26.7047C113.671 26.8971 112.783 27.784 112.602 27.784C112.495 27.784 112.377 27.8268 112.345 27.8695C112.313 27.9229 111.928 28.0726 111.479 28.2222C111.04 28.3611 110.548 28.5855 110.377 28.7351C110.217 28.874 109.629 29.2908 109.062 29.6541C107.982 30.3594 107.64 30.7227 107.276 31.5242C107.159 31.7913 106.966 32.0906 106.859 32.1974C106.581 32.4432 105.437 32.6142 103.833 32.6355C102.582 32.6676 102.411 32.689 101.213 33.0951C100.507 33.3408 99.8015 33.5652 99.6304 33.5973C99.47 33.64 99.2027 33.8003 99.0423 33.9713C98.668 34.356 98.3579 34.5163 97.9836 34.5163C97.4062 34.5163 96.401 35.1682 95.3317 36.2154C94.7756 36.7711 94.3158 37.3054 94.3158 37.4123C94.3158 37.5084 94.4869 37.7008 94.7008 37.8397C95.6311 38.4168 95.8343 38.8549 95.3103 39.1862C95.1392 39.2823 94.9039 39.4533 94.7863 39.5602C94.5617 39.7632 93.3748 40.0731 92.8187 40.0731C92.4444 40.0838 91.6211 41.302 91.3109 42.3172C91.1612 42.8301 90.9474 43.2362 90.68 43.5461C90.4555 43.8026 90.0598 44.369 89.7818 44.7964C89.3327 45.5231 88.8087 46.0574 88.552 46.0574C88.2847 46.0574 88.0174 46.5489 87.8891 47.2756C87.718 48.3335 87.6752 48.4083 86.9587 49.1136C86.5203 49.5517 86.2637 49.9044 86.1353 50.2784C85.8573 51.0799 85.7718 51.2508 85.0125 52.4691C84.2105 53.7728 84.1784 53.9651 84.6169 55.2475C84.7666 55.6856 84.9377 56.4123 85.0018 56.8504C85.1515 58.0259 85.2692 58.4426 85.5793 59.0624C85.9536 59.7891 86.2637 60.0135 87.1191 60.1631C88.0388 60.3234 88.135 60.3768 88.6269 61.0501C89.6749 62.4606 89.6321 63.027 88.4558 63.6254C88.1778 63.775 87.7607 64.0849 87.5255 64.3307C87.0122 64.865 86.5203 65.1749 85.8359 65.4207C85.5579 65.5169 85.0981 65.784 84.8201 66.0191C84.542 66.2435 84.1357 66.5321 83.9218 66.671C83.6972 66.7992 83.3551 67.1091 83.1412 67.3549C82.8097 67.7396 82.7669 67.8571 82.7669 68.3701C82.7669 68.883 82.7241 68.9792 82.4354 69.257C82.2536 69.428 82.0398 69.5669 81.9542 69.5669C81.8687 69.5669 81.6655 69.8555 81.4837 70.2188C81.3126 70.5821 81.0453 70.9989 80.8849 71.1485C80.6496 71.3943 80.6175 71.5011 80.671 71.8645C80.7566 72.4949 80.5534 72.9972 79.9118 73.8093C79.6017 74.2047 79.3557 74.5681 79.3771 74.6322C79.3985 74.6856 79.5482 74.7711 79.7086 74.8138C80.1256 74.9314 80.5213 75.3268 80.5213 75.626C80.5213 75.829 80.4144 75.9359 79.9652 76.1282C78.8638 76.6091 77.3774 76.9511 76.4578 76.9297C75.9124 76.919 75.6879 76.9618 74.6399 77.2396C73.87 77.4533 73.485 77.6777 73.3781 77.9876C73.2605 78.3189 72.8007 78.8639 72.6403 78.8639C72.5119 78.8639 71.603 79.5371 70.94 80.1249C70.5444 80.4882 70.416 80.6805 70.3519 81.0332C70.3091 81.279 70.2236 81.6744 70.1594 81.9094C70.0952 82.1445 69.999 82.6147 69.9348 82.946C69.8065 83.5765 69.5499 84.0253 68.8013 84.9123C68.5554 85.2008 68.1384 85.703 67.8817 86.0236C67.5074 86.4938 67.3363 86.622 67.0476 86.6434C66.7696 86.6755 66.652 86.622 66.4595 86.387C66.2563 86.1305 66.128 86.0877 65.5398 86.045C65.0266 86.0129 64.8127 85.9488 64.6844 85.7885C64.4919 85.5427 64.0535 85.5214 63.4653 85.7244C63.1338 85.8526 62.9734 85.9916 62.7703 86.3763C62.6206 86.6541 62.3746 87.0281 62.2035 87.2098C61.9576 87.4983 61.8613 87.5304 61.5726 87.4769C61.3908 87.4449 61.1556 87.338 61.0593 87.2525C60.9631 87.167 60.8241 87.0922 60.7599 87.0922C60.685 87.0922 60.6316 87.0495 60.6316 87.0067C60.6316 86.964 60.2894 86.761 59.8723 86.5579C59.1452 86.216 59.0917 86.2053 58.5143 86.3121C57.5947 86.4938 57.1669 86.6114 56.6536 86.8571C56.012 87.167 54.2262 87.2312 53.9161 86.9533C53.8092 86.8465 53.5419 86.7717 53.3173 86.7717C53.1034 86.7717 52.6864 86.6434 52.387 86.4938C51.8309 86.216 51.3604 86.216 51.0182 86.4938C50.8792 86.6007 49.8954 86.6541 47.19 86.6969C45.9602 86.7075 45.8854 86.7289 45.7784 86.9426C45.725 87.0709 45.3935 87.4128 45.0406 87.7013C44.6984 87.9792 44.3028 88.3746 44.1744 88.5669C44.0247 88.7913 43.736 89.0051 43.4366 89.1333C43.1586 89.2508 42.8485 89.3898 42.7522 89.4432C42.4635 89.6035 41.9395 89.5714 41.6508 89.3791C41.4048 89.2188 41.3728 89.2295 40.9557 89.6355C40.7098 89.86 40.1537 90.234 39.7046 90.4691C38.8919 90.8751 38.5711 91.2064 38.4214 91.7942C38.3893 91.9331 38.1968 92.275 37.9937 92.5529C37.8012 92.8307 37.6408 93.1085 37.6408 93.1727C37.6408 93.7711 36.796 94.3909 35.5021 94.7542L34.5932 95L33.8981 94.7756C33.0426 94.4871 32.8822 94.3802 32.4652 93.8031C32.2834 93.5467 32.0053 93.2154 31.8556 93.0658C31.5883 92.8093 31.5669 92.8093 31.4493 92.991C31.2033 93.3757 30.9039 93.2154 29.8239 92.0827C29.2464 91.4843 28.7759 90.9072 28.7652 90.8003C28.7652 90.6828 28.6583 90.4477 28.53 90.266C28.3161 89.9668 28.284 89.8065 28.3161 89.0478L28.3375 88.1609H27.9205C27.5462 88.1609 27.4393 88.0967 26.9581 87.5624C26.3699 86.9213 26.2951 86.6434 26.6266 86.2908C26.8297 86.0771 26.8404 85.9916 26.7335 85.3183L26.7005 85.0696L26.7005 85.0693L26.7004 85.0686C26.66 84.7651 26.6266 84.5141 26.6266 84.4634C26.6266 84.3993 26.4448 84.2604 26.2309 84.1642C26.0063 84.0574 25.4182 83.5979 24.9156 83.1277C24.4237 82.6575 23.8891 82.2514 23.7393 82.2087C23.5896 82.1766 23.4292 82.1125 23.3651 82.0697C23.3116 82.027 23.0657 81.9522 22.8304 81.9094C22.6058 81.8774 22.2423 81.7598 22.0284 81.653C21.729 81.5034 21.2799 81.4713 19.7293 81.4393C18.6707 81.4179 17.7297 81.3645 17.6334 81.311C17.5051 81.2469 17.4302 81.0011 17.3768 80.5523C17.334 80.1783 17.2591 79.7936 17.2057 79.6974C17.1522 79.5906 17.0881 79.131 17.0774 78.6715C17.0453 77.9449 17.0025 77.7632 16.7031 77.2823C16.3181 76.6519 16.2754 76.2992 16.5534 76.0427C16.671 75.9466 16.81 75.6901 16.8742 75.4657C16.949 75.2413 17.1201 74.91 17.2698 74.739C17.4195 74.5681 17.6441 74.2368 17.7617 74.0017C17.8794 73.7666 18.0932 73.4567 18.2216 73.3071C18.4568 73.0399 18.4996 72.9438 18.8739 72.0568C19.0236 71.7042 19.1519 71.5759 19.4299 71.4798C19.6652 71.4049 19.879 71.2233 20.018 70.9989C20.264 70.5821 20.6062 70.518 20.9056 70.8493C21.0874 71.0416 21.1195 71.0523 21.2906 70.892C21.3868 70.8065 21.4937 70.6249 21.5258 70.4966C21.5579 70.3684 21.6327 70.0799 21.6969 69.8448L21.7931 69.428L21.205 69.4921C20.8521 69.5349 20.5099 69.5028 20.3816 69.4387C19.9646 69.225 19.601 68.712 19.4085 68.0922C19.1519 67.2267 19.0343 67.0236 18.5958 66.671C18.0718 66.2542 18.0291 65.9657 18.4033 65.1856C18.5637 64.833 18.7348 64.3841 18.7776 64.1811C18.8097 63.9781 18.9915 63.6254 19.184 63.401C19.847 62.6209 20.5313 61.4775 20.5313 61.1676C20.5313 60.7295 20.8949 60.1845 21.3333 59.9814C21.6648 59.8211 21.7076 59.757 21.7076 59.3937C21.7076 58.9128 21.2585 58.3892 20.9698 58.5174C20.3068 58.806 19.8897 58.635 19.8897 58.09C19.8897 57.8549 19.8042 57.6625 19.6224 57.4916C19.4727 57.3526 19.3551 57.1389 19.3551 57.0214C19.3551 56.8931 19.2374 56.6687 19.0984 56.5191C18.7028 56.0917 18.6279 55.8886 18.553 54.9696L18.4782 54.1147L17.9435 53.8155C17.6548 53.6445 17.3661 53.3881 17.2912 53.2385C17.2271 53.0782 17.0132 52.7362 16.8207 52.4798C16.4464 51.9775 16.3609 51.5394 16.6389 51.4325C16.7993 51.3684 17.473 51.5287 17.9221 51.7424C18.1146 51.8279 18.2964 51.7851 18.8311 51.4966C19.2802 51.2722 19.7935 51.1012 20.3068 51.0264C21.0553 50.9196 21.1088 50.8982 21.1836 50.6097C21.2371 50.4387 21.4403 49.9792 21.6541 49.5838C21.868 49.1564 22.0284 48.7075 22.0284 48.4938C22.0284 48.2373 22.114 48.045 22.2957 47.874C22.4454 47.7351 22.5631 47.5321 22.5631 47.4359C22.5631 47.0512 22.1995 46.4634 21.8573 46.3245C21.5044 46.1856 21.1729 45.6192 21.1729 45.1811C21.1729 44.8391 21.6114 44.2193 21.9856 44.027C22.1567 43.9415 22.5524 43.7064 22.8625 43.5141L23.4292 43.1614L23.2047 42.8836C23.087 42.734 22.9373 42.4134 22.8732 42.1783C22.7769 41.8043 22.7876 41.7188 22.9908 41.4409C23.194 41.1631 23.2047 41.1097 23.0657 40.9494C22.7662 40.6181 22.7449 40.1265 22.9908 39.5709C23.1833 39.1434 23.2047 38.9404 23.1512 38.3526C23.0977 37.797 23.1191 37.6153 23.2368 37.4871C23.3437 37.3802 23.3651 37.2733 23.3009 37.1772C23.2475 37.0917 23.1619 36.8566 23.0977 36.6535C23.0443 36.4398 22.7556 36.0017 22.4561 35.6704C22.1674 35.3391 21.9215 35.0186 21.9215 34.9651C21.9215 34.7514 22.2637 34.5163 22.5738 34.5163C22.8304 34.5163 22.9373 34.4308 23.2154 33.982C23.3972 33.6828 23.6217 33.3836 23.7287 33.3088C23.8249 33.2447 23.996 32.9668 24.1136 32.6997C24.413 32.0371 24.5948 31.8448 24.9477 31.8448C25.1402 31.8448 25.4289 31.7059 25.6962 31.4814C25.9422 31.2891 26.3058 31.0861 26.4982 31.0433C26.7228 31.0006 26.8832 30.883 26.9367 30.7441C26.9901 30.6159 27.2361 30.3594 27.4927 30.167C27.8242 29.9319 28.0274 29.6755 28.1664 29.3121C28.284 29.0343 28.5086 28.6069 28.6797 28.3825C28.8401 28.158 28.9791 27.923 28.9791 27.8802C28.9791 27.7733 28.1985 27.3993 27.45 27.1429C27.0436 26.9933 26.8404 26.9826 26.4769 27.0681C25.8566 27.207 25.6962 27.1322 25.5572 26.6192C25.4717 26.2773 25.4824 26.1063 25.6214 25.7323C25.8887 25.0056 25.9101 24.7385 25.7283 24.5889C25.6214 24.4927 25.5572 24.279 25.5572 23.9798C25.5572 23.4561 25.4503 23.3386 25.1402 23.5202C24.9798 23.6271 24.8194 23.6164 24.3168 23.4241C23.9746 23.2958 23.6966 23.2103 23.6859 23.221C23.6859 23.2278 23.6559 23.2902 23.6122 23.3812L23.6118 23.382C23.5865 23.4346 23.5567 23.4967 23.5255 23.563C23.3116 23.9798 23.0336 24.0118 22.3385 23.6805C22.0284 23.5202 21.6007 23.4027 21.3975 23.4027C21.1836 23.392 20.8949 23.3279 20.7452 23.2424C20.3816 23.0394 20.3175 23.0501 20.3175 23.2958C20.3175 23.4134 20.2426 23.6912 20.1464 23.9263C19.9111 24.5354 19.2374 24.856 18.4675 24.7385C18.1574 24.6957 17.6334 24.6637 17.2912 24.6744C16.4999 24.7064 15.1846 24.3003 15.1846 24.0439C15.1846 23.8515 14.8317 23.937 14.2543 24.2576C13.6662 24.5889 13.324 24.6637 13.1957 24.4606C13.1529 24.3858 13.0032 24.4606 12.7893 24.6637C12.3723 25.0591 12.0087 25.2514 11.8483 25.1552C11.7841 25.1125 11.3457 25.0697 10.8859 25.0697C10.0625 25.0591 10.0197 25.0484 9.7203 24.7064C9.54921 24.5141 9.41019 24.2683 9.41019 24.1614C9.41019 23.8515 9.8914 23.3386 10.4795 23.0073C10.8752 22.7829 11.0249 22.6333 11.0784 22.3982C11.1532 22.0562 10.9287 21.7998 10.5651 21.7998C10.4475 21.7998 10.3191 21.6822 10.2657 21.5326L10.1587 21.2655L9.76307 21.5219C9.53851 21.6715 8.67235 22.0135 7.82757 22.2913C6.77002 22.6461 6.44386 22.7555 6.21593 22.9695C6.11428 23.0649 6.03218 23.1812 5.91345 23.3493C5.35739 24.1187 4.90827 24.5782 4.6944 24.5782C3.99933 24.5782 3.74269 23.9904 3.74269 22.4409C3.74269 21.7784 3.79616 21.1479 3.86032 21.0197C3.92448 20.8914 4.24528 20.5174 4.55539 20.1969L5.13283 19.5984L4.73718 19.4595C3.64645 19.0748 3.67853 18.4016 4.81203 18.0276C5.30393 17.8673 5.5071 17.6322 5.16491 17.6322C4.91896 17.6322 4.38429 17.1513 4.13835 16.6918C3.95656 16.3712 3.95656 16.3071 4.09557 15.9972C4.19181 15.8048 4.36291 15.4308 4.48053 15.1423L4.6944 14.64H4.45915C4.32013 14.64 3.77477 14.8645 3.22941 15.1316C1.80718 15.8369 1.4543 15.6339 2.03175 14.4691C2.35255 13.8172 2.40602 13.4859 2.267 13.1226C2.19215 12.9516 2.16007 12.9516 1.87135 13.1012C1.15489 13.4753 0.759231 13.0905 1.11211 12.3532C1.25113 12.0647 1.25113 11.9364 1.15489 11.6693C1.03726 11.3701 0.973099 11.3273 0.620217 11.3273C0.128321 11.3273 0 11.1243 0 10.3656C0 9.9595 0.0855472 9.66029 0.299415 9.25422C0.47051 8.95501 0.695071 8.45275 0.791312 8.15354C0.887552 7.85433 1.02657 7.55511 1.10142 7.50169C1.17627 7.43757 1.51846 7.36277 1.87135 7.32002C2.79098 7.20248 2.88722 7.13836 2.88722 6.57199C2.88722 5.95219 3.18663 5.73847 4.36291 5.56749C5.26115 5.43925 5.80652 5.50338 6.18079 5.80259C6.27703 5.8774 6.35188 5.87739 6.43743 5.7919C6.51228 5.71709 6.6406 5.66367 6.72615 5.66367C6.92932 5.66367 8.12698 4.88358 8.44779 4.54162C8.76859 4.21035 8.98246 4.21035 9.51713 4.54162C10.0304 4.86221 10.0518 4.8622 9.97694 4.59505C9.94486 4.4775 9.76307 4.24241 9.5599 4.08212C9.36742 3.92182 9.16424 3.66535 9.11078 3.51575C8.92899 3.04556 9.15355 2.79977 10.0946 2.42576L10.95 2.0838L11.1532 1.464C11.4206 0.651855 11.6344 0.523628 12.7572 0.480881C13.2491 0.470192 13.7624 0.395393 13.9014 0.320587ZM123.573 46.4207C123.926 46.378 124.396 46.2604 124.632 46.1535C125.209 45.8864 125.262 45.8971 125.744 46.3245C126.011 46.5703 126.257 46.6985 126.471 46.6985C126.695 46.6985 126.824 46.784 126.963 47.0084C127.059 47.1794 127.145 47.3931 127.145 47.4786C127.145 47.5748 127.23 47.7137 127.337 47.7885C127.626 47.9916 128 48.6648 128 48.9533C128 49.2632 127.551 49.9578 127.241 50.1181C126.973 50.2677 126.717 50.1822 126.011 49.7334C125.701 49.5304 125.38 49.3701 125.305 49.3701C125.23 49.3701 124.974 49.1991 124.739 48.9961C124.268 48.5793 123.797 48.4083 123.124 48.4083C122.803 48.4083 122.632 48.3442 122.45 48.1519C122.204 47.8954 122.204 47.8847 122.375 47.297C122.578 46.613 122.707 46.5169 123.573 46.4207ZM114.045 48.0236C113.093 48.4618 111.489 49.7334 111.094 50.3532C110.912 50.6204 110.623 50.8448 110.121 51.0799C109.329 51.4539 108.998 51.7317 108.859 52.0951C108.698 52.5118 108.912 53.1316 109.415 53.73C109.586 53.9224 109.714 54.1254 109.714 54.1789C109.714 54.243 109.875 54.2857 110.067 54.2857C110.324 54.2857 110.538 54.1575 110.933 53.7942C111.457 53.3133 111.928 53.0461 112.056 53.1744C112.142 53.2598 112.12 54.4033 112.024 54.6704C111.885 55.0444 112.42 55.333 113.361 55.4184C114.173 55.4826 114.74 55.6322 114.74 55.7818C114.74 55.8352 114.869 56.0169 115.018 56.1985C115.414 56.6687 115.767 56.6367 116.355 56.0917C116.612 55.8459 117.157 55.3543 117.563 54.991C118.483 54.1789 118.804 53.5591 118.804 52.608C118.804 52.0202 118.836 51.9241 119.082 51.7317C119.242 51.6035 119.424 51.5073 119.499 51.5073C119.702 51.5073 119.862 50.9623 119.745 50.6524C119.691 50.5135 119.531 50.2357 119.381 50.0433C119.06 49.6159 118.665 49.5838 117.98 49.9151C117.585 50.1074 117.478 50.1181 117.125 50.0112C116.473 49.7975 116.419 49.7227 116.483 49.0388C116.569 48.2908 116.451 48.1198 115.756 47.9809C114.687 47.7672 114.59 47.7672 114.045 48.0236ZM101.459 57.748C101.619 57.5664 101.823 57.3954 101.908 57.3526C102.282 57.203 102.977 57.5771 102.977 57.919C102.977 58.1541 102.411 59.0945 102.036 59.4899C101.673 59.8639 101.373 60.3875 101.373 60.6333C101.373 60.7936 101.149 61.0287 100.208 61.8515C99.8443 62.1828 99.2882 62.3538 98.9888 62.2362C98.807 62.1721 98.5931 61.6592 98.5931 61.2638C98.5931 61.1249 98.4755 60.8256 98.3258 60.6119C97.8874 59.9708 97.9836 59.5754 98.6038 59.4151C99.1064 59.2762 99.1599 59.2227 99.5876 58.4106C100.08 57.4916 100.251 57.4381 100.978 57.9404C101.138 58.0579 101.202 58.0366 101.459 57.748Z"/>
</g>
</svg>
