<svg width="151" height="58" viewBox="0 0 151 58" xmlns="http://www.w3.org/2000/svg">
    <path fill-rule="evenodd" clip-rule="evenodd" d="M23.8345 13.4069L13.987 38.2345H9.81386L0 13.4069H3.70516C4.08369 13.4069 4.40648 13.504 4.67354 13.6971C4.9406 13.8902 5.1287 14.1449 5.24017 14.4635L10.9158 29.3454C11.0934 29.8678 11.2711 30.4518 11.4499 31.0998C11.6275 31.7465 11.8052 32.3992 11.984 33.0567C12.2731 31.6731 12.5855 30.4352 12.9187 29.3454L18.5931 14.4635C18.6826 14.1911 18.8614 13.9471 19.1273 13.7303C19.3943 13.5147 19.7171 13.4069 20.0956 13.4069H23.8345Z" fill="#4D4E4C" />
    <path fill-rule="evenodd" clip-rule="evenodd" d="M27.8071 38.2345H32.7726V13.4069H27.8071V38.2345Z" fill="#4D4E4C" />
    <path fill-rule="evenodd" clip-rule="evenodd" d="M53.4829 28.868L50.5748 20.7975C50.262 20.0026 49.9492 19.004 49.6376 17.8005C49.5039 18.3916 49.3585 18.9472 49.2027 19.4696C49.0481 19.992 48.8911 20.4457 48.7353 20.8318L45.8272 28.868H53.4829ZM61.5723 38.2345H57.9956C57.6165 38.2345 57.2979 38.1373 57.0433 37.9443C56.7863 37.7512 56.591 37.4965 56.4572 37.179L54.6863 32.2062H44.6237L42.8191 37.179C42.7284 37.4503 42.5517 37.6955 42.2831 37.9099C42.0168 38.1267 41.6924 38.2345 41.3145 38.2345H37.7378L47.2981 13.4069H52.0108L61.5723 38.2345Z" fill="#4D4E4C" />
    <path fill-rule="evenodd" clip-rule="evenodd" d="M87.3931 38.2345H92.3586V13.4069H87.3931V38.2345Z" fill="#4D4E4C" />
    <path fill-rule="evenodd" clip-rule="evenodd" d="M121.158 13.4069V38.2345H118.755C118.371 38.2345 118.061 38.1776 117.823 38.0639C117.587 37.9502 117.344 37.7346 117.095 37.4171L104.298 21.1386C104.343 21.5248 104.371 21.8991 104.383 22.2616C104.393 22.6253 104.4 22.9664 104.4 23.2839V38.2345H100.303V13.4069H102.741C103.124 13.4069 103.418 13.4531 103.621 13.5431C103.823 13.6343 104.049 13.8381 104.298 14.1567L117.164 30.5714C117.118 30.1628 117.085 29.76 117.061 29.362C117.039 28.9651 117.028 28.5849 117.028 28.2212V13.4069H121.158Z" fill="#4D4E4C" />
    <path fill-rule="evenodd" clip-rule="evenodd" d="M146.221 25.8213C146.221 23.1807 145.538 21.112 144.174 19.6141C142.81 18.1161 140.931 17.3683 138.538 17.3683C137.352 17.3683 136.284 17.5628 135.334 17.9494C134.383 18.3384 133.573 18.8987 132.902 19.6314C132.23 20.3631 131.715 21.251 131.358 22.2928C131 23.3358 130.821 24.512 130.821 25.8213C130.821 27.1305 131 28.3067 131.358 29.3485C131.715 30.3927 132.23 31.2737 132.902 31.9949C133.573 32.7161 134.383 33.2706 135.334 33.6584C136.284 34.0473 137.352 34.2407 138.538 34.2407C140.931 34.2407 142.81 33.4986 144.174 32.0111C145.538 30.5247 146.221 28.4618 146.221 25.8213ZM150.952 25.8213C150.952 27.5959 150.654 29.2374 150.062 30.747C149.47 32.2553 148.625 33.5646 147.529 34.6736C146.433 35.7838 145.125 36.6543 143.603 37.2864C142.083 37.9184 140.394 38.2345 138.538 38.2345C136.681 38.2345 134.993 37.9184 133.471 37.2864C131.951 36.6543 130.643 35.7838 129.547 34.6736C128.45 33.5646 127.606 32.2553 127.013 30.747C126.42 29.2374 126.124 27.5959 126.124 25.8213C126.124 24.0466 126.42 22.3993 127.013 20.8782C127.606 19.3594 128.45 18.0443 129.547 16.9342C130.643 15.8252 131.951 14.9604 133.471 14.3388C134.993 13.7183 136.681 13.4069 138.538 13.4069C140.394 13.4069 142.083 13.7183 143.603 14.3388C145.125 14.9604 146.433 15.8252 147.529 16.9342C148.625 18.0443 149.47 19.3594 150.062 20.8782C150.654 22.3993 150.952 24.0466 150.952 25.8213Z" fill="#4D4E4C" />
    <path fill-rule="evenodd" clip-rule="evenodd" d="M83.4209 13.4069L73.5739 38.2345H69.401L59.5864 13.4069H63.2926C63.6699 13.4069 63.9927 13.504 64.2609 13.6971C64.5268 13.8902 64.716 14.1449 64.8275 14.4635L70.5028 29.3454C70.6805 29.8678 70.8581 30.4518 71.0369 31.0998C71.2146 31.7465 71.3922 32.3992 71.571 33.0567C71.8601 31.6731 72.1713 30.4352 72.5057 29.3454L78.1798 14.4635C78.2692 14.1911 78.4469 13.9471 78.7139 13.7303C78.981 13.5147 79.3037 13.4069 79.6823 13.4069H83.4209Z" />
    <path fill-rule="evenodd" clip-rule="evenodd" d="M79.4463 0.498463C79.4463 0.498463 79.6007 4.65367 77.1341 7.12035C74.6662 9.58703 70.5122 9.43257 70.5122 9.43257C70.5122 9.43257 70.3577 5.27853 72.8244 2.81185C75.2922 0.344003 79.4463 0.498463 79.4463 0.498463Z"/>
    <path fill-rule="evenodd" clip-rule="evenodd" d="M23.8345 54.8084H41.7103V54.433H23.8345V54.8084Z" fill="#4D4E4C" />
    <path fill-rule="evenodd" clip-rule="evenodd" d="M109.241 54.8084H127.117V54.433H109.241V54.8084Z" fill="#4D4E4C" />
    <path fill-rule="evenodd" clip-rule="evenodd" d="M56.8373 57.1035H57.3696V52.1379H56.8373V57.1035Z" fill="#4D4E4C" />
    <path fill-rule="evenodd" clip-rule="evenodd" d="M64.2226 57.1035V52.6883H62.5654V52.1379H66.5378V52.6883H64.8734V57.1035H64.2226Z" fill="#4D4E4C" />
    <path fill-rule="evenodd" clip-rule="evenodd" d="M73.9856 52.7781L72.8843 55.4514H75.0809L73.9856 52.7781ZM75.7323 57.1035L75.274 56.0017H72.6983L72.24 57.1035H71.5034L73.5837 52.1379H74.3827L76.4689 57.1035H75.7323Z" fill="#4D4E4C" />
    <path fill-rule="evenodd" clip-rule="evenodd" d="M82.4277 57.1035V52.1379H83.0574V56.552H85.407V57.1035H82.4277Z" fill="#4D4E4C" />
    <path fill-rule="evenodd" clip-rule="evenodd" d="M92.091 57.1035V55.0035L90.3726 52.1379H91.006L92.3588 54.4451L93.7115 52.1379H94.345L92.6326 55.0035V57.1035H92.091Z" fill="#4D4E4C" />
</svg>
