<?xml version="1.0" encoding="utf-8"?><svg viewBox="0 0 161 126" xmlns="http://www.w3.org/2000/svg" xmlns:xlink="http://www.w3.org/1999/xlink"><style>:root>svg{display:none}:root>svg:target{display:block}</style><svg fill="none" viewBox="0 0 24 24" id="arrow" xmlns="http://www.w3.org/2000/svg"><g stroke="#000" stroke-width="2" stroke-linecap="round"><path d="M5 12l7-7M5 12l7 7M20 12H5"/></g></svg><svg viewBox="0 0 128 126" id="france" xmlns="http://www.w3.org/2000/svg"><path fill-rule="evenodd" clip-rule="evenodd" d="M65.605.483l.114.747.517.783-.371.393.083.992.318.526.782.03.636 1.217.466.022.533.434.41-.844 1.77-.537.357.915.618.332-.19.615.465 1.879.754.466.636-.216.245-.375.393.136-.163.509.962-.123.464.552-.015 1.215.445.902.352-.646.915-.012.462.351 1.093-.449.462.674.363.103.185.637.264-.005-.043-.431.413.24.114.269-.628.557.039.694-.236.412.64.009.268.887-.625.293-.163.952-.494.145.004.001.499-.146.79.283.687-.143 1.216.44 1.351-.684.845-.123-.114-.982.197-.4 1.09-1.021.1.2.542.244-.256.237.039.443-.187-.19-.277.509.189.375-.46.963.88.822-.366.593.247.651-.207.37 1.283-.098.883.516.642.96.93-.035.546.579-.157.589.303-.272.427.198.202.218.329.455.154.96.748-.442.49.313.275-.589.923.155.243-.334.571.283.282.604.87.073.137.585.535.047.28-.267.24.185.24-.544.997-.286 1.122.742.571-.227 1.141.755-.151.261.546.503-.301.255.917.919-.081.289.255.125.058.462.252-.033-.108.423.241.315.863.151.237-.377-.213-.436.894-.138.848.44.155 1.048.425-.567.516.483.792-.13.428.206.288-.39.324.003.021-.383.711-.167-.079.26.52-.059.305.973.921.33.05.263.85-.04.026.176.524-.304.645.44.601-.332 1.42.925 1.244.326-.743.837-.531 1.385-1.048.613-.071.477-1.113 1.094-.348.77.054.936-.335.33-.32 1.29.109.904-.459.341-.239 1.075-.799 1.355-.064 1.156.47.83-.586 1.239-.241 1.329.163.604-.324.483.711 1.232-.073.38-.752.479.281.153-.294.097.12.296-.201.207-.51-.17-.094.196.309.123-.616.513-.516-.12-.76.263-.099-.238-.554-.06.283-.662-.618-.12-1.334.12.167.535-.55.274-.545 1.057 1.224-.266.29.14.06.376-.404.12-.122.396-.477.099.11.587-1.016.932.156.092-.178.208-1.214.878.147.407-.875.76-1.11.244-.58.604.288.511-.297 1.001.191.486-3.048 2.58.413.408-.75 1.07-.071.604.937.636-.604 1.06.2.44-1.287.444-.137.259.268.194-.33.684.841-.302.681.155 1.489-1.1.127-.399-.436.06-.114-.673-.245-.108.286-.623 2.377-1.256 1.455.03 1.231.356-.441.928.838.962-.541.989-.063.852.905.168-.204.982.526-.21.915 1.42.058.399-.425.66-.744.401-.827.05-.118 1.426.965.945.754.151-.204.663.206 1.057.485.131-.047.285.451.032.131.464.649.348-.687.996.221.909-.582.56-.61-.105-.501.64-.468.018-.002.401-.393.121-.724-.41-1.218.628-.471-.188-.324.304-.279-.12-.269.207.001.004.266-.205.279.12.324-.303.471.187.378 1.144.631.071.06 1.374 1.004.695.416.08.226-.229.773.488-.202.431.679 1.33-1.016.075.047.722-1.001 1.129.202.604.627.63-.496.103-.047.738.956 1.027.107.552 1.609.43.819.753.567-.067.128.384.6.039.054-.227 1.675-.24.163-.338.421.026-.157.541.43.587-.082.518-.38.17-.094.676-.761.401-.077.567-.546.29.31 1.117-1.109.788-.599.08-.052.448-.159-.375-.096.26-.554-.047-.297.475-.464-.03-.313.815.208.43-.215.125-.204-.358-.533.44-.199-.197-.475.11-.23.346.176.209-.582.837-.909.248-.393-.175-.255.919-1.263.928 1.093.069-.286.291.142.531-.35.16.045.233-.232.116-.531-.382-.577.469-1 .079-.182.71-.801-.425-.778.076-.326.606.045.47-.535-.026.305-.187-.045-.427-.92.013-.176-.339-.657.045-.043-.274-.356.272.592.421-.504-.134-.284.395-.277-.039-.316-.231.135-.567-.371-.011.05-.278-.688-.059-.082-.442-.575-.082-.16.326-.61-.667-.326.216-1.415-.22.302-.512-.264-.308.247-.164-.578-.811-.72.401-1.591.048-.713-1.232-.445-.084-.234.334.108-.302-.215.127-.185-.438.148.544-.44-.235.294.345-.494.194.41-.028-.144.147.383.246.343-.3-.717.649-2.268-.399-.215-.25.29-.509-.511-.369-2.695-.099-.001.006-.851-.317-.142-.287.179-.278-.286-.257-1.203.09-2.208 1.787-.72.209-1.224 1.424.043-.214-.058.199-1.536-.253.08.259-1.434 1.17-.876 1.421-.337 1.116.15.567-.283 2.604.163 1.985.835.291-.098.408.393.574-.789.112-.406-.576-.657.093-.178-.203-.262.313-.698-.03-.546.567-.4-.146-.524.235-.204.222.179.554-.849-.213-.415.308-.43-.088-.437-.643-1.57-.539-.495.269-.41-.095-.625.74-.614.171-.473-.412-.262-.855-.477.046-.515-.46-.843-.097.084-.736.43-.224.737-.076.007-.01-.731.075.051-.166-.595-.028.088-.324-1.218-.118-.433-.354-.63.049-.02.454-.358.138-.72-1.411-1.119-.104-.545.233-.804-.969-.85.022-.21-.233-.306.201-1.944-.883-.44.272.099.414-.226.266.193.092-.219.249.32.345-.021.429-.7-.177-1.56.181-.556-.403-.587.615-.309-.514-.743-.256-1.59.632-.487-.089-.106-.306-.389-.101-.427-.876-.245.133-1.115-.759-.127-.826.413-.203-.06-.87.243-.388.72-.179-.117-.762.419-.179.256-.625.442.036-.047-.562-.013-.003.047.563-.442-.036-.256.625-.419.179.116.762-.72.179-.242.388.06.87-.412.202.126.827-.726.615-.43.043-.566-.389-.408.602-1.128-1.303-.48-.144-.197-.872-1.688.179-1.525-.863-.25.197-.19-.333-.58-.243-.301.142-.415-.304.341-.611-.653.291-.085.807-.767-.215-.295-.514.524-.481.29-.753-.058-.841-1.306-.441-.247.07-.12.472-.286-.028-.141-.675-.937.129-.073-.418-.44-.251-.015-.287 1.08-.183.6-.55 1.37-2.64 1.334-6.974.357-4.15.562-1.44 1.69.287-.122-.537-.46-.218.319-.004-1.19-.997-.582 1.038-.127.981-.136-.224.933-10.656.556-1.029.299-.22.189.477-.344.06.225.016-.12.237 2.34 2.106 1.018 3.434.848.83-.655-1.524-.415-2.496h-.006l-.355-1.245-.575-.846-1.34-.87-.477-.794-1.624-.945-.243.052.103.261-.131-.259-.013-1.195.924-.216-.404-.645.567-.073.357-.626-.226-.48.196-.055-.048-.382-.322-.306.604.004-.436-1.186-.372-.15.127-.262-.402-.14.21-.249-.506.154-.277-.238.332-.619.804-.623-.206-.549.15-.176-.765.021-.036.583-.978-.829.18.555-.427-.66-1.108-.003-.417-.796-1.198-.209-1.468-.969-.386-1.51-.812-1.14-1.732-1.62-.088-.88.37-.032-.08-.222.77-.783.042-.529.451-.26-1.078-1.13-1.315-.234.722-.469-.045-1.257-.359-.078-.782.492-.678-.598-.5.264-1.01-.42.322-.24.026-.391-.48-.475.898-.65.005-.32.305-.38-.307.381-.335-.025-.056-.557.54-.082-.611-.343-2.728.503-.855-.885-.462-.002-.236-.348-.136.175-.18-.34.043.33-.922-.029-.04.738.43.596-.46-.059-.28-.742.245-.205-.129-.673-1.218-1.19-.664-.01-.047-.33-.782.2-.657-.903-1.353-.164-.434-.384-1.134.19-.421-.582.182-.322-.258.114-.318-.696-.382.254.129.384-.595.156-.574-.38-.363.196-.4.803-1.57.002.084-1.219-.56-.995-.8-.571-.52.07-.564-.383-.932-.138.268-.06-.069-.281 2.657-.568.995.238.337-.544-.431-.992-1.32-.47-.313.09-.535.828-.118-.86.258-.197-.698-.07-.06-.34.521-.034-.015-.652.35-.138-.208.51.183.25.32-.367-.028.41.453-.212.477.294.812-.31.415.236.348-.45-.232.194-.8-.212.308-.209-.258-.123.12-.304-.49.485-.388.022.176-.237-.544.211.518-.762-.21-.168-1.64.773-.657-.23-.236.322-.582.028-.157-.429.256-.283L0 36.996l.305-.725-.142-.65.42-.547 1.065-.274.04-.374.376.085.191-.527.385.214.872-.218-.316-.233.808-.306.447.17.002.418.898-.246-.243-.092.322-.382.772-.114.363.258.053-.4.406-.292.056.213.275-.211-.015.72.359.154.053-.488.018.335.69.183-.08-.393.21-.338.097.185-.026-.25 1.28.449.32-.132-.13.503.315-.371.367.215-.015-.735.312-.28-.32-.165.157-.515-.179-.15.288.197.45-.647.115.257.097-.233.189.297.277-.07-.114.308.38-.028.696-.518.507.054.35-.453.046.48 1.196-.487v.656l.657-.04.069.316-.352.266 1.024.332-.148.47 1.143.975-.043.723.964.533-.238.42.251-.105.346.604-.077-.604.492.142.649-1.05.721-.309-.133-.304.458-.104.154.318.905-.803.311.274-.477.654.206.136.63-.464.292.774-.122.499.25-.82.151.468.256-.565.232.235-.245-.442.932-.074.095.529.356.233-.16.147.375.375-.112.656.183-.414.234.08-.43-.861.35.187-.12-.287-.462-.097.136-.228-.318-.261.372-.66 1.32-.391.07.444-.293.559.806.46 1.834-.41.743 1.96.6.38.601-.107.003-.003-.593.106-.6-.38-.743-1.96.53.194.011-.238.183.2.578-.271.642.142-.518-.362.226-.222-.546.276-1.085-1.243-.038-1.014-.357-.181.655-1.314-.195-.127.045-1.159.473.082-.499-.241-.159.517-.193-.52-.133-2.453.416-.04-.418-.178-.11.34-.717-1.634-.916-.604-.341-1.804-.354-.416.42-.507-.07-.83-.239-.385-.642-.22.116-.707.425.287.314-.164.245.377 1.84.438-.042.32.111-.305 1.08-.153.125-.397 1.856.01.323 1.233-.232-.082-.157.574.004-.192-.23.043-.103.476 1.274 1.934-.312.996.42-.384.347.257.368-.63.975-.104 1.873.665 3.222.218 1.025.554.32-.114.185.278 1.974-.604 1.145-1.048.861-.365-1.005-.043 1.555-.024.363 1.273-.262.33.004.005.26-.328-.363-1.273.088-.244-.21.164-1.403-.434-.425-.548.77-1.868-.26-.347.282.129.462-.723 1.158-.466 2.227-1.519 1.659-.254 1.669-.71.526.153.582-.263.09.246-.057-.272.955-.457 1.633-1.327.636-.08.032.425 2.316 2.12.197.995.46.725h.009l-.462-.727-.198-.994-2.316-2.121-.032-.425-.636.08.662-.615.63-1.372.41-.136.172.414.635.17.26-.19-1.331-1.199.145-1.219.636.032.015.012-.678-.588.287-1.933.432.352-.524-.787-.122-2.207.036-.208.082.34.16-.223.177-1.008-.29-.953.715-.212.746-.826 1.123-.367-.262-.05 2.264-.586.114.147.473-.488-.1.255.276.263.148-.518.073.166 1.323-.455.247.179L65.45 0l.155.483zm34.991 80.275l-.315.038-.769-.23-.281-.671-.35.192-.432-.158-.002.007.431.157.35-.192.282.671.769.23.318-.038-.001-.006zm-1.168 2.527l-.571-.238-.393.276-1.012-.155-.692.608-.345-.246-.608.388.003.003.602-.385.346.246.692-.608 1.012.155.393-.276.573.24v-.008zm-3.35.931l-.256.261-.61.177-.499-.164-.251.667.25-.66.498.163.61-.176.26-.266-.003-.002zm-1.339 1.146l-.36.46-.36-.109-.18.29-.767-.16v.007l.765.159.18-.29.36.109.364-.464-.002-.002zm-1.626.986l-.451.845v.001l.451-.844v-.002zm.137 1.366l-.307.027-.129.358-1.392-.347.001.007 1.39.347.128-.358.316-.028-.007-.006zm-1.475.818l-.183.217-.515-.073v.006l.513.073.187-.222-.002-.001zm1.173 1.294l-.185.334h.001l.186-.335h-.002zm.513 1.708l-.382.304.004.002.378-.302v-.004zm-.068.617l-.42-.052-.002.007.421.052.001-.007zm-.347-.26l.002-.007-.337-.294-.537.732-.77.166-.175-.404-.468-.043.017-.56-.264-.176-.51.091-.435-.302-.174.25-.692-.259.131-1.035-.142.067-.378.399-.434-.376-2.148 1-.27-1.07-1.231-.21v.007l1.228.209.271 1.07 2.148-1 .434.376.378-.399.142-.067-.131 1.036.692.259.174-.25.436.302.509-.091.264.175-.017.56.468.044.174.403.771-.166.537-.731.337.293zm-8.828-1.29l-1.283-.912-.464.067-.135.689-.374-.09v.012l.378.09.136-.688.464-.067 1.279.909-.001-.002V90.6zm-2.292-.933v-.013l-.587.101-.616.915-1.136-.893-.728.219.001.014.73-.22 1.137.893.617-.915.582-.1zm-2.89-.744l.005-.003-.718-.833.003.011.71.825zm-1.03-2.06l-.003-.012-.44-.294.002.012.442.295zm-.814-2.174l-.002-.007-.222-.044.064-.306-.298.094-.432-.455-.159-.47-.685.119.06-.352-.387-.31-.324.068v.006l.32-.068.387.31-.058.35.685-.117.157.47.431.456.3-.095-.065.306.228.045zm1.087-1.118l.148.154h.001l-.15-.157v.003zm3.918-3.837l.111.328.007-.004-.11-.322-.008-.002zm.12-1.752l-.007-.01-.43.234-.325-.223.32.232.443-.233zm-.587-.35v-.001l-.336-.2-.001.001.337.2zm-.315-.84l-.007-.01-.552.129.009.01.55-.128zm-.904-.267l-.007-.008-.488-.045-.299.11.08.244-.647.084-.09.285-.449-.169-.02.26.01.019.021-.272.451.17.09-.284.647-.085-.08-.241.301-.112.48.044zm-2.21.22l-.003-.005-.335-.055-.38.523.004.02.388-.534.325.05zm-.462-2.63l-.001-.001-.972-.675.001.002.972.675zm.5-7.57l1.011-.38.673.322.262-.265.16.216.254-.128-.04.374.227.03.868-.382v-.001l-.866.38-.228-.027.041-.376-.255.127-.161-.215-.262.265-.673-.321-1.011.381zm4.182-1.65l.404.382-.402-.382h-.002zm.977.043l.445.367.001-.004-.442-.365-.004.002zm.995-.159l.275.356-.277.254.504.33-.148.499.347.288-.345-.288.148-.499-.504-.33.277-.254-.273-.356h-.004zm2.332-2.748l.084.226.001-.001-.084-.228-.001.003zm.54.141l.49.302h.002l-.492-.302zm1.822.023l.261.616h.004l-.264-.615h-.001zm.961.768l-.137.428.694.4-.142.155.378.772.003-.006-.374-.764.14-.155-.695-.4.138-.429h-.005zm.979 1.283l.11.41h.007l-.114-.419-.003.01zm.452.41l-.013.66h.005l.015-.66h-.007zm1.498-.372l.032.26h.004l-.032-.264-.004.004zm.631.452l.103.625h.004l-.103-.623-.004-.002zm-9.273 26.564l-.002-.006.3.015.003.006-.301-.015zm.423 1.666v-.005l.582.194.003.006-.585-.195zM82.23 98.63l.002-.004.4.14-.002.004-.4-.14zm-1.005.852l.172.233-.172-.23v-.003zm-48.06-34.845h.005l.184-.41h-.004l-.184.41zm2.004 0h.003l.16-.306-.001-.002-.162.307zm1.15.194l.207-.29h-.001l-.207.29zm1.618-1.065l.01-.01-.593-.374-.005.012.588.373zm-.717-.097l-.184-.08.292-.745-.347-.843-.011.004.35.85-.292.744.186.082.006-.012zm.136-1.826l.011-.004-.208-.559.116-.6-.383-.19.194-.351-.379-.296-.01.009.38.298-.193.351.382.19-.116.6.206.552zm-.452-2.174l.01-.01-.567-.718.021-.485-.008-.051-.009.008.009.054-.022.485.566.717zm-.377-1.423l.01-.01-.233-.153h-.063l-.354-.24h-.036l-.497-.587.207-.472-.462-.175.103-.142-.27-.009.13-.211-.26-.147-.038-.006.29.164-.132.211.271.009-.103.142.462.175-.206.472.496.587h.036l.355.24h.062l.233.152zm1.374-2.916l.01-.009-.113-.408-.01.005.113.412zm1.217-.456l.006-.001.096-.312h-.006l-.096.313zm2.486.164h.001l.378-.598-.002-.001-.377.599zm.827-.426l.005.002.26-.962-.008.006-.257.953zm.813-1.02l.003.002.203-1.538-.004.005-.202 1.531zm.971.83l.172-.181-.172.18zm1.338 1.352l-.054.03.054-.03zm.101.886v.001l.368-.243-.368.242zm1.024.016h.001l.596-.382h-.003l-.594.382zm1.42-.362h.005l-.27-.64-.007.001.272.639zm.121-.656l.052-.002-.052.002zm5.05 8.096l-.182-.062-.003.006.181.061.004-.005zm-.431.48l-.72-.19-.002.004.72.192.002-.005zm-1.11.875l-.912-.107-.002.003.913.107.001-.003zm-1.313 3.367l.004.004.225-.174-.004-.003-.224.173zm.207 1.24l-.62-.114.001.006.616.112.003-.003zm-.884 1.679l-.625-.16v.006l.623.16.002-.006zm-2.413 2.03h-.004l-.057 1.03.004-.004.057-1.027zm-.554 1.388h-.002l-.152.473h.002l.152-.474zm-1.296.833l-.014-.012.128.28.007-.002-.121-.266zm-.247.397h-.001l-.256.736.167.914.005-.003-.167-.92.252-.727zm-2.628 3.327l-.005.009.201.147.01-.005-.206-.15zm-.16.32l-.004.002-.063.513.003.002.064-.517zm-4.919-2.608l-.001-.005-.072.32h.003l.07-.316zm40.752-62.39v.005l-.836.479-.001-.005.837-.479zm-2.386-.358l.005.002-.45.22-.039.335-.406.062h-.001l.399-.062.038-.335.454-.222zm-1.523.207l.005.004-.47.505-.007-.001.472-.508zm-1.607.25l.007.002-.304.288-.46.021.452-.021.305-.29zm-.935.059l.002.002-.762.289-.003-.002.763-.29zm-2.18-.371h.007l-.385.243-.006-.001.384-.242zm-.84.14l.007.001-.5.396-.001-.007.494-.39zm-.558-.395v.004l-.978.464.002-.005.976-.463zm-1.345-.688h.008l-.032.638-.008-.003.032-.635zm-1.381-.218l.008.001-.172.4-.004-.01.168-.391zm-.338.024l-.29.036-.556.71-.005-.004.553-.706.298-.036zm-.966-1.303h.007l-.424.392-.003-.005.42-.387zm-.66-.06l.007.012-.045.35-.009-.004.047-.359zM63 12.12l.005.002-1.073.535-.002-.003L63 12.12zm-1.255.267l.002.002-.388.123v-.002l.387-.123zm-1.628-1.696l.005.004-.342.27-.004-.003.341-.27zm-1.27-.414l.004.002-1.24.43-.002-.003 1.239-.429zm19.96 10.036l.652.064v.003l-.653-.064.002-.003zm-.73 3.586l.681.233v.005l-.687-.236-.317-.4.005-.003.318.401zm-1.62.292l.647.155v.002l-.65-.156.004-.002zm-.852 2.18l-.004-.003.144-.13.001.004-.141.13zm.292.277v-.002l.294-.056v.002l-.294.056zm-.537.406l.44.065-.002.001-.438-.066zm-.623 1.503v-.003l.576-.083.002.003-.578.083zm-1.244 2.4l.136.3-.009.008-.137-.309-.559-.157-.136-.759.01-.007.137.766.558.157zm-1.256-1.202l.213.548-.007.006-.214-.551.008-.003zm-.477-.324l.118.456-.009.003-.118-.457-.747-.541.208-.516-.464-.764-.604-.147v-.004l.61.149.465.764-.209.515.75.542zM69.6 27.81l.507.085v.003l-.509-.086.002-.003zm-.359 0l.165.275-.004.005-.167-.278-.134.037.14-.04zm-1.43-.07l.386.359-.006.002-.385-.357.005-.003zm-1.564-.16l.898.647-.004.003-.9-.645.006-.004zm-.718-.217l.276.604-.007.007-.274-.601.005-.01zm-.554.248l.367.087-.002.004-.373-.089.12-.155-.389-.313.009-.004.389.315-.12.155zm-.447-.546l-.053.175-.009.004.052-.177-.574-.177.004-.004.58.18zm-1.125-.544l.388.519-.008.008-.386-.518.006-.009zm-.849.098l.13.383-.011.003-.129-.381.01-.005zm-1.226-.423l.796.636-.008.005-.795-.636.007-.005zm-1.764.65l.167-.029-.178.03-.705-.306.007-.002.71.306zm-1.306-.439l.16.262-.012.003-.16-.265h.012zm.03-.399l-.111.401h-.013l.111-.4-.315-.102.049-.451.006-.002-.049.45.322.104zm.439-.3l-.005-.005.131-.383-.281-.235-.101-1.023-.352-.375.163-.169-.23-.023.432-.803.086-.056.163-.466-.27-.106.001-.004.275.108-.163.466-.086.056-.432.802.23.024-.163.169.352.375.101 1.023.282.235-.133.39zm-.638-3.54l.24.195-.002.005-.245-.198.277-.473-.466-.61h.008l.465.608-.277.473zm-.15-1.083h-.007l.182-.561-.212-.29.482-.697.007-.003-.483.699.213.289-.183.563zm-.104-1.552l.152.194-.006.003-.152-.194.537-.947h.005l-.536.945zM22.091 49.698h.002l.167-.726-.002-.001-.167.727zm1.373-.382l.002.002.055-.419h-.002l-.055.417zm.584-.567h.002l.146-1.549-.002.002-.146 1.547zm3.91-2.341h.002l.336-.715h-.001l-.337.715zm1.666-1.24h.002l-.05-.428h-.003l.051.428zm2.018.35h.001l.816-2.505-.002.001-.815 2.505zm2.05-3.016l.003-.001-.518-2.645-.036-.035-.2-.843.498-.842-.32-1.154.099-1.262.584.254.005-.004-.58-.252-1.64-.481-.005.005 1.634.48-.099 1.262.32 1.154-.498.842.2.843.036.035.518 2.644zm.545-6.903l.414.276.567-.037.281.594.008-.004-.28-.592-.568.037-.416-.278-.006.004zm1.574.698l.167.394.008-.004-.167-.393-.008.003zm.44-.11l.359.068.003-.003-.364-.068.002.004zm.585-.155l.107.549.008-.004-.107-.553-.008.008zm1.375-.325l1.002-.013.39.347.003-.006-.384-.343-1.01.013-.001.002zm1.683-.179l.438.2.004-.004-.44-.2-.002.004zm.647-.568l.365.009.552.481-.251.235.24.723.857.078-.002 1.03.009-.005.002-1.027-.857-.078-.24-.723.25-.235-.552-.481-.373-.009v.002zm2.211 2.252l.523.264.002-.006-.52-.262-.005.004zm1.303-.813l1.386-.31.726.755.088 1.385.777.313.003-.005-.772-.31-.088-1.385-.726-.755-1.394.312zm3.07 1.994l.408.817.921.212.002-.004-.915-.21-.41-.824-.005.01zm1.466.624l.746 1.007.533-.08 1.05.74h.007l-1.052-.742-.53.08-.751-1.014-.003.01zm1.758 1.742h-.004l-.086.394h.002l.088-.394zm-.333.452l-.006.002.283.062-.019.294h.004l.02-.296-.282-.062zm-.178.394h-.005l.033.447.4.1-.211.582.27.61.007-.002-.27-.613.21-.582-.402-.1-.032-.442zm.195 1.845l-.006.002-.036.57.006.008.036-.58zm-.487.418l-.005.003.071.912.007-.006-.073-.909zm-.606 1.558l-.007.007.082.21.006-.001-.081-.216zm-.952.868l-.004.006.09.39.206-.062.005-.007-.207.063-.09-.39zm-1.086.97H46.9l-.129.336h.002l.13-.337zm-.72.018h-.003l-.167.317.343.542.005-.003-.344-.544.165-.312zm-1.344.513l-.005-.002.01.112-.354.76.286.155-.041.36-.612 1.329.261.235.005-.006-.262-.233.612-1.331.04-.359-.285-.157.355-.76-.01-.103zm.688-22.6l.123-.176.004.004-.117.17-.01.003zm.662.264v-.287l.002.002v.291l-.558.217-.007-.005.563-.218zm.013 1.506l.083-.768.003.002-.083.767-.003-.001zm.138.645l.287-.466.005.002-.29.47-.002-.006zm-.297.73l.466-.31.002.007-.462.306-.006-.004zm.148 1.915l.568-1.407.004.002-.568 1.408-.004-.003zm1.835.546l-.078-.278.078.278zm.184.233l.047-.306h.003l-.046.306h-.004zm-.006.306l.235-.296h.008l-.238.3-.005-.004zm1.046 1.698l.41-.416.002.006-.406.413-.006-.003zm.389.507l-.017-.344.002.001.017.343h-.002zm6.672-4.192l-.012.008-.418.033v-.005l.43-.036zm.013-1.236l-.094-.213.001-.003.095.216h-.002zM49.5 38.529l.169.053-.17-.053zm-7.177 65.073l.013.003.285-.636-.258-.38.677-.55-.296-.32.026-.897-.014.009-.025.886.296.32-.676.55.257.379-.285.636zm-.146-2.369l.013-.629.423-.11-.428-.934-.01.002.425.93-.423.11-.013.641.013-.01zm-.235-1.62l-.025-.47-.72-.177-.002.001.709.174.026.475.012-.003zm-1.294-.484l-.076-.402-.013-.001.077.407.012-.004zm-.364-.435l-.02-.303.355-.145-.069-.647.492-.371-.283-.876.294-.022-.135-.591.198-.132-.475-.362.534-.516-.012-.002-.535.516.475.362-.198.132.135.591-.294.022.284.875-.492.372.068.647-.354.144.02.304.012.002zm1.624-3.833l.013.002.526-.686-.008-.009-.53.693zm1.384.395l.01.006.153-.254-.183-.555.629-.495-.006-.008-.636.501.183.554-.15.251zm.872-.956l.008.01.314-.523.343-.085-.006-.004-.35.086-.309.516zm1.282-.218l.01.007.127-.233 1.141-.244.168-.339.846.01.325-.306-.007-.008-.33.313-.847-.011-.168.339-1.14.243-.125.229zm3.248-.423l.006.007.681-.464.157-.568.37-.045-.08-.401-.013-.005.08.404-.37.045-.157.568-.674.459zm1.775-1.265l.01.003.286-.14-.078-.462-.285-.112.474-.082.393-1.04-.726-.444.241-.885.204-.035-.002-.004-.215.037-.24.885.726.444-.394 1.04-.474.082.285.112.078.462-.283.139zm.71-2.73l.007.017.094-.205.978-.05-.052-.761-.337-.225-.005-.766-.314-.464-.014-.004.316.466.004.766.337.224.052.762-.978.05-.088.19zm.66-2.37l.01.003.793-.455-.086-.253.526-.57-.053-.388.672-.172.82-.71-.156-.701.603-.19-.036-.41.698-.449-.25-.401.259-.076-.252-.968-.036-.15.324-.193-.625-1.081.303-.25-.924-.104-.22-.192.218.192.924.104-.303.25.625 1.08-.337.195.036.149.252.968-.258.076.249.401-.698.449.036.41-.603.19.157.7-.819.709-.672.172.053.388-.526.57.086.252-.79.455zm5.61-6.185l.924 1.15.46.184.945-.693.354.32.34-.277.67-.021.37.696v-.002l-.37-.697-.672.022-.338.276-.354-.32-.945.694-.46-.184-.925-1.148zm3.958 1.949v.002l.715 1.063-.715-1.065zm.344 2.222l-.001.002.249.01-.248-.012zm.665.99l.114-.406.698-.228.28-.026-.282.026-.698.228-.112.405zm1.323-.285l1.173-.127.14-.48.54-.39-.09-.418.452-.488.036-.675 1.18-1.203-.003-.003-1.179 1.204-.038.677-.452.486.093.418-.542.39-.14.482-1.17.127zm3.753-2.709v.004l.77-.232-.001-.004-.77.232zm1.029.84l.284-.055-.285.053v.003zm4.303 7.763l-.323.134-.001.006.325-.135v-.005zm-.45.762l-.52.183.005.005.513-.182.001-.006zm.196 2.645l-.694-.007-.007.011.699.007.002-.011zm-.845.804l-.306.188-1.337-.259v.014l1.324.256.32-.196-.001-.003zm-1.681 1.68l-.664-.195-.559.235-.002.006.548-.23.677.198v-.014zm-1.377.476l-1.336.496-.314-.377-.664-.188-.003.013.654.185.314.378 1.347-.5.002-.007zM66.014 101l-1.565-.058-.316.239-1.233-.535-.01.012 1.23.534.316-.239 1.566.058.012-.011zm-3.511.57l-.385-.391-.872.255-.314-.49-.433.332-.58-.144-.052-.005-.008.012.047.003.58.145.434-.332.313.489.872-.254.396.401.002-.021zm-2.845-.141l-.375-.567-.01.014.375.568.01-.015zm-.734.678l-.799-.005.004.011.797.005-.002-.011zm.342 2.387l.013.001.001-.14-.012-.02-.002.159zm.36.371v.001l.214-.206v-.001l-.214.206zm1.023 1.864l-.417-.018-.008.011.431.019-.007-.012zm-.175 1.128l-.978.217-.004.009.983-.218v-.008zm1.588 2.517l-1.473.024-.005.01 1.472-.023.006-.011zm-1.699.561l-.642.022-.007.01.645-.021.004-.011zm8.99-25.005l.51-.89.061-1.062.235-.473.236.05.04-.404h.052l.198-.476.539.517.393-.317.052-.604.39.11.763-.608.393.42.015.549.546 1.12.984-.21v.006l-.986.207-.546-1.117-.015-.55-.393-.42-.76.608-.391-.11-.052.601-.395.318-.537-.518-.198.477h-.051l-.041.403-.236-.05-.235.473-.062 1.061-.509.89zm-20.766-13.21l.602-.092-.602.092zm1.416 1.448l.506-.61h-.001l-.505.61zm.76-.335l1.077-.122-1.077.122zm1.678.894l.272-.213-.001-.001-.27.214zm1.717 3.516l-.444.629.446-.629h-.002zm-.444.63l.544.199-.257.285-.045.004.002.002.043-.007.26-.284-.547-.198zm-11.627 23.648l-.148-.037.002.002.146.035zm-.313-.032l.051.034.222.544-.37.266v.001l.372-.267-.221-.544-.052-.034h-.002zm-27.71-51.505l-.267-.322-.137.466.22.652 1.457.216.12-.367-.695-.199-.157-.46-.542.014zm107.212 71.696l-.259.578.262.218-.153.229.593.106-.099.347.299-.078.393.419.563.181.135-.192.365.397.357-.291-.084.438.451.077-.243.518.567.022.205.334.367-.028.344-.563.053-.175-.502.177.124-.347.494-.259-.043-.79.621-.34.23-.421-.455-.127-.273.358-.08-.255.262-.384.415.14-.112-.183.393-.16.226-3.68 1.224-1.802.084-1.107-.232-4.261-.773-1.54.419-1.601-.262-2.187-.361-.305-.741.212.189.852-.351.293.164.417-.275.397.294.464.021.716-.41.72-.685-.712-.866.046-.597.427.024.427-.404.244-.739-.065-.582.464-.578.071-.118.591-.301-.215-.247.123-.015-.283-.174.183.125.535-.479.117-.159.449.277.116-.282.322.061.328-.443-.013.03.36-.573.136.073.498.554-.192-.095.533.499.039.307.431-1.381.354.365.384-.179.412.29.039-.32.272.247-.071-.038.282.279-.079.421.412.363-.143.423.753-.777.447-.106.526-.498.041.273.363-.138.494.993-.171.26-.302.489.456-.219.151.088.388-.335.065.292.151-.105.25-.533.112.166.309-.64.431.408.015.021.212.606-.236.06.494.273-.172.926.317-.385.488-.608.062zm-60.67-9.698l-.477-.127.262-.354.215.481zm-37.97-57.601l.353.248-.127.442.668.339.064.714-.521-.83-.475-.02-.346-.416-.06-.438.445-.04zm6.98 10.33l-.327-.303-.453.182.251.537.64-.002 1.36.764.516-.257-1.02-.596-.536.097-.126-.16.236-.213-.786.337-.172-.326.417-.06zm1.415 3.091l-.82-.692.184 1.212 1.05.937.34 1.041.398-.772-.445-.886-.015-.708-.692-.132zm56.305 20.003l-.07-.079-.013-.017.083.096zm.015.017l.003.004.62.379v-.002l-.623-.381zm-.986 1.355h-.003l-.14-.564.324-.589.078-.138.068-.037.146-.036.275-.223.004.01-.272.219-.148.035-.07.036-.076.138-.325.59.139.559zm.789-1.491l.002.006.092.01-.006-.006-.088-.01z" opacity=".2"/></svg><svg viewBox="0 0 161 34" id="mascarada" xmlns="http://www.w3.org/2000/svg"><path fill-rule="evenodd" clip-rule="evenodd" d="M30.161 29.747h17.114v-.438H30.161v.438z" fill="#5F6361"/><path fill-rule="evenodd" clip-rule="evenodd" d="M113.077 29.747h17.114v-.438h-17.114v.438zM114.281 10.174l1.983-5.853 1.959 5.853h-3.942zm-.558-9.816l-5.854 15.553h4.548l.769-2.24h6.132l.771 2.24h4.547L118.783.358h-5.06zm-34.597 9.816L81.11 4.32l1.958 5.853h-3.94zm-.56-9.816l-5.852 15.553h4.546l.77-2.24h6.133l.77 2.24h4.547L83.626.358h-5.06zM99.55 7.19h-3.17V3.855h3.17c1.072 0 1.935.583 1.935 1.656 0 1.095-.863 1.678-1.935 1.678zm6.016-1.655c0-2.892-1.959-5.176-5.41-5.176h-7.789v15.553h4.012v-5.225h2.051l2.612 5.225h4.594l-3.171-5.714c1.468-.512 3.101-1.959 3.101-4.663zm44.666 4.64l1.982-5.853 1.958 5.853h-3.94zm4.5-9.816h-5.06l-5.852 15.553h4.546l.769-2.24h6.134l.769 2.24h4.548L154.731.358zm-20.679 12.054h-2.518V3.855h2.541c2.846 0 4.291 1.865 4.291 4.267 0 2.309-1.585 4.29-4.314 4.29zm0-12.054h-6.53v15.553h6.553c4.874 0 8.395-2.962 8.395-7.79 0-4.826-3.521-7.763-8.418-7.763zm-89.78 4.383c0-.675.513-1.072 1.679-1.072 1.538 0 3.241.536 4.547 1.632l2.191-3.009C51.035.871 48.866.123 46.371.123c-3.988 0-6.18 2.332-6.18 4.945 0 5.992 8.79 4.29 8.79 6.341 0 .77-.838 1.237-2.19 1.237a7.041 7.041 0 01-4.991-2.052l-2.122 3.124c1.563 1.47 3.754 2.473 6.902 2.473 4.174 0 6.482-2.076 6.482-5.2 0-5.783-8.79-4.337-8.79-6.25zM9.536 8.938L6.272.358H.7v15.553H4.71V5.626l3.94 10.285h1.772L14.34 5.626v10.285h4.01V.358h-5.573l-3.241 8.58zm18.115 1.236l1.983-5.853 1.957 5.853h-3.94zM27.09.358l-5.853 15.553h4.547l.769-2.24h6.132l.77 2.24h4.548L32.151.358h-5.06zm37.208 3.287c1.492 0 2.822 1.026 3.335 2.261l3.451-1.654C70.082 2.223 68.053.102 64.3.102c-4.779 0-8.417 3.24-8.417 8.044 0 4.78 3.638 8.045 8.417 8.045 3.754 0 5.783-2.193 6.786-4.174l-3.45-1.633c-.514 1.236-1.844 2.262-3.336 2.262-2.541 0-4.337-1.96-4.337-4.5 0-2.566 1.796-4.501 4.337-4.501z"/><path fill-rule="evenodd" clip-rule="evenodd" d="M64.363 30.738c0 .377-.073.716-.219 1.015-.147.301-.351.556-.614.763a2.738 2.738 0 01-.937.473c-.363.108-.759.16-1.191.16-.625 0-1.169-.08-1.632-.242-.462-.161-.89-.443-1.284-.843l.833-.822c.301.3.621.507.96.619.34.112.722.167 1.146.167.54 0 .958-.11 1.255-.33.297-.219.445-.53.445-.93 0-.377-.107-.664-.324-.857a1.06 1.06 0 00-.346-.219 3.037 3.037 0 00-.556-.127l-.972-.14c-.67-.093-1.191-.311-1.562-.66-.4-.377-.601-.9-.601-1.572 0-.355.065-.681.193-.977a2.22 2.22 0 01.548-.77c.239-.216.527-.381.867-.498a3.609 3.609 0 011.157-.173c.547 0 1.022.073 1.423.22.401.146.778.385 1.133.717l-.798.786a2.023 2.023 0 00-.826-.502 3.397 3.397 0 00-.966-.134c-.486 0-.86.122-1.117.366a1.218 1.218 0 00-.388.925c0 .155.024.296.075.424.05.127.13.242.236.343.217.194.523.321.924.384l.934.137c.386.063.692.142.925.238.23.096.433.22.61.374.222.2.39.444.502.728.112.285.167.604.167.957zM72.867 27.35c0-.443-.134-.783-.402-1.023-.267-.24-.62-.361-1.062-.361h-1.81v2.754h1.81c.441 0 .795-.118 1.062-.355.268-.236.402-.575.402-1.016zm1.238-.006c0 .362-.063.695-.186 1-.124.304-.3.566-.532.787-.231.22-.51.393-.834.52-.322.127-.686.191-1.086.191h-1.874v3.24h-1.239v-8.237h3.119c.399 0 .761.062 1.084.19.322.128.601.3.831.521.23.219.408.484.531.792.123.309.186.64.186.996zM79.935 26.707l-1.284 3.656h2.533l-1.25-3.656zm2.162 6.374l-.566-1.654H78.28l-.565 1.654h-1.33l3.019-8.236h1.005l3.02 8.236h-1.331zM86.91 33.081h1.237v-8.236H86.91v8.236zM97.668 33.081l-3.806-5.795v5.795h-1.238v-8.236h1.145l3.806 5.784v-5.784h1.238v8.236h-1.145z" fill="#5F6361"/></svg><svg fill="none" viewBox="0 0 131 58" id="rueDuVin" xmlns="http://www.w3.org/2000/svg"><path fill-rule="evenodd" clip-rule="evenodd" d="M30.933 42.3h9.6v-.334h-9.6v.335zM89.6 42.3h9.6v-.334h-9.6v.335zM44.8 39.181v-.241a29.83 29.83 0 002.179.007c.535-.009.896-.014 1.083-.014.2 0 .384.003.552.005.167.005.318.01.453.021-.069.213-.114.59-.133 1.135h-.26a3.996 3.996 0 00-.104-.697 2.74 2.74 0 00-.53-.098 8.38 8.38 0 00-1.598.014 5.63 5.63 0 00-.034.377l-.02.858v.83c.309.009.58.013.819.013.348 0 .629-.015.84-.05.078-.011.13-.032.153-.06.023-.03.049-.135.076-.317l.034-.23h.26l-.029.851.03.919h-.261l-.029-.24c-.03-.272-.053-.418-.066-.438-.022-.036-.075-.062-.158-.079-.157-.032-.512-.05-1.066-.05-.196 0-.396.005-.603.016v.757c0 .34.005.672.017.994.005.237.023.377.056.422a.27.27 0 00.154.1c.072.022.27.034.595.039v.242a16.97 16.97 0 00-1.045-.031c-.313 0-.767.01-1.365.03v-.241c.326-.005.525-.017.597-.039.07-.021.12-.05.147-.088.033-.05.055-.17.062-.363.003-.053.008-.407.017-1.065v-1.735c0-.34-.004-.67-.012-.996-.009-.237-.03-.377-.06-.42a.283.283 0 00-.153-.099c-.071-.022-.27-.034-.598-.039zM52.267 39.181v-.241l.482.012.78.018c.156 0 .395-.004.72-.015.422-.015.668-.022.734-.022.518 0 .896.044 1.133.128s.421.222.55.413c.13.191.195.4.195.624 0 .21-.061.42-.182.627-.122.206-.299.38-.531.517-.232.137-.533.243-.904.319.069.086.227.28.48.584l1.024 1.243c.292.349.463.541.511.581a.24.24 0 00.074.039c.041.01.13.017.267.017v.242a7.346 7.346 0 00-.54-.023c-.16 0-.356.007-.588.023-.177-.19-.473-.555-.887-1.099a14.914 14.914 0 00-.608-.758 22.01 22.01 0 00-.814-.91l.042-.113c.14.007.247.012.32.012.494 0 .868-.108 1.122-.322.254-.214.38-.5.38-.852 0-.307-.108-.55-.327-.73-.22-.183-.551-.273-.996-.273-.279 0-.553.038-.82.115-.012.136-.02.262-.025.38-.003.035-.012.398-.029 1.089v1.664c0 .34.006.672.017.994.005.237.024.377.054.422a.275.275 0 00.153.1c.07.022.264.034.585.039v.242c-.384-.022-.738-.031-1.06-.031-.261 0-.697.01-1.312.03v-.241c.319-.005.514-.017.584-.039.07-.021.119-.05.146-.088.033-.05.053-.17.062-.363.003-.053.008-.407.016-1.065v-1.735c0-.34-.005-.67-.013-.996-.007-.237-.027-.377-.059-.42a.278.278 0 00-.15-.099c-.068-.022-.264-.034-.586-.039zM59.243 41.115h1.783l-.883-2.242-.9 2.242zM57.6 43.2v-.255c.186 0 .302-.01.347-.023a.308.308 0 00.128-.078c.04-.038.094-.139.167-.3.042-.091.196-.438.46-1.043l.884-2.096c.095-.23.302-.742.617-1.538h.23l1.507 3.727c.245.604.408.983.488 1.137.045.087.093.144.147.17.052.029.172.044.358.044v.255a12.596 12.596 0 00-.77-.038l-1.137.038v-.255c.263-.003.423-.012.48-.025.056-.012.096-.03.114-.053a.13.13 0 00.03-.089.628.628 0 00-.048-.212l-.435-1.137h-2.045l-.385.955c-.068.173-.103.298-.103.376 0 .035.01.063.03.086.024.033.065.055.118.067.088.02.242.032.46.032v.255a17.227 17.227 0 00-.894-.035c-.228 0-.478.012-.748.035zM66.16 44.14v-.232c.236-.003.39-.02.465-.059a.13.13 0 00.066-.069c.024-.05.039-.178.047-.385.014-.323.021-.6.021-.835v-2.985a.531.531 0 00-.014-.157.5.5 0 00-.12-.158.28.28 0 00-.14-.075 2.616 2.616 0 00-.352-.02v-.232c.376.01.61.015.706.015.165 0 .327-.004.49-.015l.42.603.697.934 1.016 1.333c.326.424.588.759.785 1.003.126.16.231.287.317.38V40.51c0-.24-.008-.52-.024-.842-.01-.202-.023-.328-.044-.377a.138.138 0 00-.07-.069c-.075-.036-.228-.053-.462-.056v-.232a20.11 20.11 0 001.503 0v.232c-.234.003-.388.02-.463.056a.131.131 0 00-.066.072c-.024.047-.039.175-.047.386-.014.32-.021.598-.021.83v1.762c0 .357.005 1.021.016 1.996l-.346-.11-.081-.017a.189.189 0 01-.036-.022 1.444 1.444 0 01-.13-.148 17.41 17.41 0 01-.409-.52l-.435-.596-2.387-3.103v2.81c0 .239.007.52.024.846.008.202.023.327.043.373a.14.14 0 00.072.072c.073.037.227.053.46.056v.232a7.211 7.211 0 00-.653-.027c-.26 0-.544.01-.848.027zM78.933 42.461l-.157.335c-.313.141-.621.244-.923.307a4.72 4.72 0 01-.982.097c-.416 0-.804-.046-1.16-.141a3.133 3.133 0 01-.936-.4 2.733 2.733 0 01-.656-.588 2.437 2.437 0 01-.386-.705 2.5 2.5 0 01-.133-.836c0-.768.298-1.402.896-1.907.597-.504 1.414-.756 2.448-.756.245 0 .47.013.679.038.207.026.462.073.76.144.3.071.484.111.55.125a2.246 2.246 0 00-.132.39c-.043.205-.073.44-.09.71h-.253l-.003-.426c-.027-.235-.173-.41-.438-.526-.265-.116-.653-.173-1.163-.173a3.486 3.486 0 00-.97.13 1.926 1.926 0 00-1.2 1.076c-.13.276-.196.622-.197 1.037 0 .729.248 1.317.743 1.76.498.444 1.155.665 1.97.665.37 0 .711-.044 1.024-.136.216-.063.43-.16.641-.296l.068.076zM81.146 44.267v-.238c.269-.003.445-.021.528-.06a.144.144 0 00.077-.07c.026-.052.043-.182.054-.395.016-.33.024-.613.024-.854v-1.915c0-.34-.005-.67-.013-.996-.008-.237-.025-.377-.055-.42a.262.262 0 00-.142-.099c-.064-.022-.248-.034-.552-.039v-.241l1.09.023 1.156-.019c.554-.008.955-.01 1.205-.01.252 0 .491.012.716.041-.042.142-.069.267-.085.37-.004.023-.028.283-.069.78h-.24a3.833 3.833 0 00-.051-.697 1.722 1.722 0 00-.463-.116 6.956 6.956 0 00-.857-.053c-.06 0-.197.004-.41.015-.21.01-.363.018-.454.026-.011.279-.018.536-.024.78l-.014 1.267c.297.015.573.023.823.023.304 0 .562-.014.776-.042.082-.01.134-.03.157-.06.024-.03.043-.133.062-.308l.022-.262h.23v.07l-.02.78.02.874h-.268l-.011-.256c-.007-.185-.022-.299-.052-.343-.03-.047-.085-.076-.167-.094-.145-.031-.426-.045-.845-.045-.172 0-.414.006-.727.019a21.99 21.99 0 00-.02 1.112c0 .462.006.812.02 1.054.367.026.779.04 1.235.04.324 0 .556-.01.693-.03.138-.02.266-.053.382-.1.032-.078.063-.183.093-.315a6.51 6.51 0 00.11-.502h.254a9.99 9.99 0 00-.1 1.254 5.36 5.36 0 01-.8.05l-2.284-.03c-.033 0-.369.01-1.004.03z" fill="#636463"/><path fill-rule="evenodd" clip-rule="evenodd" d="M63.878 33.476c-.615-.565-1.396-.987-2.265-1.327-2.587-1.013-4.934-2.256-6.925-3.821-2.274-1.79-3.897-3.846-4.777-6.201a15.198 15.198 0 01-.784-3.105c-.16-1.069-.126-2.144-.044-3.21a26.55 26.55 0 01.487-3.357c.235-1.117.467-2.236.702-3.356.258-1.237.516-2.473.777-3.71.227-1.074.437-2.15.69-3.223.129-.545.212-1.096.386-1.633H0V33.6h64c-.04-.041-.078-.084-.122-.124z" fill="#1E4569"/><path fill-rule="evenodd" clip-rule="evenodd" d="M66.255 33.476c.616-.565 1.398-.987 2.267-1.327 2.587-1.013 4.933-2.256 6.923-3.821 2.276-1.79 3.897-3.846 4.777-6.201.382-1.02.627-2.055.784-3.105.16-1.069.128-2.144.045-3.21a26.25 26.25 0 00-.488-3.357c-.235-1.117-.466-2.236-.701-3.356-.258-1.237-.517-2.473-.777-3.71-.226-1.074-.438-2.15-.69-3.223-.128-.545-.211-1.096-.386-1.633h52.124V33.6h-64c.043-.041.079-.084.122-.124z" fill="#B62C30"/><path fill-rule="evenodd" clip-rule="evenodd" d="M12.8 13.853v-.5c.096 0 .428.008.997.023.28.009.675.013 1.185.013.437 0 .812-.009 1.124-.025.515-.019.942-.03 1.278-.03.652 0 1.142.046 1.466.137.325.093.601.282.83.57.228.288.342.639.342 1.052 0 .492-.156.94-.467 1.341-.313.402-.792.72-1.44.956.103.184.222.37.354.56a6.024 6.024 0 01.306.464l.966 1.418c.258.379.398.581.419.609.31.406.503.647.574.72a.63.63 0 00.206.151c.066.03.196.046.393.049v.506a60.973 60.973 0 00-1.392-.024c-.332 0-.663.008-.992.024a1.402 1.402 0 00-.15-.347l-1.334-2.15a20.467 20.467 0 00-.973-1.456 1.858 1.858 0 00-.386-.402l.067-.2c.5.015.876-.035 1.13-.15.254-.115.467-.323.643-.621.174-.3.261-.632.261-1.002 0-.374-.091-.685-.275-.933a1.454 1.454 0 00-.678-.517c-.176-.06-.487-.091-.936-.091-.2 0-.397.017-.592.05-.014.145-.026.473-.04.985-.023 1.15-.037 1.917-.037 2.303a110.89 110.89 0 00.057 3.362c.012.227.035.375.068.444a.27.27 0 00.083.088.466.466 0 00.18.065c.082.016.324.027.724.036v.536a65.408 65.408 0 00-2.159-.037c-.649 0-1.25.013-1.802.037v-.536c.473-.016.754-.038.841-.067a.184.184 0 00.11-.062.379.379 0 00.052-.17c.03-.158.051-.397.063-.717l.05-1.78v-2.26l-.026-1.284c-.007-.508-.033-.813-.073-.914a.232.232 0 00-.093-.103c-.101-.048-.409-.09-.924-.121zM24.533 13.828v-.495l2.102.036.873-.011.872-.019.239-.006v.495c-.466 0-.76.037-.885.112-.065.035-.109.106-.129.209-.06.245-.092.786-.092 1.625v1.38l.006.695c0 .726.01 1.175.027 1.345.039.373.14.674.303.902.164.227.416.412.754.554.338.14.768.21 1.29.21.599 0 1.076-.094 1.431-.283.357-.188.61-.433.76-.734.151-.3.228-.875.228-1.72V16.91c0-1.047-.003-1.687-.008-1.917-.013-.499-.044-.801-.09-.905a.291.291 0 00-.148-.141c-.142-.07-.454-.108-.931-.12v-.494c.78.028 1.242.042 1.388.042.04 0 .098-.003.176-.006l1.434-.036v.495c-.4 0-.652.028-.755.089-.053.031-.095.091-.126.18-.033.09-.064.492-.095 1.207-.03.713-.045 1.277-.045 1.69v1.396c0 .358-.027.727-.084 1.108-.056.38-.168.705-.34.976-.17.27-.41.513-.72.73-.31.22-.68.385-1.106.495-.426.112-.92.168-1.48.168a6.624 6.624 0 01-1.836-.245c-.414-.12-.752-.278-1.015-.479a2.197 2.197 0 01-.601-.672 2.031 2.031 0 01-.253-.718c-.021-.142-.032-.527-.032-1.154l.008-1.143v-1.51c0-.556-.014-1.056-.04-1.5a1.139 1.139 0 00-.077-.38.5.5 0 00-.162-.157l-.84-.081zM37.682 21.867v-.329c.233-.114.423-.232.57-.353.024-.17.044-.446.058-.829a36.68 36.68 0 00.048-1.523v-2.74c0-.105-.006-.5-.018-1.187-.012-.46-.038-.74-.082-.84a.18.18 0 00-.087-.092c-.103-.048-.384-.086-.837-.11v-.518l1.35.03c.268.004.523.007.767.007.532 0 1.123-.007 1.775-.019l1.18-.03c.14 0 .424.008.85.024.039 0 .102.013.192.037l.04.08-.109.876-.059.877h-.454c-.007-.478-.025-.773-.052-.883a.221.221 0 00-.07-.121c-.05-.037-.206-.07-.465-.099a9.927 9.927 0 00-1.129-.067c-.345 0-.698.016-1.06.044-.054.459-.08 1.041-.08 1.748v1.248c.263.02.539.031.826.031.09 0 .41-.009.965-.025.21-.004.334-.019.37-.042a.235.235 0 00.084-.13c.048-.153.075-.41.083-.772h.47l-.023 1.34.024 1.334h-.502c.004-.471-.025-.762-.087-.87-.046-.082-.13-.132-.25-.153a6.344 6.344 0 00-1.03-.067c-.376 0-.685.012-.93.036v2.583c0 .288.007.536.018.742.314.025.686.037 1.116.037.42 0 .806-.014 1.162-.042.354-.028.572-.07.653-.122.028-.016.053-.053.077-.11.068-.195.143-.563.22-1.107h.477a19.403 19.403 0 00-.127 1.984l-.076.08c-.249.027-.602.042-1.059.042l-.937-.02c-.922-.011-1.558-.017-1.908-.017-.093 0-.74.013-1.944.037zM92.94 21.867c-.362-.85-.706-1.656-1.037-2.42L91 17.386c-.708-1.614-1.144-2.576-1.306-2.886-.164-.31-.288-.486-.372-.53-.127-.065-.39-.101-.789-.11v-.528c1.018.028 1.635.043 1.857.043l2.282-.043v.528a4.316 4.316 0 00-.776.06.397.397 0 00-.193.09.211.211 0 00-.054.148c0 .121.14.506.418 1.153.162.372.248.574.257.604.01.03.026.067.043.111l1.61 3.745 1.41-3.337c.033-.077.185-.459.451-1.147.19-.486.308-.812.35-.977a.951.951 0 00.013-.146.279.279 0 00-.035-.155.217.217 0 00-.092-.076.912.912 0 00-.23-.03 10.58 10.58 0 00-.7-.043v-.528l1.616.037 1.373-.037v.528c-.41.037-.649.079-.718.127-.115.085-.354.545-.718 1.379l-.452 1.007-.859 1.954c-.728 1.668-1.221 2.847-1.48 3.539h-.966zM106.667 13.333v.537c-.453.011-.722.027-.808.046a.501.501 0 00-.181.067.196.196 0 00-.073.101c-.031.069-.055.201-.068.395-.01.107-.014.306-.019.6-.018.998-.028 1.537-.028 1.615v2.458l.021 1.116c0 .42.021.692.067.819.017.055.048.1.09.13.044.031.11.055.201.074.092.017.357.03.798.04v.536a72.826 72.826 0 00-2.338-.037c-.722 0-1.364.013-1.929.037v-.537c.466-.016.734-.03.806-.042a.436.436 0 00.192-.068.176.176 0 00.063-.098c.015-.049.033-.24.054-.573.037-.488.053-.939.053-1.354v-2.55c0-.809-.003-1.33-.011-1.562-.024-.516-.052-.839-.081-.97a.284.284 0 00-.065-.122.36.36 0 00-.162-.07c-.079-.018-.36-.035-.849-.051v-.537c.565.025 1.212.037 1.942.037.82 0 1.593-.012 2.325-.037zM108.8 21.202c.483-.023.757-.046.827-.065a.27.27 0 00.113-.08c.031-.034.056-.109.077-.22.025-.151.053-.52.087-1.102.015-.332.022-.763.022-1.293v-1.923l-.022-1.742a3.43 3.43 0 00-.038-.57.43.43 0 00-.089-.194.411.411 0 00-.193-.1c-.09-.023-.35-.049-.784-.076v-.504c.518.025.9.036 1.145.036l.891-.018.562-.018a115.144 115.144 0 003.06 3.713c.862 1.009 1.577 1.8 2.145 2.372v-1.385c0-2.146-.025-3.41-.074-3.79-.016-.147-.053-.243-.11-.287-.095-.072-.414-.112-.957-.12v-.503c.499.025.957.036 1.373.036.404 0 .927-.011 1.565-.036v.504c-.499.011-.797.047-.89.106a.169.169 0 00-.068.09c-.061.2-.101.656-.118 1.37-.02.712-.028 1.239-.028 1.578 0 2.655.026 4.264.079 4.832l-.079.054a36.157 36.157 0 00-1.049-.156c-1.319-1.44-3.191-3.605-5.615-6.491v2.982c0 .619.013 1.263.037 1.934.016.463.041.744.074.844a.23.23 0 00.082.117c.039.03.108.051.205.063.266.032.461.048.584.048.023 0 .064-.002.122-.006v.486c-.776-.009-1.218-.013-1.326-.013-.395 0-.931.013-1.61.036v-.51z" fill="#FFFFFE"/><path fill-rule="evenodd" clip-rule="evenodd" d="M62.412 16.04c-.349-.392-.717-.677-1.102-.858a2.663 2.663 0 00-1.134-.268 2.18 2.18 0 00-1.168.328c-.355.218-.627.55-.815.993-.189.442-.283.975-.283 1.597 0 .953.235 1.7.704 2.237.47.537 1.034.804 1.695.804.345 0 .654-.072.927-.219.274-.145.515-.359.72-.64a2.18 2.18 0 00.396-.939c.04-.23.06-.795.06-1.698V16.04zm-1.276-4.92v-.448c.573-.06 1.057-.136 1.45-.222.396-.087.781-.192 1.158-.317l.1.07c-.021.444-.044 1.299-.07 2.566l-.03 1.252v4.898c0 .531.01.99.026 1.38.019.388.051.621.098.696a.491.491 0 00.231.184c.108.047.431.094.968.14v.423a27.377 27.377 0 00-1.33-.055c-.223 0-.676.019-1.362.055.014-.36.028-.844.037-1.455-.205.152-.483.378-.831.681-.348.302-.62.55-.816.742a4.497 4.497 0 01-1.09.157c-.585 0-1.12-.146-1.61-.438a2.882 2.882 0 01-1.133-1.271c-.266-.555-.399-1.18-.399-1.873 0-.522.08-1.017.244-1.483.161-.467.367-.828.614-1.084.14-.145.457-.367.953-.664a11.05 11.05 0 011.202-.647 2.5 2.5 0 011.003-.198 3.776 3.776 0 011.863.492v-2.057c0-.725-.03-1.166-.093-1.322a.215.215 0 00-.114-.125c-.105-.047-.46-.073-1.07-.078zM74.667 21.27v.43a29.624 29.624 0 00-1.461-.053c-.364 0-.732.019-1.106.053.03-.408.051-.868.066-1.377-.295.241-.647.573-1.053.992a1.116 1.116 0 01-.274.211 2.528 2.528 0 01-.635.262 3.15 3.15 0 01-.758.079c-.4 0-.732-.056-1-.167a1.778 1.778 0 01-.69-.506 1.684 1.684 0 01-.328-.65 3.476 3.476 0 01-.115-.957c0-.177.006-.343.02-.499a6.24 6.24 0 00.017-.462V17.33c0-.132-.006-.463-.022-.992-.01-.333-.033-.55-.067-.652a.256.256 0 00-.095-.121c-.074-.05-.203-.076-.39-.076-.272 0-.485-.003-.643-.007v-.431c1.058-.121 1.824-.316 2.302-.584a.409.409 0 01.184-.068c.034 0 .062.012.084.038.022.024.034.062.034.113 0 .041-.003.091-.009.152-.019.161-.035.471-.05.931-.03.844-.044 1.41-.044 1.697v1.478c0 .615.04 1.048.12 1.297.082.25.24.45.474.598.232.15.521.223.866.223a2.083 2.083 0 001.334-.483c.138-.117.278-.274.421-.47.108-.148.18-.26.214-.337.034-.078.057-.193.067-.344.024-.445.036-.887.036-1.327v-.635c0-.132-.007-.463-.022-.992-.01-.333-.031-.55-.067-.652a.256.256 0 00-.095-.121c-.074-.05-.204-.076-.39-.076-.272 0-.485-.003-.643-.007v-.431c1.058-.121 1.824-.316 2.3-.584a.415.415 0 01.185-.068c.035 0 .063.012.085.038.022.024.034.062.034.113 0 .041-.003.091-.007.152-.015.161-.033.482-.052.961-.03.823-.045 1.38-.045 1.667v1.038l.016 1.052c.015.611.023.97.03 1.075.004.253.03.438.08.554a.363.363 0 00.096.116c.038.034.097.06.177.08.03.005.302.013.819.023zM79.207 55.479a59.676 59.676 0 00-2.483-.417c-1.264-.181-2.54-.34-3.605-.9-1.314-.692-2.516-1.473-3.531-2.39-.78-.704-1.63-1.384-2.26-2.152-.55-.671-1.084-1.36-1.255-2.153H64.06c-.17.793-.706 1.482-1.256 2.153-.63.768-1.48 1.448-2.26 2.152-1.013.917-2.216 1.698-3.53 2.39-1.063.56-2.342.719-3.605.9-.834.12-1.66.264-2.483.417-.49.092-.857.537-.785.893.074.363.444.608.98.637.601.034 1.2.058 1.804.058 3.879-.005 20.402-.005 24.281 0 .604 0 1.205-.024 1.804-.058.538-.029.906-.274.98-.637.072-.356-.294-.8-.784-.893z" fill="#636463"/></svg><svg viewBox="0 0 128 95" id="spain" xmlns="http://www.w3.org/2000/svg"><path fill-rule="evenodd" clip-rule="evenodd" d="M13.901.32c.15-.085.439-.181.642-.224.727-.16 1.615-.032 2.3.32.352.182.673.332.716.332.128 0 .94.534 1.261.834.15.128.535.363.856.523 1.444.695 1.497.705 5.122.567 2.342-.097 3.497-.097 4.363-.011 1.657.17 2.064.064 2.983-.748.46-.406.813-.63.984-.63.332 0 1.07.416 1.144.64.14.417.535.631 1.39.749 2.535.33 3.24.47 3.797.726.502.235.748.278 1.678.289.6.01 1.155.064 1.23.128.075.064.407.192.727.288.321.097.674.225.77.278.31.171 2.225.246 2.813.107.3-.064 1.058-.16 1.69-.203.93-.064 1.218-.128 1.464-.31.332-.246.802-.31.91-.117.042.053.192.16.352.213.225.086.32.065.545-.16.974-.919 2.952-.972 3.39-.085.182.363.6.769.791.769a.838.838 0 00.386-.15c.267-.192 2.149-.224 2.363-.042.107.085.214.085.385.01.119-.06.441-.174.726-.276l.065-.023.567-.181.492.277c.374.214.652.278 1.112.278.834 0 2.342.534 3.08 1.09.513.385.609.417.962.342.225-.043.642-.064.94-.053.3.021.642-.022.75-.086.406-.214 1.775-.673 2.18-.726.343-.054.482-.011.75.224.192.16.47.278.641.278a.65.65 0 01.524.278c.214.267.235.277 1.123.203.877-.075.909-.064 1.176.192.332.331.353.705.107 1.582-.246.865-.043 1.325.267.62.118-.257.193-.321.428-.29.225.022.3.118.428.514.128.438.192.502.577.63.246.075.685.246.984.385.717.32 2.77.47 2.92.203.053-.096.203-.15.352-.128.203.021.289.139.417.513.16.502.61 1.4.738 1.496.032.032.16.192.267.363l.193.3.128-.246c.107-.236.182-.246 1.38-.268 1.123-.032 1.336 0 1.818.214.31.139.727.438.93.663.545.62 1.026.726 1.978.47.417-.118.877-.214 1.027-.214.267 0 .599.278.813.684.106.192.117.192.299-.075.192-.299.556-.385.76-.181.074.074.363.074.897 0 .428-.065.877-.086.995-.043.192.064.203.032.128-.289a18.834 18.834 0 01-.128-.972c-.043-.545-.022-.62.192-.727.342-.192 1.059-.075 1.583.257.706.448 1.272.62 2.053.609l.717-.01.61.662.609.652.363-.182c.203-.096.46-.171.567-.171.214 0 .727.47.877.801.053.118.224.374.363.577.3.406.343.93.118 1.24-.128.17-.096.224.203.502.193.16.385.3.417.3.075 0 .888-.343 1.337-.567.449-.224 1.443-.139 2.074.171.439.224.642.417.92.887l.353.598.449-.416c.235-.235.599-.492.791-.567.631-.245 1.476-.032 2.535.63.374.236.727.321 1.871.46.193.022.267-.021.299-.181.065-.353.77-.994 1.294-1.176.92-.31 1.508-.32 2.064-.021.428.235.524.256.695.128.46-.353.877 0 .834.695-.032.491.107.64.578.64.684 0 .823.375.428 1.123-.279.513-.375.588-.813.588-.342 0-.353.01-.353.459 0 .256.032.502.075.545.043.032.085.16.107.278.021.117.139.395.278.62.395.63.524 1.047.449 1.4-.086.374-.909 1.55-1.208 1.71-.107.053-.428.459-.706.897-.578.887-.792 1.037-1.561 1.037-.3 0-.535.042-.535.096 0 .192-.888 1.079-1.069 1.079-.107 0-.225.043-.257.085-.032.054-.417.204-.866.353-.439.14-.931.363-1.102.513-.16.139-.748.556-1.315.92-1.08.704-1.422 1.068-1.786 1.87-.117.266-.31.566-.417.672-.278.246-1.422.417-3.026.438-1.251.033-1.422.054-2.62.46-.706.246-1.411.47-1.583.502-.16.043-.427.203-.588.374-.374.385-.684.545-1.058.545-.578 0-1.583.652-2.652 1.7-.556.555-1.016 1.09-1.016 1.196 0 .096.17.289.385.428.93.577 1.133 1.015.61 1.346a3.466 3.466 0 00-.525.374c-.224.203-1.411.513-1.967.513-.375.01-1.198 1.229-1.508 2.244-.15.513-.364.92-.631 1.23-.225.256-.62.822-.898 1.25-.45.726-.973 1.26-1.23 1.26-.267 0-.535.492-.663 1.219-.171 1.057-.214 1.132-.93 1.838-.439.438-.695.79-.824 1.164-.278.802-.363.973-1.123 2.191-.802 1.304-.834 1.496-.395 2.779.15.438.32 1.164.385 1.602.15 1.176.267 1.593.577 2.212.375.727.685.952 1.54 1.101.92.16 1.016.214 1.508.887 1.048 1.41 1.005 1.977-.171 2.575a4.45 4.45 0 00-.93.706 4.083 4.083 0 01-1.69 1.09c-.278.096-.738.363-1.016.598-.278.224-.684.513-.898.652-.225.128-.567.438-.78.684-.332.385-.375.502-.375 1.015 0 .513-.043.61-.332.887-.181.171-.395.31-.48.31-.086 0-.29.289-.471.652-.171.363-.439.78-.6.93-.234.245-.266.352-.213.716.086.63-.118 1.132-.76 1.944-.31.396-.555.76-.534.823.022.054.171.14.332.182.417.117.812.513.812.812 0 .203-.107.31-.556.502-1.101.481-2.588.823-3.507.802-.546-.011-.77.032-1.818.31-.77.213-1.155.438-1.262.748-.118.33-.577.876-.738.876-.128 0-1.037.673-1.7 1.26-.396.364-.524.556-.588.91-.043.245-.128.64-.193.875-.064.235-.16.706-.224 1.037-.129.63-.385 1.08-1.134 1.966-.246.289-.663.791-.92 1.112-.374.47-.545.598-.833.62-.278.031-.396-.022-.588-.257-.204-.257-.332-.3-.92-.342-.513-.032-.727-.096-.856-.257-.192-.245-.63-.267-1.219-.064-.331.129-.492.268-.695.652-.15.278-.395.652-.567.834-.245.288-.342.32-.63.267a1.265 1.265 0 01-.514-.225c-.096-.085-.235-.16-.3-.16-.074 0-.127-.043-.127-.085 0-.043-.343-.246-.76-.45-.727-.341-.78-.352-1.358-.245-.92.182-1.347.3-1.86.545-.642.31-2.428.374-2.738.096-.107-.106-.374-.181-.599-.181-.214 0-.63-.129-.93-.278-.556-.278-1.027-.278-1.369 0-.139.107-1.123.16-3.828.203-1.23.01-1.305.032-1.412.246-.053.128-.384.47-.737.758-.343.278-.738.674-.867.866-.15.224-.438.438-.737.566a10.95 10.95 0 00-.685.31c-.288.16-.813.128-1.101-.064-.246-.16-.278-.15-.695.256-.246.225-.802.599-1.251.834-.813.406-1.134.737-1.284 1.325-.032.14-.224.481-.427.759-.193.278-.353.556-.353.62 0 .598-.845 1.218-2.139 1.581l-.909.246-.695-.224c-.855-.289-1.016-.396-1.433-.973a7.006 7.006 0 00-.61-.737c-.267-.257-.288-.257-.406-.075-.246.385-.545.224-1.625-.908-.578-.599-1.048-1.176-1.059-1.283 0-.117-.107-.352-.235-.534-.214-.3-.246-.46-.214-1.218l.021-.887h-.416c-.375 0-.482-.064-.963-.599-.588-.64-.663-.919-.331-1.271.203-.214.213-.3.107-.973l-.034-.248v-.001a11.75 11.75 0 01-.073-.606c0-.064-.182-.203-.396-.299-.225-.107-.813-.566-1.315-1.036-.492-.47-1.027-.877-1.177-.92a1.314 1.314 0 01-.374-.138c-.053-.043-.3-.118-.535-.16a3.185 3.185 0 01-.802-.257c-.299-.15-.748-.182-2.299-.214-1.058-.021-2-.074-2.096-.128-.128-.064-.203-.31-.256-.759-.043-.374-.118-.758-.171-.855-.054-.106-.118-.566-.129-1.026-.032-.726-.075-.908-.374-1.389-.385-.63-.428-.983-.15-1.24.118-.095.257-.352.321-.576.075-.225.246-.556.396-.727.15-.17.374-.502.492-.737.117-.235.331-.545.46-.695.235-.267.278-.363.652-1.25.15-.353.278-.481.556-.577.235-.075.449-.257.588-.481.246-.417.588-.481.888-.15.181.193.213.203.385.043a.931.931 0 00.235-.395c.032-.129.107-.417.17-.652l.097-.417-.588.064c-.353.043-.695.01-.823-.053-.417-.214-.781-.727-.974-1.347-.256-.865-.374-1.068-.812-1.421-.524-.417-.567-.705-.193-1.485.16-.353.332-.802.375-1.005.032-.203.213-.556.406-.78.663-.78 1.347-1.924 1.347-2.233 0-.438.364-.983.802-1.187.332-.16.375-.224.375-.587 0-.481-.45-1.005-.738-.877-.663.289-1.08.118-1.08-.427a.78.78 0 00-.268-.598c-.15-.14-.267-.353-.267-.47 0-.129-.118-.353-.257-.503-.395-.427-.47-.63-.545-1.55l-.075-.854-.535-.3c-.288-.17-.577-.427-.652-.576-.064-.16-.278-.503-.47-.76-.375-.502-.46-.94-.182-1.047.16-.064.834.097 1.283.31.193.086.374.043.91-.245.448-.225.962-.396 1.475-.47.748-.107.802-.129.877-.417.053-.171.256-.63.47-1.026.214-.428.374-.877.374-1.09 0-.257.086-.449.268-.62.15-.139.267-.342.267-.438 0-.385-.363-.973-.706-1.111-.353-.14-.684-.706-.684-1.144 0-.342.438-.962.813-1.154.17-.086.566-.32.877-.513l.566-.353-.224-.277c-.118-.15-.268-.47-.332-.706-.096-.374-.085-.46.118-.737.203-.278.214-.331.075-.492-.3-.33-.321-.822-.075-1.378.192-.428.214-.63.16-1.218-.053-.556-.032-.738.086-.866.107-.107.128-.214.064-.31-.053-.085-.14-.32-.203-.523-.054-.214-.342-.652-.642-.984-.289-.33-.534-.651-.534-.705 0-.214.342-.449.652-.449.256 0 .363-.085.641-.534.182-.3.407-.598.514-.673.096-.064.267-.342.385-.61.299-.662.48-.854.834-.854.192 0 .48-.14.748-.364.246-.192.61-.395.802-.438.225-.042.385-.16.439-.299.053-.128.3-.385.556-.577.331-.235.534-.492.673-.855.118-.278.343-.705.514-.93.16-.224.3-.459.3-.502 0-.107-.782-.48-1.53-.737-.406-.15-.61-.16-.973-.075-.62.139-.78.064-.92-.449-.085-.342-.075-.513.064-.887.268-.726.29-.994.107-1.143-.107-.096-.17-.31-.17-.61 0-.523-.108-.64-.418-.459-.16.107-.32.096-.823-.096-.342-.128-.62-.214-.631-.203 0 .007-.03.07-.074.16v.001l-.086.181c-.214.417-.492.449-1.188.117-.31-.16-.737-.277-.94-.277-.214-.011-.503-.075-.653-.16-.363-.204-.428-.193-.428.053 0 .117-.074.395-.17.63-.236.61-.91.93-1.68.813a8.393 8.393 0 00-1.176-.065c-.791.032-2.106-.374-2.106-.63 0-.192-.353-.107-.93.214-.589.33-.931.406-1.06.203-.042-.075-.192 0-.406.203-.417.395-.78.587-.94.491-.065-.043-.503-.085-.963-.085-.823-.01-.866-.022-1.166-.364-.17-.192-.31-.438-.31-.545 0-.31.481-.822 1.07-1.154.395-.224.545-.374.598-.609.075-.342-.15-.598-.513-.598-.117 0-.246-.118-.3-.267l-.106-.268-.396.257c-.224.15-1.09.492-1.935.77-1.058.354-1.384.463-1.612.677-.102.096-.184.212-.303.38-.556.77-1.005 1.23-1.219 1.23-.695 0-.951-.589-.951-2.138 0-.663.053-1.293.117-1.421.064-.129.385-.503.695-.823l.578-.599-.396-.139c-1.09-.384-1.058-1.057.075-1.431.492-.16.695-.396.353-.396-.246 0-.78-.48-1.027-.94-.181-.32-.181-.385-.042-.695.096-.192.267-.566.385-.855l.213-.502H4.46c-.139 0-.684.224-1.23.492-1.422.705-1.775.502-1.197-.663.32-.652.374-.983.235-1.346-.075-.171-.107-.171-.396-.022-.716.374-1.112-.01-.759-.748.14-.288.14-.417.043-.684-.118-.299-.182-.342-.535-.342-.492 0-.62-.203-.62-.961 0-.406.086-.706.3-1.112a7.1 7.1 0 00.491-1.1c.097-.3.236-.599.31-.652.075-.064.417-.14.77-.182.92-.118 1.016-.182 1.016-.748 0-.62.3-.834 1.476-1.005.898-.128 1.444-.064 1.818.236.096.074.17.074.256-.011a.47.47 0 01.29-.128c.202 0 1.4-.78 1.72-1.122.322-.332.535-.332 1.07 0 .513.32.535.32.46.053-.032-.117-.214-.353-.417-.513-.193-.16-.396-.417-.45-.566-.181-.47.044-.716.985-1.09l.855-.342.203-.62c.268-.812.481-.94 1.604-.983.492-.01 1.005-.086 1.144-.16zm109.672 46.1c.353-.042.823-.16 1.059-.267.577-.267.63-.256 1.112.172.267.245.513.373.727.373.224 0 .353.086.492.31.096.171.182.385.182.47 0 .097.085.236.192.31.289.204.663.877.663 1.165 0 .31-.449 1.005-.759 1.165-.268.15-.524.064-1.23-.385-.31-.203-.631-.363-.706-.363-.075 0-.331-.17-.566-.374-.471-.417-.942-.588-1.615-.588-.321 0-.492-.064-.674-.256-.246-.257-.246-.267-.075-.855.203-.684.332-.78 1.198-.876zm-9.528 1.604c-.952.438-2.556 1.71-2.951 2.33-.182.266-.471.49-.973.726-.792.374-1.123.652-1.262 1.015-.161.417.053 1.037.556 1.635.171.192.299.395.299.449 0 .064.161.107.353.107.257 0 .471-.129.866-.492.524-.48.995-.748 1.123-.62.086.086.064 1.23-.032 1.496-.139.374.396.663 1.337.748.812.065 1.379.214 1.379.364 0 .053.129.235.278.417.396.47.749.438 1.337-.107.257-.246.802-.738 1.208-1.101.92-.812 1.241-1.432 1.241-2.383 0-.588.032-.684.278-.876.16-.129.342-.225.417-.225.203 0 .363-.545.246-.855a3.033 3.033 0 00-.364-.609c-.321-.427-.716-.46-1.401-.128-.395.192-.502.203-.855.096-.652-.214-.706-.288-.642-.972.086-.748-.032-.92-.727-1.058-1.069-.214-1.166-.214-1.711.043zm-12.586 9.724c.16-.182.364-.353.449-.395.374-.15 1.069.224 1.069.566 0 .235-.566 1.175-.941 1.57-.363.375-.663.899-.663 1.144 0 .16-.224.396-1.165 1.218-.364.332-.92.503-1.22.385-.181-.064-.395-.577-.395-.972 0-.14-.118-.438-.267-.652-.439-.641-.342-1.037.278-1.197.502-.139.556-.192.984-1.004.492-.92.663-.973 1.39-.47.16.117.224.096.481-.193z" opacity=".2"/></svg><svg viewBox="0 0 151 58" id="viavino" xmlns="http://www.w3.org/2000/svg"><path fill-rule="evenodd" clip-rule="evenodd" d="M23.834 13.407l-9.847 24.827H9.814L0 13.407h3.705c.379 0 .701.097.969.29.267.193.455.448.566.767l5.676 14.881c.177.523.355 1.107.534 1.755.178.646.355 1.3.534 1.957.29-1.384.601-2.622.935-3.712l5.674-14.881c.09-.273.268-.517.534-.734.267-.215.59-.323.969-.323h3.738zM27.807 38.234h4.966V13.407h-4.966v24.827zM53.483 28.868l-2.908-8.07c-.313-.795-.626-1.794-.937-2.997-.134.59-.28 1.146-.435 1.669-.155.522-.312.976-.468 1.362l-2.908 8.036h7.656zm8.09 9.366h-3.577c-.38 0-.698-.097-.953-.29a1.818 1.818 0 01-.586-.765l-1.77-4.973H44.623l-1.805 4.973c-.09.271-.267.517-.536.73-.266.218-.59.325-.968.325h-3.577l9.56-24.827h4.713l9.561 24.827zM87.393 38.234h4.966V13.407h-4.966v24.827zM121.158 13.407v24.827h-2.403c-.384 0-.694-.056-.932-.17-.236-.114-.479-.33-.728-.647L104.298 21.14c.045.386.073.76.085 1.123.01.363.017.704.017 1.022v14.95h-4.097V13.407h2.438c.383 0 .677.046.88.136.202.091.428.295.677.614l12.866 16.414a20.638 20.638 0 01-.136-2.35V13.407h4.13zM146.221 25.821c0-2.64-.683-4.709-2.047-6.207-1.364-1.498-3.243-2.246-5.636-2.246-1.186 0-2.254.195-3.204.581a6.677 6.677 0 00-2.432 1.682c-.672.732-1.187 1.62-1.544 2.662-.358 1.043-.537 2.219-.537 3.528 0 1.31.179 2.486.537 3.527.357 1.045.872 1.926 1.544 2.647a6.76 6.76 0 002.432 1.663c.95.39 2.018.583 3.204.583 2.393 0 4.272-.742 5.636-2.23 1.364-1.486 2.047-3.55 2.047-6.19zm4.731 0c0 1.775-.298 3.416-.89 4.926a11.491 11.491 0 01-2.533 3.927c-1.096 1.11-2.404 1.98-3.926 2.612-1.52.632-3.209.948-5.065.948-1.857 0-3.545-.316-5.067-.948-1.52-.632-2.828-1.502-3.924-2.612a11.494 11.494 0 01-2.534-3.927c-.593-1.51-.889-3.151-.889-4.926 0-1.774.296-3.422.889-4.943.593-1.519 1.437-2.834 2.534-3.944 1.096-1.109 2.404-1.974 3.924-2.595 1.522-.62 3.21-.932 5.067-.932 1.856 0 3.545.311 5.065.932 1.522.621 2.83 1.486 3.926 2.595a11.475 11.475 0 012.533 3.944c.592 1.521.89 3.169.89 4.943z" fill="#4D4E4C"/><path fill-rule="evenodd" clip-rule="evenodd" d="M83.42 13.407l-9.846 24.827H69.4l-9.815-24.827h3.707c.377 0 .7.097.968.29.266.193.455.448.567.767l5.675 14.881c.177.523.355 1.107.534 1.755.178.646.355 1.3.534 1.957.29-1.384.6-2.622.935-3.712l5.674-14.881c.09-.273.267-.517.534-.734.267-.215.59-.323.968-.323h3.739zM79.446.498s.155 4.156-2.312 6.622c-2.468 2.467-6.622 2.313-6.622 2.313s-.154-4.154 2.312-6.621C75.292.344 79.446.498 79.446.498z"/><path fill-rule="evenodd" clip-rule="evenodd" d="M23.834 54.808H41.71v-.375H23.834v.375zM109.241 54.808h17.876v-.375h-17.876v.375zM56.837 57.103h.533v-4.965h-.533v4.965zM64.223 57.103v-4.415h-1.658v-.55h3.973v.55h-1.665v4.415h-.65zM73.986 52.778l-1.102 2.673h2.197l-1.095-2.673zm1.746 4.325l-.458-1.101h-2.576l-.458 1.101h-.737l2.08-4.965h.8l2.086 4.965h-.737zM82.428 57.103v-4.965h.63v4.414h2.349v.551h-2.98zM92.091 57.103v-2.1l-1.718-2.865h.633l1.353 2.307 1.353-2.307h.633l-1.712 2.866v2.1h-.542z" fill="#4D4E4C"/></svg></svg>